<svg viewBox="0 0 289 325" fill="none" xmlns="http://www.w3.org/2000/svg">
<path fill-rule="evenodd" clip-rule="evenodd" d="M150.503 0C156.025 -2.42332e-07 160.501 4.49422 160.501 10.0381L160.501 314.962C160.501 320.506 156.025 325 150.503 325H138.506C132.985 325 128.509 320.506 128.509 314.962L128.509 10.0382C128.509 4.49424 132.985 7.68869e-07 138.506 5.26536e-07L150.503 0Z" fill="#E2F7E8"/>
<path fill-rule="evenodd" clip-rule="evenodd" d="M287.659 86.4675C290.42 91.2687 288.781 97.4079 284 100.18L20.9965 252.642C16.2147 255.414 10.1003 253.769 7.3396 248.968L1.34109 238.536C-1.41966 233.734 0.218681 227.595 5.00043 224.823L268.003 72.3614C272.785 69.5894 278.9 71.2344 281.66 76.0356L287.659 86.4675Z" fill="#E2F7E8"/>
<path fill-rule="evenodd" clip-rule="evenodd" d="M287.659 238.531C290.42 233.73 288.781 227.59 284 224.818L20.9965 72.3566C16.2147 69.5846 10.1003 71.2297 7.3396 76.0308L1.34109 86.4628C-1.41966 91.264 0.218681 97.4032 5.00043 100.175L268.003 252.637C272.785 255.409 278.9 253.764 281.66 248.963L287.659 238.531Z" fill="#E2F7E8"/>
</svg>
