<svg viewBox="0 0 8 9" fill="none" xmlns="http://www.w3.org/2000/svg">
<mask id="path-1-inside-1_121_656" fill="white">
<path d="M3.96 8.168C2.936 8.168 2.06133 7.80533 1.336 7.08C0.610667 6.33333 0.248 5.45867 0.248 4.456C0.248 3.432 0.610667 2.568 1.336 1.864C2.06133 1.13867 2.936 0.775999 3.96 0.775999C4.96267 0.775999 5.82667 1.13867 6.552 1.864C7.27733 2.568 7.64 3.432 7.64 4.456C7.64 5.45867 7.27733 6.33333 6.552 7.08C5.82667 7.80533 4.96267 8.168 3.96 8.168Z"/>
</mask>
<path d="M1.336 7.08L0.618721 7.77678L0.62377 7.78198L0.628893 7.78711L1.336 7.08ZM1.336 1.864L2.03248 2.58158L2.03783 2.57638L2.04311 2.57111L1.336 1.864ZM6.552 1.864L5.84489 2.57111L5.85017 2.57638L5.85553 2.58158L6.552 1.864ZM6.552 7.08L7.25911 7.78711L7.26423 7.78198L7.26928 7.77678L6.552 7.08ZM3.96 7.168C3.20173 7.168 2.58127 6.91106 2.04311 6.37289L0.628893 7.78711C1.5414 8.69961 2.67027 9.168 3.96 9.168V7.168ZM2.05328 6.38321C1.50155 5.81526 1.248 5.18763 1.248 4.456H-0.752C-0.752 5.7297 -0.280219 6.85141 0.618721 7.77678L2.05328 6.38321ZM1.248 4.456C1.248 3.69841 1.50401 3.0945 2.03248 2.58158L0.639525 1.14642C-0.282677 2.0415 -0.752 3.16559 -0.752 4.456H1.248ZM2.04311 2.57111C2.58127 2.03294 3.20173 1.776 3.96 1.776V-0.224001C2.67027 -0.224001 1.5414 0.24439 0.628893 1.15689L2.04311 2.57111ZM3.96 1.776C4.69068 1.776 5.30225 2.02847 5.84489 2.57111L7.25911 1.15689C6.35108 0.248866 5.23465 -0.224001 3.96 -0.224001V1.776ZM5.85553 2.58158C6.38399 3.0945 6.64 3.69841 6.64 4.456H8.64C8.64 3.16559 8.17068 2.0415 7.24848 1.14642L5.85553 2.58158ZM6.64 4.456C6.64 5.18763 6.38645 5.81526 5.83472 6.38321L7.26928 7.77678C8.16822 6.85141 8.64 5.7297 8.64 4.456H6.64ZM5.84489 6.37289C5.30225 6.91553 4.69068 7.168 3.96 7.168V9.168C5.23465 9.168 6.35108 8.69513 7.25911 7.78711L5.84489 6.37289Z" fill="#B4B9BF" mask="url(#path-1-inside-1_121_656)"/>
</svg>
