<svg style="display: none">
  <symbol id="icon-logo" xmlns="http://www.w3.org/2000/svg" viewBox="0 0 186 52" fill="none">
    <path d="M180.447 14.9883C182.162 14.9883 183.516 15.5078 184.509 16.5469C185.502 17.5633 185.999 18.9864 185.999 20.816V32.1327C185.999 32.3586 185.886 32.4716 185.66 32.4716H183.121C182.896 32.4716 182.783 32.3586 182.783 32.1327V21.4937C182.783 20.3643 182.467 19.472 181.835 18.817C181.226 18.1393 180.402 17.8005 179.364 17.8005C178.326 17.8005 177.48 18.128 176.825 18.7831C176.171 19.4382 175.843 20.3191 175.843 21.4259V32.1327C175.843 32.3586 175.731 32.4716 175.505 32.4716H172.966C172.74 32.4716 172.628 32.3586 172.628 32.1327V21.4937C172.628 20.3643 172.312 19.472 171.68 18.817C171.071 18.1393 170.247 17.8005 169.209 17.8005C168.171 17.8005 167.336 18.128 166.704 18.7831C166.094 19.4382 165.79 20.3191 165.79 21.4259V32.1327C165.79 32.3586 165.677 32.4716 165.451 32.4716H162.879C162.653 32.4716 162.54 32.3586 162.54 32.1327V15.5643C162.54 15.3384 162.653 15.2255 162.879 15.2255H165.451C165.677 15.2255 165.79 15.3384 165.79 15.5643V16.7163C165.79 16.7615 165.801 16.7953 165.824 16.8179C165.869 16.8405 165.914 16.8292 165.959 16.784C166.952 15.5869 168.396 14.9883 170.292 14.9883C171.443 14.9883 172.425 15.2142 173.237 15.6659C174.049 16.0951 174.681 16.7389 175.133 17.5972C175.2 17.6876 175.268 17.6876 175.336 17.5972C175.877 16.7163 176.588 16.0612 177.468 15.632C178.371 15.2029 179.364 14.9883 180.447 14.9883Z" fill="#242527"/>
    <path d="M152.481 14.9883C154.197 14.9883 155.551 15.5078 156.544 16.5469C157.537 17.5633 158.033 18.9864 158.033 20.816V32.1327C158.033 32.3586 157.92 32.4716 157.694 32.4716H155.156C154.93 32.4716 154.817 32.3586 154.817 32.1327V21.4937C154.817 20.3643 154.501 19.472 153.869 18.817C153.26 18.1393 152.436 17.8005 151.398 17.8005C150.36 17.8005 149.514 18.128 148.859 18.7831C148.205 19.4382 147.878 20.3191 147.878 21.4259V32.1327C147.878 32.3586 147.765 32.4716 147.539 32.4716H145C144.775 32.4716 144.662 32.3586 144.662 32.1327V21.4937C144.662 20.3643 144.346 19.472 143.714 18.817C143.105 18.1393 142.281 17.8005 141.243 17.8005C140.205 17.8005 139.37 18.128 138.738 18.7831C138.129 19.4382 137.824 20.3191 137.824 21.4259V32.1327C137.824 32.3586 137.711 32.4716 137.485 32.4716H134.913C134.687 32.4716 134.574 32.3586 134.574 32.1327V15.5643C134.574 15.3384 134.687 15.2255 134.913 15.2255H137.485C137.711 15.2255 137.824 15.3384 137.824 15.5643V16.7163C137.824 16.7615 137.835 16.7953 137.858 16.8179C137.903 16.8405 137.948 16.8292 137.993 16.784C138.986 15.5869 140.43 14.9883 142.326 14.9883C143.477 14.9883 144.459 15.2142 145.271 15.6659C146.084 16.0951 146.715 16.7389 147.167 17.5972C147.235 17.6876 147.302 17.6876 147.37 17.5972C147.912 16.7163 148.622 16.0612 149.503 15.632C150.405 15.2029 151.398 14.9883 152.481 14.9883Z" fill="#242527"/>
    <path d="M122.838 32.7423C121.168 32.7423 119.712 32.3245 118.471 31.4887C117.23 30.6303 116.361 29.4445 115.864 27.931C115.458 26.7113 115.255 25.3334 115.255 23.7974C115.255 22.1936 115.447 20.8383 115.83 19.7315C116.327 18.2407 117.196 17.0774 118.437 16.2416C119.678 15.3833 121.156 14.9541 122.871 14.9541C124.496 14.9541 125.907 15.3833 127.103 16.2416C128.321 17.0774 129.19 18.2294 129.709 19.6976C130.115 20.8496 130.319 22.2049 130.319 23.7635C130.319 25.3447 130.115 26.7339 129.709 27.931C129.213 29.4445 128.355 30.6303 127.137 31.4887C125.918 32.3245 124.485 32.7423 122.838 32.7423ZM122.838 29.9301C123.74 29.9301 124.53 29.6816 125.207 29.1847C125.884 28.6652 126.369 27.9423 126.663 27.0162C126.911 26.1579 127.035 25.0962 127.035 23.8313C127.035 22.5663 126.922 21.516 126.697 20.6802C126.403 19.7541 125.918 19.0426 125.241 18.5456C124.564 18.0261 123.74 17.7663 122.77 17.7663C121.845 17.7663 121.043 18.0261 120.366 18.5456C119.689 19.0426 119.204 19.7541 118.911 20.6802C118.663 21.4708 118.538 22.5212 118.538 23.8313C118.538 25.1414 118.663 26.203 118.911 27.0162C119.182 27.9423 119.656 28.6652 120.333 29.1847C121.032 29.6816 121.867 29.9301 122.838 29.9301Z" fill="#242527"/>
    <path d="M105.017 32.7423C103.302 32.7423 101.835 32.3132 100.616 31.4548C99.3976 30.5739 98.5626 29.388 98.1113 27.8972C97.7728 26.8581 97.6035 25.4915 97.6035 23.7974C97.6035 22.2388 97.7728 20.8722 98.1113 19.6976C98.5626 18.252 99.3976 17.1 100.616 16.2416C101.857 15.3833 103.324 14.9541 105.017 14.9541C106.709 14.9541 108.188 15.3833 109.451 16.2416C110.715 17.1 111.539 18.1842 111.923 19.4943C112.058 19.8557 112.148 20.2285 112.193 20.6125C112.193 20.7932 112.092 20.9061 111.889 20.9513L109.35 21.324H109.282C109.124 21.324 109.011 21.2223 108.944 21.019L108.842 20.4769C108.662 19.7089 108.221 19.0652 107.522 18.5456C106.822 18.0261 105.976 17.7663 104.983 17.7663C104.013 17.7663 103.189 18.0261 102.512 18.5456C101.835 19.0652 101.395 19.7541 101.192 20.6125C100.989 21.4256 100.887 22.4986 100.887 23.8313C100.887 25.1414 100.989 26.203 101.192 27.0162C101.417 27.9197 101.857 28.6313 102.512 29.1508C103.189 29.6703 104.013 29.9301 104.983 29.9301C105.976 29.9301 106.822 29.6703 107.522 29.1508C108.244 28.6313 108.695 27.9536 108.876 27.1179C108.898 27.0953 108.898 27.0727 108.876 27.0501C108.876 27.0049 108.887 26.971 108.91 26.9485V26.8129C108.977 26.6322 109.102 26.5645 109.282 26.6096L111.821 27.0162C112.001 27.0614 112.092 27.1517 112.092 27.2873V27.4228C112.092 27.6261 112.035 27.8746 111.923 28.1682C111.539 29.5461 110.715 30.6529 109.451 31.4887C108.188 32.3245 106.709 32.7423 105.017 32.7423Z" fill="#242527"/>
    <path d="M90.154 15.5634C90.154 15.3376 90.2668 15.2246 90.4925 15.2246H93.0313C93.257 15.2246 93.3698 15.3376 93.3698 15.5634V32.1319C93.3698 32.3578 93.257 32.4707 93.0313 32.4707H90.4925C90.2668 32.4707 90.154 32.3578 90.154 32.1319V30.8783C90.154 30.8331 90.1314 30.8105 90.0863 30.8105C90.0637 30.7879 90.0299 30.7992 89.9847 30.8444C89.082 32.0867 87.6941 32.7079 85.821 32.7079C84.7152 32.7079 83.6884 32.4933 82.7406 32.0641C81.8153 31.635 81.0706 31.0025 80.5064 30.1667C79.9422 29.331 79.6602 28.3145 79.6602 27.1173V15.5634C79.6602 15.3376 79.773 15.2246 79.9987 15.2246H82.5375C82.7632 15.2246 82.876 15.3376 82.876 15.5634V26.1008C82.876 27.2754 83.1807 28.2016 83.79 28.8792C84.4219 29.5568 85.302 29.8957 86.4304 29.8957C87.5587 29.8957 88.4614 29.5568 89.1384 28.8792C89.8155 28.179 90.154 27.2528 90.154 26.1008V15.5634Z" fill="#242527"/>
    <path d="M68.9837 32.7423C67.2686 32.7423 65.8017 32.3132 64.5831 31.4548C63.3644 30.5739 62.5294 29.388 62.0781 27.8972C61.7396 26.8581 61.5703 25.4915 61.5703 23.7974C61.5703 22.2388 61.7396 20.8722 62.0781 19.6976C62.5294 18.252 63.3644 17.1 64.5831 16.2416C65.8243 15.3833 67.2911 14.9541 68.9837 14.9541C70.6762 14.9541 72.1544 15.3833 73.4182 16.2416C74.6819 17.1 75.5057 18.1842 75.8893 19.4943C76.0247 19.8557 76.115 20.2285 76.1601 20.6125C76.1601 20.7932 76.0586 20.9061 75.8554 20.9513L73.3166 21.324H73.2489C73.0909 21.324 72.9781 21.2223 72.9104 21.019L72.8089 20.4769C72.6283 19.7089 72.1883 19.0652 71.4887 18.5456C70.7891 18.0261 69.9428 17.7663 68.9498 17.7663C67.9794 17.7663 67.1557 18.0261 66.4787 18.5456C65.8017 19.0652 65.3616 19.7541 65.1585 20.6125C64.9554 21.4256 64.8539 22.4986 64.8539 23.8313C64.8539 25.1414 64.9554 26.203 65.1585 27.0162C65.3842 27.9197 65.8243 28.6313 66.4787 29.1508C67.1557 29.6703 67.9794 29.9301 68.9498 29.9301C69.9428 29.9301 70.7891 29.6703 71.4887 29.1508C72.2108 28.6313 72.6622 27.9536 72.8427 27.1179C72.8653 27.0953 72.8653 27.0727 72.8427 27.0501C72.8427 27.0049 72.854 26.971 72.8766 26.9485V26.8129C72.9443 26.6322 73.0684 26.5645 73.2489 26.6096L75.7877 27.0162C75.9683 27.0614 76.0586 27.1517 76.0586 27.2873V27.4228C76.0586 27.6261 76.0021 27.8746 75.8893 28.1682C75.5057 29.5461 74.6819 30.6529 73.4182 31.4887C72.1544 32.3245 70.6762 32.7423 68.9837 32.7423Z" fill="#242527"/>
    <path d="M0 24.2353C0 10.8505 10.8405 0 24.2129 0C37.5853 0 48.4258 10.8505 48.4258 24.2353C48.4258 37.6201 37.5853 48.4706 24.2129 48.4706C10.8405 48.4706 0 37.6201 0 24.2353Z" fill="#1FC34D"/>
    <path d="M8.22789 52L20.2168 45.1765L8.22789 38.3529V52Z" fill="#1FC34D"/>
    <path fill-rule="evenodd" clip-rule="evenodd" d="M24.9746 8.04688C25.5263 8.04688 25.9736 8.49459 25.9736 9.04687L25.9736 39.4233C25.9736 39.9756 25.5263 40.4233 24.9746 40.4233L23.7757 40.4233C23.2239 40.4233 22.7766 39.9756 22.7766 39.4233L22.7766 9.04688C22.7766 8.49459 23.2239 8.04688 23.7757 8.04688L24.9746 8.04688Z" fill="white"/>
    <path fill-rule="evenodd" clip-rule="evenodd" d="M38.6811 16.6603C38.957 17.1386 38.7933 17.7502 38.3154 18.0264L12.033 33.2146C11.5551 33.4907 10.9441 33.3269 10.6682 32.8486L10.0688 31.8093C9.79287 31.3311 9.95659 30.7195 10.4344 30.4433L36.7169 15.2551C37.1948 14.9789 37.8058 15.1428 38.0817 15.6211L38.6811 16.6603Z" fill="white"/>
    <path fill-rule="evenodd" clip-rule="evenodd" d="M38.6811 31.8094C38.957 31.3311 38.7933 30.7195 38.3154 30.4434L12.033 15.2551C11.5551 14.979 10.9441 15.1429 10.6682 15.6212L10.0688 16.6604C9.79287 17.1387 9.95659 17.7503 10.4344 18.0264L36.7169 33.2146C37.1948 33.4908 37.8058 33.3269 38.0817 32.8486L38.6811 31.8094Z" fill="white"/>
  </symbol>
</svg>

