<svg style="display: none">
  <symbol id="icon-logo" xmlns="http://www.w3.org/2000/svg" viewBox="0 0 186 52" fill="none">
    <path d="M180.447 14.9883C182.162 14.9883 183.516 15.5078 184.509 16.5469C185.502 17.5633 185.999 18.9864 185.999 20.816V32.1327C185.999 32.3586 185.886 32.4716 185.66 32.4716H183.121C182.896 32.4716 182.783 32.3586 182.783 32.1327V21.4937C182.783 20.3643 182.467 19.472 181.835 18.817C181.226 18.1393 180.402 17.8005 179.364 17.8005C178.326 17.8005 177.48 18.128 176.825 18.7831C176.171 19.4382 175.843 20.3191 175.843 21.4259V32.1327C175.843 32.3586 175.731 32.4716 175.505 32.4716H172.966C172.74 32.4716 172.628 32.3586 172.628 32.1327V21.4937C172.628 20.3643 172.312 19.472 171.68 18.817C171.071 18.1393 170.247 17.8005 169.209 17.8005C168.171 17.8005 167.336 18.128 166.704 18.7831C166.094 19.4382 165.79 20.3191 165.79 21.4259V32.1327C165.79 32.3586 165.677 32.4716 165.451 32.4716H162.879C162.653 32.4716 162.54 32.3586 162.54 32.1327V15.5643C162.54 15.3384 162.653 15.2255 162.879 15.2255H165.451C165.677 15.2255 165.79 15.3384 165.79 15.5643V16.7163C165.79 16.7615 165.801 16.7953 165.824 16.8179C165.869 16.8405 165.914 16.8292 165.959 16.784C166.952 15.5869 168.396 14.9883 170.292 14.9883C171.443 14.9883 172.425 15.2142 173.237 15.6659C174.049 16.0951 174.681 16.7389 175.133 17.5972C175.2 17.6876 175.268 17.6876 175.336 17.5972C175.877 16.7163 176.588 16.0612 177.468 15.632C178.371 15.2029 179.364 14.9883 180.447 14.9883Z" fill="#242527"/>
    <path d="M152.481 14.9883C154.197 14.9883 155.551 15.5078 156.544 16.5469C157.537 17.5633 158.033 18.9864 158.033 20.816V32.1327C158.033 32.3586 157.92 32.4716 157.694 32.4716H155.156C154.93 32.4716 154.817 32.3586 154.817 32.1327V21.4937C154.817 20.3643 154.501 19.472 153.869 18.817C153.26 18.1393 152.436 17.8005 151.398 17.8005C150.36 17.8005 149.514 18.128 148.859 18.7831C148.205 19.4382 147.878 20.3191 147.878 21.4259V32.1327C147.878 32.3586 147.765 32.4716 147.539 32.4716H145C144.775 32.4716 144.662 32.3586 144.662 32.1327V21.4937C144.662 20.3643 144.346 19.472 143.714 18.817C143.105 18.1393 142.281 17.8005 141.243 17.8005C140.205 17.8005 139.37 18.128 138.738 18.7831C138.129 19.4382 137.824 20.3191 137.824 21.4259V32.1327C137.824 32.3586 137.711 32.4716 137.485 32.4716H134.913C134.687 32.4716 134.574 32.3586 134.574 32.1327V15.5643C134.574 15.3384 134.687 15.2255 134.913 15.2255H137.485C137.711 15.2255 137.824 15.3384 137.824 15.5643V16.7163C137.824 16.7615 137.835 16.7953 137.858 16.8179C137.903 16.8405 137.948 16.8292 137.993 16.784C138.986 15.5869 140.43 14.9883 142.326 14.9883C143.477 14.9883 144.459 15.2142 145.271 15.6659C146.084 16.0951 146.715 16.7389 147.167 17.5972C147.235 17.6876 147.302 17.6876 147.37 17.5972C147.912 16.7163 148.622 16.0612 149.503 15.632C150.405 15.2029 151.398 14.9883 152.481 14.9883Z" fill="#242527"/>
    <path d="M122.838 32.7423C121.168 32.7423 119.712 32.3245 118.471 31.4887C117.23 30.6303 116.361 29.4445 115.864 27.931C115.458 26.7113 115.255 25.3334 115.255 23.7974C115.255 22.1936 115.447 20.8383 115.83 19.7315C116.327 18.2407 117.196 17.0774 118.437 16.2416C119.678 15.3833 121.156 14.9541 122.871 14.9541C124.496 14.9541 125.907 15.3833 127.103 16.2416C128.321 17.0774 129.19 18.2294 129.709 19.6976C130.115 20.8496 130.319 22.2049 130.319 23.7635C130.319 25.3447 130.115 26.7339 129.709 27.931C129.213 29.4445 128.355 30.6303 127.137 31.4887C125.918 32.3245 124.485 32.7423 122.838 32.7423ZM122.838 29.9301C123.74 29.9301 124.53 29.6816 125.207 29.1847C125.884 28.6652 126.369 27.9423 126.663 27.0162C126.911 26.1579 127.035 25.0962 127.035 23.8313C127.035 22.5663 126.922 21.516 126.697 20.6802C126.403 19.7541 125.918 19.0426 125.241 18.5456C124.564 18.0261 123.74 17.7663 122.77 17.7663C121.845 17.7663 121.043 18.0261 120.366 18.5456C119.689 19.0426 119.204 19.7541 118.911 20.6802C118.663 21.4708 118.538 22.5212 118.538 23.8313C118.538 25.1414 118.663 26.203 118.911 27.0162C119.182 27.9423 119.656 28.6652 120.333 29.1847C121.032 29.6816 121.867 29.9301 122.838 29.9301Z" fill="#242527"/>
    <path d="M105.017 32.7423C103.302 32.7423 101.835 32.3132 100.616 31.4548C99.3976 30.5739 98.5626 29.388 98.1113 27.8972C97.7728 26.8581 97.6035 25.4915 97.6035 23.7974C97.6035 22.2388 97.7728 20.8722 98.1113 19.6976C98.5626 18.252 99.3976 17.1 100.616 16.2416C101.857 15.3833 103.324 14.9541 105.017 14.9541C106.709 14.9541 108.188 15.3833 109.451 16.2416C110.715 17.1 111.539 18.1842 111.923 19.4943C112.058 19.8557 112.148 20.2285 112.193 20.6125C112.193 20.7932 112.092 20.9061 111.889 20.9513L109.35 21.324H109.282C109.124 21.324 109.011 21.2223 108.944 21.019L108.842 20.4769C108.662 19.7089 108.221 19.0652 107.522 18.5456C106.822 18.0261 105.976 17.7663 104.983 17.7663C104.013 17.7663 103.189 18.0261 102.512 18.5456C101.835 19.0652 101.395 19.7541 101.192 20.6125C100.989 21.4256 100.887 22.4986 100.887 23.8313C100.887 25.1414 100.989 26.203 101.192 27.0162C101.417 27.9197 101.857 28.6313 102.512 29.1508C103.189 29.6703 104.013 29.9301 104.983 29.9301C105.976 29.9301 106.822 29.6703 107.522 29.1508C108.244 28.6313 108.695 27.9536 108.876 27.1179C108.898 27.0953 108.898 27.0727 108.876 27.0501C108.876 27.0049 108.887 26.971 108.91 26.9485V26.8129C108.977 26.6322 109.102 26.5645 109.282 26.6096L111.821 27.0162C112.001 27.0614 112.092 27.1517 112.092 27.2873V27.4228C112.092 27.6261 112.035 27.8746 111.923 28.1682C111.539 29.5461 110.715 30.6529 109.451 31.4887C108.188 32.3245 106.709 32.7423 105.017 32.7423Z" fill="#242527"/>
    <path d="M90.154 15.5634C90.154 15.3376 90.2668 15.2246 90.4925 15.2246H93.0313C93.257 15.2246 93.3698 15.3376 93.3698 15.5634V32.1319C93.3698 32.3578 93.257 32.4707 93.0313 32.4707H90.4925C90.2668 32.4707 90.154 32.3578 90.154 32.1319V30.8783C90.154 30.8331 90.1314 30.8105 90.0863 30.8105C90.0637 30.7879 90.0299 30.7992 89.9847 30.8444C89.082 32.0867 87.6941 32.7079 85.821 32.7079C84.7152 32.7079 83.6884 32.4933 82.7406 32.0641C81.8153 31.635 81.0706 31.0025 80.5064 30.1667C79.9422 29.331 79.6602 28.3145 79.6602 27.1173V15.5634C79.6602 15.3376 79.773 15.2246 79.9987 15.2246H82.5375C82.7632 15.2246 82.876 15.3376 82.876 15.5634V26.1008C82.876 27.2754 83.1807 28.2016 83.79 28.8792C84.4219 29.5568 85.302 29.8957 86.4304 29.8957C87.5587 29.8957 88.4614 29.5568 89.1384 28.8792C89.8155 28.179 90.154 27.2528 90.154 26.1008V15.5634Z" fill="#242527"/>
    <path d="M68.9837 32.7423C67.2686 32.7423 65.8017 32.3132 64.5831 31.4548C63.3644 30.5739 62.5294 29.388 62.0781 27.8972C61.7396 26.8581 61.5703 25.4915 61.5703 23.7974C61.5703 22.2388 61.7396 20.8722 62.0781 19.6976C62.5294 18.252 63.3644 17.1 64.5831 16.2416C65.8243 15.3833 67.2911 14.9541 68.9837 14.9541C70.6762 14.9541 72.1544 15.3833 73.4182 16.2416C74.6819 17.1 75.5057 18.1842 75.8893 19.4943C76.0247 19.8557 76.115 20.2285 76.1601 20.6125C76.1601 20.7932 76.0586 20.9061 75.8554 20.9513L73.3166 21.324H73.2489C73.0909 21.324 72.9781 21.2223 72.9104 21.019L72.8089 20.4769C72.6283 19.7089 72.1883 19.0652 71.4887 18.5456C70.7891 18.0261 69.9428 17.7663 68.9498 17.7663C67.9794 17.7663 67.1557 18.0261 66.4787 18.5456C65.8017 19.0652 65.3616 19.7541 65.1585 20.6125C64.9554 21.4256 64.8539 22.4986 64.8539 23.8313C64.8539 25.1414 64.9554 26.203 65.1585 27.0162C65.3842 27.9197 65.8243 28.6313 66.4787 29.1508C67.1557 29.6703 67.9794 29.9301 68.9498 29.9301C69.9428 29.9301 70.7891 29.6703 71.4887 29.1508C72.2108 28.6313 72.6622 27.9536 72.8427 27.1179C72.8653 27.0953 72.8653 27.0727 72.8427 27.0501C72.8427 27.0049 72.854 26.971 72.8766 26.9485V26.8129C72.9443 26.6322 73.0684 26.5645 73.2489 26.6096L75.7877 27.0162C75.9683 27.0614 76.0586 27.1517 76.0586 27.2873V27.4228C76.0586 27.6261 76.0021 27.8746 75.8893 28.1682C75.5057 29.5461 74.6819 30.6529 73.4182 31.4887C72.1544 32.3245 70.6762 32.7423 68.9837 32.7423Z" fill="#242527"/>
    <path d="M0 24.2353C0 10.8505 10.8405 0 24.2129 0C37.5853 0 48.4258 10.8505 48.4258 24.2353C48.4258 37.6201 37.5853 48.4706 24.2129 48.4706C10.8405 48.4706 0 37.6201 0 24.2353Z" fill="#1FC34D"/>
    <path d="M8.22789 52L20.2168 45.1765L8.22789 38.3529V52Z" fill="#1FC34D"/>
    <path fill-rule="evenodd" clip-rule="evenodd" d="M24.9746 8.04688C25.5263 8.04688 25.9736 8.49459 25.9736 9.04687L25.9736 39.4233C25.9736 39.9756 25.5263 40.4233 24.9746 40.4233L23.7757 40.4233C23.2239 40.4233 22.7766 39.9756 22.7766 39.4233L22.7766 9.04688C22.7766 8.49459 23.2239 8.04688 23.7757 8.04688L24.9746 8.04688Z" fill="white"/>
    <path fill-rule="evenodd" clip-rule="evenodd" d="M38.6811 16.6603C38.957 17.1386 38.7933 17.7502 38.3154 18.0264L12.033 33.2146C11.5551 33.4907 10.9441 33.3269 10.6682 32.8486L10.0688 31.8093C9.79287 31.3311 9.95659 30.7195 10.4344 30.4433L36.7169 15.2551C37.1948 14.9789 37.8058 15.1428 38.0817 15.6211L38.6811 16.6603Z" fill="white"/>
    <path fill-rule="evenodd" clip-rule="evenodd" d="M38.6811 31.8094C38.957 31.3311 38.7933 30.7195 38.3154 30.4434L12.033 15.2551C11.5551 14.979 10.9441 15.1429 10.6682 15.6212L10.0688 16.6604C9.79287 17.1387 9.95659 17.7503 10.4344 18.0264L36.7169 33.2146C37.1948 33.4908 37.8058 33.3269 38.0817 32.8486L38.6811 31.8094Z" fill="white"/>
  </symbol>

  <symbol id="icon-list-point" viewBox="0 0 8 9" fill="none" xmlns="http://www.w3.org/2000/svg">
    <mask id="path-1-inside-1_121_656" fill="white">
    <path d="M3.96 8.168C2.936 8.168 2.06133 7.80533 1.336 7.08C0.610667 6.33333 0.248 5.45867 0.248 4.456C0.248 3.432 0.610667 2.568 1.336 1.864C2.06133 1.13867 2.936 0.775999 3.96 0.775999C4.96267 0.775999 5.82667 1.13867 6.552 1.864C7.27733 2.568 7.64 3.432 7.64 4.456C7.64 5.45867 7.27733 6.33333 6.552 7.08C5.82667 7.80533 4.96267 8.168 3.96 8.168Z"/>
    </mask>
    <path d="M1.336 7.08L0.618721 7.77678L0.62377 7.78198L0.628893 7.78711L1.336 7.08ZM1.336 1.864L2.03248 2.58158L2.03783 2.57638L2.04311 2.57111L1.336 1.864ZM6.552 1.864L5.84489 2.57111L5.85017 2.57638L5.85553 2.58158L6.552 1.864ZM6.552 7.08L7.25911 7.78711L7.26423 7.78198L7.26928 7.77678L6.552 7.08ZM3.96 7.168C3.20173 7.168 2.58127 6.91106 2.04311 6.37289L0.628893 7.78711C1.5414 8.69961 2.67027 9.168 3.96 9.168V7.168ZM2.05328 6.38321C1.50155 5.81526 1.248 5.18763 1.248 4.456H-0.752C-0.752 5.7297 -0.280219 6.85141 0.618721 7.77678L2.05328 6.38321ZM1.248 4.456C1.248 3.69841 1.50401 3.0945 2.03248 2.58158L0.639525 1.14642C-0.282677 2.0415 -0.752 3.16559 -0.752 4.456H1.248ZM2.04311 2.57111C2.58127 2.03294 3.20173 1.776 3.96 1.776V-0.224001C2.67027 -0.224001 1.5414 0.24439 0.628893 1.15689L2.04311 2.57111ZM3.96 1.776C4.69068 1.776 5.30225 2.02847 5.84489 2.57111L7.25911 1.15689C6.35108 0.248866 5.23465 -0.224001 3.96 -0.224001V1.776ZM5.85553 2.58158C6.38399 3.0945 6.64 3.69841 6.64 4.456H8.64C8.64 3.16559 8.17068 2.0415 7.24848 1.14642L5.85553 2.58158ZM6.64 4.456C6.64 5.18763 6.38645 5.81526 5.83472 6.38321L7.26928 7.77678C8.16822 6.85141 8.64 5.7297 8.64 4.456H6.64ZM5.84489 6.37289C5.30225 6.91553 4.69068 7.168 3.96 7.168V9.168C5.23465 9.168 6.35108 8.69513 7.25911 7.78711L5.84489 6.37289Z" fill="#B4B9BF" mask="url(#path-1-inside-1_121_656)"/>
  </symbol>

  <symbol id="icon-benefits-1" viewBox="0 0 140 112" fill="none" xmlns="http://www.w3.org/2000/svg">
    <circle cx="69" cy="55" r="40" fill="#E2F7E8"/>
    <circle cx="20" cy="20" r="16" fill="#E2F7E8"/>
    <path d="M61.3516 37.4771L64.2016 49.3271L71.8516 47.5271L69.0016 35.6771L73.8016 34.4771L73.3516 32.8271C75.4516 32.3771 77.4016 32.2271 79.3516 32.2271C83.5516 32.2271 87.9016 33.1271 93.7516 35.0771L95.7016 35.6771L93.9016 28.3271C95.1016 27.8771 96.1516 26.9771 96.7516 25.7771C97.6516 24.2771 97.9516 22.6271 97.5016 20.9771C97.0516 19.3271 96.1516 17.9771 94.6516 17.0771C93.4516 16.3271 92.2516 16.0271 90.9016 16.1771L89.1016 8.82715L87.7516 10.3271C81.4516 16.7771 76.6516 19.9271 70.5016 21.5771L70.2016 19.9271L53.1016 23.9771L56.5516 38.6771L61.3516 37.4771ZM93.6016 19.0271C94.5016 19.6271 95.2516 20.5271 95.5516 21.5771C95.8516 22.6271 95.7016 23.8271 95.1016 24.7271C94.6516 25.3271 94.2016 25.7771 93.6016 26.2271L91.5016 18.4271C92.2516 18.4271 93.0016 18.5771 93.6016 19.0271ZM88.0516 13.1771L92.7016 32.3771C87.4516 30.7271 83.4016 29.9771 79.5016 29.9771C77.2516 29.9771 75.1516 30.1271 72.9016 30.7271L71.2516 23.6771C78.0016 21.7271 82.9516 18.1271 88.0516 13.1771ZM69.1516 45.8771L65.8516 46.6271L63.4516 36.8771L66.7516 36.1271L69.1516 45.8771ZM68.5516 22.4771L69.7516 27.5771L70.9516 32.6771L58.2016 35.6771L55.6516 25.3271L68.5516 22.4771Z" fill="#1FC34D"/>
    <path d="M101.29 7.17472L99.3711 6L95.0638 13.0364L96.9828 14.2112L101.29 7.17472Z" fill="#1FC34D"/>
    <path d="M100.9 21.1023L108.922 19.1768L108.397 16.9889L100.374 18.9144L100.9 21.1023Z" fill="#1FC34D"/>
    <path d="M98.7738 28.6072L105.809 32.917L106.984 30.9984L99.9492 26.6886L98.7738 28.6072Z" fill="#1FC34D"/>
    <path d="M108.45 26.2275V28.4775H116.25V68.5275H105.45V80.3775L92.25 68.5275H42.15V28.4775H50.25V26.2275H39.9V40.9275H21V84.8775H30.9V98.3775L45.9 84.8775H88.5V70.7775H91.35L107.7 85.4775V70.7775H118.5V26.2275H108.45ZM86.25 82.6275H45.15L33.15 93.4275V82.6275H23.25V43.0275H39.9V70.6275H86.25V82.6275Z" fill="#1FC34D"/>
  </symbol>

  <symbol id="icon-benefits-2" viewBox="0 0 140 112" fill="none" xmlns="http://www.w3.org/2000/svg">
    <circle cx="70" cy="55" r="40" fill="#E2F7E8"/>
    <circle cx="25" cy="95" r="16" fill="#E2F7E8"/>
    <path d="M86.9016 73.9504H84.6516V76.5004H76.4016V73.9504H74.1516V76.5004H65.7516V73.9504H63.6516V76.5004H55.2516V73.9504H53.0016V76.5004H47.6016V70.6504H50.1516V68.4004H47.6016V60.0004H50.1516V57.7504H47.6016V49.5004H50.1516V47.2504H47.6016V39.0004H50.1516V36.7504H47.6016V30.9004H45.3516V76.5004H43.1016V78.7504H45.3516V80.8504H47.6016V78.7504H93.5016V76.5004H86.9016V73.9504Z" fill="#1FC34D"/>
    <path d="M109.1 13H46.7C41.45 13 37.1 17.35 37.1 22.6V84.7H20V88C20 93.25 24.35 97.6 29.6 97.6C29.9 97.6 30.2 97.6 30.5 97.6H93.05H93.35C98.6 97.45 102.8 93.25 102.8 88V25.9H117.5V24.85C117.5 24.85 117.5 22.6 117.5 21.85C117.5 16.75 113.9 13 109.1 13ZM29.6 95.35C25.55 95.35 22.25 92.05 22.25 88V86.95H36.95V88C36.95 92.05 33.65 95.35 29.6 95.35ZM100.4 88C100.4 92.05 97.1 95.35 93.05 95.35H35.75C37.85 93.55 39.2 91 39.2 88V85.75V22.6C39.2 18.55 42.5 15.25 46.55 15.25C50.6 15.25 53.9 18.55 53.9 22.6C53.9 23.2 53.75 23.95 53.6 24.55L53.3 25.75L54.5 25.9H100.4V88ZM115.25 23.65H56.15C56.15 23.2 56.3 22.9 56.3 22.6C56.3 19.6 54.95 16.9 52.85 15.25H109.4C113 15.25 115.55 18.1 115.55 21.85C115.25 22.3 115.25 23.05 115.25 23.65Z" fill="#1FC34D"/>
    <path d="M57.6508 67.3492C59.6008 67.3492 61.2508 65.6992 61.2508 63.7492C61.2508 63.1492 61.1008 62.6992 60.9508 62.2492L68.3008 54.8992C68.7508 55.1992 69.3508 55.1992 69.8008 55.1992C71.3008 55.1992 72.6508 54.1492 73.1008 52.7992H79.4008C79.8508 54.1492 81.2008 55.1992 82.7008 55.1992C84.6508 55.1992 86.3008 53.5492 86.3008 51.5992C86.3008 50.9992 86.1508 50.5492 85.8508 49.9492L94.1008 41.6992V44.9992H96.3508V37.9492H89.3008V40.1992H92.6008L84.3508 48.4492C83.9008 48.1492 83.3008 47.9992 82.7008 47.9992C81.2008 47.9992 79.8508 49.0492 79.4008 50.5492H73.1008C72.6508 49.0492 71.3008 47.9992 69.8008 47.9992C67.8508 47.9992 66.2008 49.6492 66.2008 51.5992C66.2008 52.1992 66.3508 52.6492 66.6508 53.2492L59.3008 60.5992C58.8508 60.2992 58.2508 60.1492 57.6508 60.1492C55.7008 60.1492 54.0508 61.7992 54.0508 63.7492C54.0508 65.6992 55.7008 67.3492 57.6508 67.3492ZM82.8508 50.2492C83.1508 50.2492 83.6008 50.3992 83.7508 50.6992C84.0508 50.9992 84.2008 51.2992 84.2008 51.5992C84.2008 52.3492 83.6008 52.9492 82.8508 52.9492C82.1008 52.9492 81.5008 52.3492 81.5008 51.5992C81.5008 50.8492 82.1008 50.2492 82.8508 50.2492ZM69.8008 50.2492C70.5508 50.2492 71.1508 50.8492 71.1508 51.5992C71.1508 52.3492 70.5508 52.9492 69.8008 52.9492C69.5008 52.9492 69.2008 52.7992 68.9008 52.6492C68.6008 52.3492 68.4508 52.0492 68.4508 51.7492C68.4508 50.8492 69.0508 50.2492 69.8008 50.2492ZM57.6508 62.3992C58.4008 62.3992 59.0008 62.9992 59.0008 63.7492C59.0008 64.4992 58.4008 65.0992 57.6508 65.0992C56.9008 65.0992 56.3008 64.4992 56.3008 63.7492C56.3008 62.9992 56.9008 62.3992 57.6508 62.3992Z" fill="#1FC34D"/>
  </symbol>

  <symbol id="icon-benefits-3" viewBox="0 0 140 112" fill="none" xmlns="http://www.w3.org/2000/svg">
    <circle cx="68" cy="55" r="40" fill="#E2F7E8"/>
    <path d="M119.183 38.5148L109.634 33.5127L104.632 43.0622L106.602 44.1232L109.937 37.7569C117.97 57.3106 111.604 79.7443 94.021 92.0222C73.5578 106.422 45.2126 101.42 30.8126 81.1085C23.8399 71.1043 21.1115 58.978 23.2336 47.0032L21.2631 46.3969C18.9894 58.978 21.7178 71.8622 29.1452 82.3211C38.3915 95.3569 53.0947 102.481 68.101 102.481C77.4989 102.481 87.1999 99.6011 95.3852 93.8411C113.423 81.1085 120.244 57.9169 112.362 37.6053L117.97 40.6369L119.183 38.5148Z" fill="#1FC34D"/>
    <path d="M36.2695 32.7548L35.6632 30.6327L28.2358 32.7548C37.9368 15.02 58.0968 5.9253 77.9537 10.4727C87.9579 12.7464 97.0526 18.5064 103.419 26.54L105.238 25.1758C98.5684 16.6874 89.019 10.6242 78.4084 8.19899C57.6421 3.50004 36.5726 12.8979 26.4169 31.3906L24.4463 24.2664L22.3242 24.8727L25.3558 35.7864L36.2695 32.7548Z" fill="#1FC34D"/>
    <path d="M47.79 60.3419C44.4553 61.0998 41.8785 63.8282 41.1206 67.163L38.6953 80.0472H97.2048L94.7795 67.163C94.1732 63.8282 91.5964 61.0998 88.2616 60.3419L78.1058 57.9166L74.7711 51.5503C76.7416 49.5798 77.9543 46.6998 78.1058 43.2135C79.0153 42.4556 80.6827 40.4851 80.6827 38.363C80.6827 36.6956 79.7732 35.9377 79.0153 35.7861L79.3185 33.2093C79.47 30.0261 78.2574 28.2072 77.0448 27.4493C77.9543 25.9335 77.6511 24.8724 77.6511 24.7209L77.1964 23.2051L75.8321 24.1146C75.2258 24.5693 74.6195 24.8724 74.1648 24.8724C73.8616 24.8724 73.71 24.7209 73.71 24.7209C71.5879 23.6598 67.1922 23.3567 66.7374 23.3567C62.6448 23.3567 60.6743 25.4788 59.9164 26.9946C55.8237 27.7524 56.1269 32.2998 56.1269 34.2703C56.1269 34.5735 56.1269 34.8767 56.1269 35.1798C56.1269 35.483 56.1269 35.7861 56.1269 36.0893C55.369 36.3924 54.6111 37.1503 54.6111 38.6661C54.6111 40.7882 56.43 42.7588 57.1879 43.5167C57.3395 46.8514 58.5522 49.7314 60.5227 51.7019L57.1879 58.3714L47.79 60.3419ZM41.5753 77.9251L43.5458 67.7693C44.0006 65.1924 45.9711 63.2219 48.3964 62.6156L57.0364 60.6451L61.7353 77.9251H41.5753ZM65.8279 63.2219H69.4658L68.7079 64.5861H66.5858L65.8279 63.2219ZM65.8279 77.9251L66.889 66.8598H68.2532L69.3143 77.9251H65.8279ZM92.6574 67.6177L94.6279 77.7735H73.4069L78.1058 60.3419L87.8069 62.6156C90.3837 63.2219 92.2027 65.1924 92.6574 67.6177ZM59.31 42.9103V42.4556L58.8553 42.1524C58.249 41.6977 56.5816 40.0303 56.7332 38.6661C56.7332 38.5145 56.7332 38.363 56.7332 38.2114C57.1879 38.2114 57.6427 37.9082 57.9458 37.6051C58.249 37.3019 58.4006 36.8472 58.4006 36.3924C58.4006 35.9377 58.249 35.6346 58.249 35.1798C58.249 34.8767 58.249 34.5735 58.249 34.1188C58.0974 30.784 58.4006 29.1167 60.6743 29.1167H61.5837L61.7353 28.2072C61.7353 27.904 62.3416 25.4788 66.4343 25.4788C67.6469 25.4788 70.9816 25.9335 72.4974 26.5398C72.649 26.5398 73.2553 26.9946 74.4679 26.843L74.3164 26.9946L72.9521 28.5103L75.0743 28.8135C75.2258 28.8135 77.0448 29.2682 76.8932 32.9061L76.59 36.3924C76.59 36.8472 76.7416 37.1503 76.8932 37.4535C77.1964 37.7567 77.4995 37.9082 77.9543 37.9082H78.2574C78.2574 38.0598 78.2574 38.0598 78.2574 38.363C78.2574 39.5756 76.59 41.3945 76.1353 41.8493L75.6806 42.1524V42.6072C75.6806 48.064 72.1943 52.1567 67.4953 52.1567C62.9479 52.3082 59.4616 48.3672 59.31 42.9103ZM67.6469 54.5819C69.6174 54.5819 71.4364 53.9756 72.9521 53.0661L76.1353 59.1293L71.4364 76.5609L70.3753 65.9503L72.1943 62.6156C72.3458 62.3124 72.3458 61.8577 72.1943 61.5545C72.0427 61.2514 71.5879 60.9482 71.2848 60.9482H63.7058C63.2511 60.9482 62.9479 61.0998 62.7964 61.5545C62.6448 61.8577 62.6448 62.3124 62.7964 62.6156L64.6153 65.7988L63.5543 76.4093L59.0069 59.2809L62.19 53.0661C63.8574 53.9756 65.6764 54.5819 67.6469 54.5819Z" fill="#1FC34D"/>
    <circle cx="117" cy="20" r="16" fill="#E2F7E8"/>
  </symbol>

  <symbol id="icon-benefits-4" viewBox="0 0 140 112" fill="none" xmlns="http://www.w3.org/2000/svg">
    <circle cx="24" cy="95" r="16" fill="#E2F7E8"/>
    <circle cx="70" cy="55" r="40" fill="#E2F7E8"/>
    <path d="M91.4996 63.0996C87.2996 63.0996 83.8496 66.5496 83.8496 70.7496C83.8496 74.9496 87.2996 78.3996 91.4996 78.3996C95.6996 78.3996 99.1496 74.9496 99.1496 70.7496C99.2996 66.5496 95.8496 63.0996 91.4996 63.0996ZM91.4996 76.2996C88.4996 76.2996 85.9496 73.8996 85.9496 70.7496C85.9496 67.7496 88.3496 65.1996 91.4996 65.1996C94.4996 65.1996 97.0496 67.5996 97.0496 70.7496C97.0496 73.8996 94.6496 76.2996 91.4996 76.2996Z" fill="#1FC34D"/>
    <path d="M91.5 53.05C81.9 53.05 73.8 58.6 69.9 66.7L49.35 57.7C49.95 55.9 50.4 53.95 50.4 52C50.4 50.35 50.1 48.55 49.65 47.05L75.15 33.4C78.6 38.8 84.6 42.4 91.5 42.4C102.15 42.4 110.85 33.7 110.85 23.05C110.85 12.4 102.15 4 91.5 4C80.85 4 72.15 12.7 72.15 23.35C72.15 26.35 72.9 29.2 74.1 31.6L48.9 45.1C46.35 39.7 40.65 35.95 34.35 35.95C25.35 35.95 18 43.15 18 52.15C18 61.15 25.35 68.35 34.2 68.35C40.35 68.35 45.75 64.9 48.45 59.8L69 68.8C68.1 71.35 67.5 74.05 67.5 77.05C67.5 90.25 78.3 101.05 91.5 101.05C104.7 101.05 115.5 90.25 115.5 77.05C115.5 63.85 104.7 53.05 91.5 53.05ZM81.15 36.85V33.7C81.15 30.7 83.4 28.15 86.4 27.85L89.85 34.3H93.15L96.6 27.85C99.6 28.15 101.85 30.7 101.85 33.7V36.85C99 39.1 95.4 40.45 91.5 40.45C87.6 40.45 84 39.1 81.15 36.85ZM91.5 6.25C100.95 6.25 108.6 13.9 108.6 23.35C108.6 27.85 106.95 31.75 104.1 34.9V33.7C104.1 29.2 100.5 25.6 96 25.6H95.4L91.95 32.2H91.35L87.9 25.75H87C82.5 25.75 78.9 29.35 78.9 33.85V34.9C76.2 31.9 74.4 27.85 74.4 23.35C74.4 13.9 82.05 6.25 91.5 6.25ZM25.8 63.25V60.85C25.8 58.45 27.6 56.5 29.85 56.2L32.7 61.6H35.7L38.55 56.2C40.8 56.5 42.6 58.45 42.6 60.85V63.25C40.2 65.05 37.35 66.1 34.2 66.1C31.05 66.1 28.2 65.05 25.8 63.25ZM44.85 61.15V60.85C44.85 57.1 41.7 53.95 37.95 53.95H37.35L34.5 59.35H34.2L31.35 53.95H30.45C26.7 53.95 23.55 57.1 23.55 60.85V61.15C21.45 58.75 20.25 55.6 20.25 52.15C20.25 44.5 26.55 38.2 34.2 38.2C41.85 38.2 48.15 44.5 48.15 52.15C48.3 55.6 46.95 58.75 44.85 61.15ZM78.3 94.15V90.1C78.3 86.05 81.45 82.75 85.35 82.45L89.7 90.55H93.6L97.95 82.45C101.85 82.75 105 86.05 105 90.1V94.15C101.25 97 96.75 98.8 91.65 98.8C86.55 98.65 81.9 97 78.3 94.15ZM107.1 92.2V90.25C107.1 84.85 102.6 80.35 97.2 80.35H96.6L92.25 88.45H91.05L86.55 80.2H85.95C80.55 80.2 76.05 84.7 76.05 90.1V92.2C72.3 88.3 69.9 82.9 69.9 77.05C69.9 65.05 79.65 55.3 91.65 55.3C103.65 55.3 113.4 65.05 113.4 77.05C113.25 82.9 110.85 88.15 107.1 92.2Z" fill="#1FC34D"/>
    <path d="M34.2004 42.5498C31.2004 42.5498 28.6504 44.9498 28.6504 48.0998C28.6504 51.0998 31.0504 53.6498 34.2004 53.6498C37.3504 53.6498 39.7504 51.2498 39.7504 48.0998C39.7504 44.9498 37.2004 42.5498 34.2004 42.5498ZM34.2004 51.2498C32.4004 51.2498 30.9004 49.7498 30.9004 47.9498C30.9004 46.1498 32.4004 44.6498 34.2004 44.6498C36.0004 44.6498 37.5004 46.1498 37.5004 47.9498C37.5004 49.8998 36.0004 51.2498 34.2004 51.2498Z" fill="#1FC34D"/>
    <path d="M91.5008 24.6998C94.9508 24.6998 97.9508 21.8498 97.9508 18.2498C97.9508 14.7998 95.1008 11.7998 91.5008 11.7998C88.0508 11.7998 85.0508 14.6498 85.0508 18.2498C85.2008 21.8498 88.0508 24.6998 91.5008 24.6998ZM91.5008 14.1998C93.7508 14.1998 95.7008 15.9998 95.7008 18.3998C95.7008 20.6498 93.9008 22.5998 91.5008 22.5998C89.2508 22.5998 87.3008 20.7998 87.3008 18.3998C87.4508 15.9998 89.2508 14.1998 91.5008 14.1998Z" fill="#1FC34D"/>
  </symbol>

  <symbol id="icon-benefits-5" viewBox="0 0 140 112" fill="none" xmlns="http://www.w3.org/2000/svg">
    <circle cx="122" cy="24" r="16" fill="#E2F7E8"/>
    <circle cx="70" cy="55" r="40" fill="#E2F7E8"/>
    <path d="M108.05 76.4502C107.15 71.8002 103.7 68.2002 99.0504 67.0002L84.2004 63.5502L79.1004 53.9502C82.1004 51.1002 83.9004 46.9002 84.0504 41.9502C85.1004 40.9002 87.8004 38.2002 87.8004 35.2002C87.8004 32.3502 86.0004 31.9002 85.2504 31.9002L85.7004 27.7002C86.0004 22.6002 83.9004 20.5002 82.2504 19.6002C83.7504 17.3502 83.4504 15.8502 83.3004 15.5502L82.8504 14.0502L81.5004 14.9502C80.6004 15.7002 79.5504 16.0002 78.8004 16.0002C78.2004 16.0002 77.9004 15.8502 77.9004 15.8502C74.9004 14.3502 68.4504 14.0502 68.1504 13.9002C61.7004 13.9002 59.6004 17.5002 58.8504 19.1502C58.1004 19.3002 57.3504 19.4502 56.7504 19.9002C53.1504 16.3002 48.5004 14.0502 43.5504 13.4502L43.2504 15.7002C47.7504 16.3002 51.8004 18.2502 55.1004 21.4002C54.0504 22.9002 53.6004 25.0002 53.6004 26.8002C51.0504 23.3502 47.0004 20.9502 42.6504 20.3502L42.3504 22.6002C47.3004 23.2002 51.6504 26.5002 53.4504 31.1502C53.4504 31.3002 53.6004 31.4502 53.6004 31.6002C53.6004 31.7502 53.6004 32.0502 53.6004 32.2002C52.8504 32.3502 51.3504 32.9502 51.3504 35.5002C51.3504 37.6002 52.5504 39.5502 53.7504 40.9002C52.1004 46.0002 47.6004 49.7502 42.2004 50.5002L42.5004 52.7502C48.0504 52.0002 52.8504 48.5502 55.1004 43.4502C55.2504 45.7002 55.8504 47.8002 56.7504 49.6002C53.4504 53.8002 48.5004 56.6502 43.1004 57.4002L43.4004 59.6502C49.1004 58.9002 54.2004 56.0502 57.9504 51.7002C58.5504 52.6002 59.1504 53.3502 59.9004 54.1002L54.8004 64.0002L41.4504 67.1502C36.8004 68.2002 33.3504 71.9502 32.4504 76.6002L29.1504 94.3002H111.5L108.05 76.4502ZM57.5004 41.8002V41.3502L57.0504 40.9002C56.1504 40.1502 53.7504 37.6002 53.7504 35.6502C53.7504 34.6002 54.0504 34.6002 54.2004 34.6002C54.8004 34.6002 55.2504 34.3002 55.5504 34.0002C55.8504 33.5502 56.0004 33.1002 56.0004 32.5002C55.8504 31.9002 55.8504 31.3002 55.8504 30.7002C55.8504 30.2502 55.8504 29.8002 55.8504 29.2002C55.7004 25.1502 55.8504 21.7002 59.7504 21.4002H60.6504L60.8004 20.5002C60.8004 20.5002 61.5504 16.3002 68.0004 16.3002C69.6504 16.4502 74.6004 16.9002 76.8504 17.9502C77.0004 17.9502 77.7504 18.4002 78.8004 18.4002C79.2504 18.4002 79.8504 18.4002 80.4504 18.1002C80.1504 18.5502 79.8504 18.8502 79.5504 19.4502L78.2004 21.1002L80.3004 21.4002C80.4504 21.4002 83.6004 21.8502 83.4504 27.7002L83.0004 32.6502C83.0004 33.1002 83.1504 33.5502 83.4504 33.8502C83.7504 34.1502 84.2004 34.3002 84.6504 34.3002H84.9504C85.1004 34.3002 85.1004 34.3002 85.2504 34.3002C85.5504 34.3002 85.7004 34.9002 85.7004 35.3502C85.7004 37.4502 83.3004 39.8502 82.4004 40.6002L81.8004 40.9002V41.3502C81.8004 49.4502 76.7004 55.4502 69.6504 55.4502C62.7504 55.6002 57.5004 49.7502 57.5004 41.8002ZM32.0004 92.0502L34.8504 77.0502C35.6004 73.3002 38.4504 70.3002 42.2004 69.4002L55.1004 66.4002L62.0004 92.0502H32.0004ZM66.6504 92.0502L68.1504 75.4002H71.0004L72.5004 92.0502H66.6504ZM66.2004 70.1502H73.1004L71.4504 73.0002H67.8504L66.2004 70.1502ZM73.2504 74.3502L75.9504 69.5502C76.1004 69.2502 76.1004 68.8002 75.9504 68.3502C75.8004 68.0502 75.3504 67.7502 75.0504 67.7502H64.2504C63.8004 67.7502 63.5004 67.9002 63.3504 68.3502C63.2004 68.6502 63.2004 69.1002 63.3504 69.5502L66.0504 74.3502L64.4004 91.9002H64.2504L57.0504 65.0502L62.0004 55.4502C64.2504 56.9502 66.8004 57.7002 69.6504 57.7002C72.6504 57.7002 75.2004 56.8002 77.4504 55.3002L82.4004 64.6002L75.0504 91.9002H74.9004L73.2504 74.3502ZM84.3504 65.9502L98.6004 69.2502C102.35 70.1502 105.2 73.1502 105.95 76.9002L108.8 92.0502H77.3004L84.3504 65.9502Z" fill="#1FC34D"/>
    <path d="M41.5996 10H39.3496V25.15H41.5996V10Z" fill="#1FC34D"/>
    <path d="M41.5996 47.9502H39.3496V61.7502H41.5996V47.9502Z" fill="#1FC34D"/>
    <path d="M29.15 35.3496H14V37.5996H29.15V35.3496Z" fill="#1FC34D"/>
    <path d="M37.6992 15.7002L37.3992 13.4502C27.0492 14.8002 18.7992 23.0502 17.4492 33.4002L19.6992 33.7002C20.8992 24.4002 28.3992 16.9002 37.6992 15.7002Z" fill="#1FC34D"/>
    <path d="M37.6992 57.4C28.2492 56.2 20.8992 48.7 19.6992 39.25L17.4492 39.55C18.7992 50.05 27.0492 58.3 37.3992 59.65L37.6992 57.4Z" fill="#1FC34D"/>
    <path d="M24.3496 34.2996L26.5996 34.5996C27.4996 28.2996 32.4496 23.3496 38.7496 22.5996L38.4496 20.3496C31.0996 21.2496 25.2496 27.0996 24.3496 34.2996Z" fill="#1FC34D"/>
    <path d="M26.5996 38.3496L24.3496 38.6496C25.2496 45.9996 31.0996 51.6996 38.4496 52.7496L38.7496 50.4996C32.2996 49.5996 27.3496 44.6496 26.5996 38.3496Z" fill="#1FC34D"/>
    <path d="M46.9996 36.5496C46.9996 32.9496 44.1496 30.0996 40.5496 30.0996C36.9496 30.0996 34.0996 32.9496 34.0996 36.5496C34.0996 40.1496 36.9496 42.9996 40.5496 42.9996C43.9996 42.9996 46.9996 40.1496 46.9996 36.5496ZM40.5496 40.7496C38.2996 40.7496 36.3496 38.7996 36.3496 36.5496C36.3496 34.2996 38.2996 32.3496 40.5496 32.3496C42.7996 32.3496 44.7496 34.2996 44.7496 36.5496C44.7496 38.7996 42.7996 40.7496 40.5496 40.7496Z" fill="#1FC34D"/>
  </symbol>

  <symbol id="icon-targeting-1" viewBox="0 0 120 112" fill="none" xmlns="http://www.w3.org/2000/svg">
    <circle cx="50" cy="58" r="40" fill="#E2F7E8"/>
    <circle cx="99" cy="24" r="16" fill="#E2F7E8"/>
    <path d="M27.4507 36.0727C32.2507 36.0727 36.0007 32.1727 36.0007 27.5227C36.0007 22.7227 32.1007 18.9727 27.4507 18.9727C22.6507 18.9727 18.9007 22.8727 18.9007 27.5227C18.7507 32.1727 22.6507 36.0727 27.4507 36.0727ZM27.4507 21.2227C30.9007 21.2227 33.7507 24.0727 33.7507 27.5227C33.7507 30.9727 30.9007 33.8227 27.4507 33.8227C24.0007 33.8227 21.1507 30.9727 21.1507 27.5227C21.0007 24.0727 23.8507 21.2227 27.4507 21.2227Z" fill="#1FC34D"/>
    <path d="M97.65 22.5732L65.7 8.17321H65.55C65.4 8.17321 65.4 8.17321 65.25 8.17321C65.1 8.17321 65.1 8.17321 64.95 8.17321H64.8L41.1 18.6732C38.25 14.1732 33.15 11.1732 27.45 11.1732C23.55 11.1732 19.8 12.6732 17.1 14.9232L1.65 8.17321C1.35 7.87321 0.9 8.02321 0.6 8.17321C0.3 8.32321 0 8.77321 0 9.07321V81.2232C0 81.6732 0.3 82.1232 0.6 82.2732L32.55 96.6732C32.7 96.6732 32.85 96.8232 33 96.8232C33.15 96.8232 33.3 96.8232 33.45 96.6732L47.1 90.5232C49.35 98.3232 56.55 104.023 64.95 104.023C69.9 104.023 74.7 102.073 78.15 98.4732C80.4 96.2232 82.05 93.5232 82.8 90.5232L96.45 96.6732C96.6 96.6732 96.75 96.8232 96.9 96.8232C97.05 96.8232 97.35 96.8232 97.5 96.6732C97.8 96.5232 97.95 96.0732 97.95 95.7732V23.4732C98.4 23.1732 98.1 22.7232 97.65 22.5732ZM48.75 85.4232C48.75 83.7732 49.05 82.1232 49.5 80.6232H56.7C56.55 82.1232 56.4 83.7732 56.4 85.4232C56.4 87.0732 56.55 88.7232 56.7 90.2232H49.5C49.05 88.5732 48.75 87.0732 48.75 85.4232ZM65.25 68.9232C67.5 68.9232 70.05 72.5232 71.25 78.3732H59.4C59.7 76.5732 60.3 74.9232 60.9 73.4232C61.95 70.5732 63.6 68.9232 65.25 68.9232ZM58.65 72.5232C57.9 74.1732 57.3 76.2732 56.85 78.3732H50.25C52.2 74.3232 55.8 71.0232 60.15 69.6732C59.7 70.4232 59.25 71.4732 58.65 72.5232ZM58.65 85.4232C58.65 83.7732 58.8 82.1232 58.95 80.6232H71.55C71.7 82.1232 71.85 83.7732 71.85 85.4232C71.85 87.0732 71.7 88.7232 71.55 90.2232H58.95C58.65 88.7232 58.65 87.0732 58.65 85.4232ZM73.8 80.6232H81C81.45 82.1232 81.75 83.7732 81.75 85.4232C81.75 87.0732 81.45 88.7232 81 90.2232H73.8C73.95 88.7232 74.1 87.0732 74.1 85.4232C74.1 83.6232 73.95 82.1232 73.8 80.6232ZM73.35 78.3732C72.6 74.7732 71.55 71.7732 69.9 69.6732C74.25 71.0232 78 74.1732 79.95 78.3732H73.35ZM41.4 27.3732C41.4 35.9232 30.6 48.3732 27.45 51.8232C24.3 48.3732 13.5 35.7732 13.5 27.3732C13.5 19.7232 19.8 13.4232 27.45 13.4232C35.1 13.4232 41.4 19.7232 41.4 27.3732ZM41.85 27.3732H42.45H41.25H41.85ZM2.4 10.8732L15.3 16.7232C12.75 19.5732 11.25 23.3232 11.25 27.3732C11.25 38.1732 25.95 53.6232 26.55 54.2232L27.3 55.1232L28.05 54.2232C28.2 54.0732 29.85 52.4232 31.95 49.8732V93.9732L2.4 80.6232V10.8732ZM34.35 93.9732V47.0232C38.7 41.4732 43.65 33.5232 43.65 27.3732C43.65 24.9732 43.05 22.7232 42.15 20.7732L64.05 10.8732V55.7232V66.8232C54.3 67.4232 46.5 75.5232 46.5 85.4232C46.5 86.4732 46.65 87.3732 46.8 88.4232L34.35 93.9732ZM50.4 92.4732H57C57.75 96.0732 58.8 99.0732 60.45 101.173C55.95 99.6732 52.35 96.5232 50.4 92.4732ZM65.25 101.923C63 101.773 60.45 98.1732 59.25 92.4732H71.1C70.05 98.1732 67.5 101.773 65.25 101.923ZM76.8 96.9732C74.85 98.9232 72.6 100.273 70.05 101.023C71.55 98.9232 72.75 95.9232 73.35 92.3232H79.95C79.2 94.1232 78.15 95.6232 76.8 96.9732ZM96.15 93.9732L83.7 88.4232C83.85 87.3732 84 86.4732 84 85.4232C84 75.5232 76.2 67.4232 66.45 66.8232V55.7232V10.8732L96.15 24.2232V93.9732Z" fill="#1FC34D"/>
  </symbol>

  <symbol id="icon-targeting-2" viewBox="0 0 120 112" fill="none" xmlns="http://www.w3.org/2000/svg">
    <circle cx="52" cy="58" r="40" fill="#E2F7E8"/>
    <circle cx="102" cy="91" r="16" fill="#E2F7E8"/>
    <path d="M85.0484 29.2H85.3484C87.4484 29.2 89.2484 27.7 89.6984 25.75H97.3484V23.5H89.6984C89.0984 21.55 87.2984 20.05 85.1984 20.05H84.8984C82.7984 20.05 80.9984 21.55 80.5484 23.5H46.3484C43.6484 19 38.8484 16 33.2984 16C24.8984 16 18.1484 22.75 18.1484 31.15C18.1484 39.55 24.8984 46.3 33.2984 46.3C38.6984 46.3 43.3484 43.45 46.0484 39.25H59.3984C59.8484 41.2 61.6484 42.7 63.7484 42.7H64.0484C66.1484 42.7 67.9484 41.2 68.3984 39.25H97.1984V37H68.3984C67.9484 35.05 66.1484 33.55 64.0484 33.55H63.7484C61.6484 33.55 59.8484 35.05 59.3984 37H47.2484C47.9984 35.2 48.4484 33.25 48.4484 31.15C48.4484 29.2 48.1484 27.4 47.3984 25.75H80.5484C81.1484 27.7 82.7984 29.2 85.0484 29.2ZM82.7984 24.55C82.7984 23.35 83.8484 22.3 85.0484 22.3H85.3484C86.5484 22.3 87.5984 23.35 87.5984 24.55V24.85C87.5984 26.05 86.5484 27.1 85.3484 27.1H85.0484C83.8484 27.1 82.7984 26.05 82.7984 24.85V24.55ZM61.6484 38.05C61.6484 36.85 62.6984 35.8 63.8984 35.8H64.1984C65.3984 35.8 66.4484 36.85 66.4484 38.05V38.35C66.4484 39.55 65.3984 40.6 64.1984 40.6H63.8984C62.6984 40.6 61.6484 39.55 61.6484 38.35V38.05ZM33.2984 44.05C26.0984 44.05 20.3984 38.2 20.3984 31.15C20.3984 24.1 26.2484 18.25 33.2984 18.25C40.4984 18.25 46.1984 24.1 46.1984 31.15C46.1984 38.2 40.3484 44.05 33.2984 44.05Z" fill="#1FC34D"/>
    <path d="M80.55 47.0508H80.25C78.15 47.0508 76.35 48.5508 75.9 50.5008H54.3L45.15 47.2008L35.25 65.6508H31.2L21.3 47.2008L10.65 50.9508C7.65 52.0008 5.25 54.1008 3.75 56.6508C2.25 59.2008 1.5 61.7508 1.5 64.1508C1.5 64.3008 0.3 92.3508 0 102.251V103.451H66.45V102.251C66.15 94.9008 65.4 69.5508 65.1 66.1008H69.45C69.9 68.0508 71.7 69.5508 73.8 69.5508H74.1C76.2 69.5508 78 68.0508 78.45 66.1008H97.05V63.8508H78.45C78 62.0508 76.35 60.5508 74.1 60.5508H73.8C71.7 60.5508 69.9 62.0508 69.45 64.0008H64.8C64.8 61.6008 64.05 59.2008 62.55 56.6508C61.65 55.1508 60.45 53.6508 58.95 52.6008H75.75C76.2 54.5508 78 56.0508 80.1 56.0508H80.4C82.5 56.0508 84.3 54.5508 84.75 52.6008H97.05V50.3508H84.75C84.45 48.5508 82.65 47.0508 80.55 47.0508ZM71.7 65.0508C71.7 63.8508 72.75 62.8008 73.95 62.8008H74.25C75.45 62.8008 76.5 63.8508 76.5 65.0508V65.3508C76.5 66.5508 75.45 67.6008 74.25 67.6008H73.95C72.75 67.6008 71.7 66.5508 71.7 65.3508V65.0508ZM60.75 57.8508C62.1 60.1008 62.7 62.3508 62.7 64.4508C62.7 64.6008 63.75 91.9008 64.2 101.201H54.6L53.85 71.8008L51.6 71.9508L52.35 101.351H14.25L15 71.9508L12.75 71.8008L11.85 101.351H2.4C2.85 91.9008 3.9 64.6008 3.9 64.4508C3.9 61.9008 4.95 59.5008 5.85 57.8508C7.05 55.7508 9.15 54.1008 11.55 53.2008L20.4 50.0508L29.85 67.9008H36.6L46.2 50.0508L55.05 53.2008C57.45 54.1008 59.55 55.7508 60.75 57.8508ZM82.8 51.8508C82.8 53.0508 81.75 54.1008 80.55 54.1008H80.25C79.05 54.1008 78 53.0508 78 51.8508V51.5508C78 50.3508 79.05 49.3008 80.25 49.3008H80.55C81.75 49.3008 82.8 50.3508 82.8 51.5508V51.8508Z" fill="#1FC34D"/>
  </symbol>

  <symbol id="icon-targeting-3" viewBox="0 0 120 112" fill="none" xmlns="http://www.w3.org/2000/svg">
    <circle cx="50" cy="58" r="40" fill="#E2F7E8"/>
    <circle cx="100" cy="24" r="16" fill="#E2F7E8"/>
    <path d="M41.5493 57.1492C39.2993 52.4992 36.8993 45.5992 38.2493 39.2992C39.1493 34.6492 42.1493 30.8992 46.9493 27.8992L45.8993 25.9492C40.3493 29.2492 37.1993 33.5992 36.1493 38.8492C34.6493 45.7492 37.1993 53.2492 39.5993 58.1992L41.5493 57.1492Z" fill="#1FC34D"/>
    <path d="M80.4008 87.0008C82.2008 85.9508 83.4008 84.0008 83.4008 81.6008V80.8508C83.4008 77.4008 80.5508 74.5508 77.1008 74.5508H39.0008C35.5508 74.5508 32.7008 77.4008 32.7008 80.8508V81.6008C32.7008 83.8508 33.9008 85.8008 35.7008 86.8508C31.5008 90.6008 28.8008 95.7008 28.8008 100.201C28.8008 102.301 31.3508 104.101 33.3008 104.101H82.6508C84.7508 104.101 87.1508 102.451 87.1508 100.201C87.3008 96.0008 84.6008 90.7508 80.4008 87.0008ZM34.9508 80.8508C34.9508 78.6008 36.7508 76.8008 39.0008 76.8008H77.2508C79.5008 76.8008 81.3008 78.6008 81.3008 80.8508V81.6008C81.3008 83.8508 79.5008 85.6508 77.2508 85.6508H39.0008C36.7508 85.6508 34.9508 83.8508 34.9508 81.6008V80.8508ZM82.6508 102.001H33.3008C32.2508 102.001 31.0508 100.951 31.0508 100.351C30.9008 96.3008 33.7508 91.3508 37.9508 88.0508H78.1508C82.3508 91.3508 85.0508 96.3008 85.0508 100.351C84.9008 100.951 83.7008 102.001 82.6508 102.001Z" fill="#1FC34D"/>
    <path d="M32.55 60.6C34.95 66.3 37.65 70.2 37.95 70.5L38.25 70.95H78.75V69.75C78 57.15 69.6 49.2 67.05 47.1C65.25 45.6 64.2 43.95 63.75 42.75C69.75 46.05 73.95 46.8 76.35 46.8C78.75 46.8 79.95 46.05 79.95 46.05C82.35 44.85 85.05 40.65 85.05 36.9C85.05 34.35 83.7 32.25 81.15 31.35C75.3 28.95 68.25 17.7 68.1 17.55L67.95 17.25L67.65 17.1C65.1 15.9 61.8 15.75 60.15 15.75V6L58.95 6.15C48.45 6.9 43.8 16.65 42.9 18.75C39.45 20.85 36.75 23.4 34.5 26.1C32.85 25.05 31.05 24.3 29.25 23.85L28.35 18.9H20.4L19.5 23.85C17.7 24.3 15.9 25.05 14.25 25.95L10.05 22.8L4.35 28.35L7.2 32.55C6.15 34.2 5.55 35.85 4.95 37.65L0 38.55V46.5L4.95 47.4C5.4 49.2 6.15 51 7.05 52.65L4.2 56.7L9.75 62.4L13.95 59.55C15.6 60.45 17.25 61.2 19.05 61.8L19.95 66.75H27.9L28.8 61.8C30.15 61.65 31.35 61.2 32.55 60.6ZM44.4 20.4L44.7 20.25L44.85 19.8C44.85 19.65 48.75 9.75 57.9 8.4V18H59.1C59.1 18 59.25 18 59.55 18C60.6 18 63.9 18.15 66.45 19.05C67.65 21 74.25 30.9 80.25 33.45C81.9 34.2 82.65 35.25 82.65 37.05C82.65 40.05 80.4 43.5 78.75 44.25C78.75 44.25 74.1 46.65 62.4 39.75L60.9 38.7V40.65C60.9 40.8 60.9 45.15 65.55 48.9C67.8 50.85 75.3 57.75 76.35 68.7H39.3C37.5 65.85 28.5 51.3 31.35 37.5C32.85 30.45 37.2 24.75 44.4 20.4ZM29.1 49.5C27.6 50.55 25.95 51.15 24.15 51.15C21.9 51.15 19.8 50.25 18.3 48.6C16.8 46.95 15.9 44.85 15.9 42.6C15.9 40.35 16.8 38.25 18.45 36.75C20.1 35.25 22.05 34.35 24.3 34.35C26.25 34.35 28.05 35.1 29.55 36.3C29.55 36.6 29.4 36.9 29.4 37.2C28.35 41.25 28.5 45.45 29.1 49.5ZM27.75 59.85L27 60L26.1 64.5H21.9L21.15 60L20.4 59.85C18.3 59.4 16.35 58.5 14.55 57.45L13.95 57L10.05 59.55L7.05 56.55L9.9 52.8L9.45 52.2C8.25 50.4 7.5 48.45 7.05 46.35L6.9 45.6L2.4 44.7V40.5L6.9 39.75L7.05 39C7.5 36.9 8.25 34.95 9.45 33.15L9.9 32.55L7.35 28.8L10.35 25.8L14.1 28.5L14.7 28.05C16.5 26.85 18.45 26.1 20.55 25.65L21.3 25.5L22.2 21H26.4L27.15 25.5L27.9 25.65C29.7 26.1 31.5 26.7 33.15 27.75C31.8 29.7 30.75 31.8 30.15 33.9C28.5 32.7 26.4 32.1 24.3 32.1C21.45 32.1 18.75 33.15 16.8 35.1C14.85 37.05 13.65 39.75 13.65 42.6C13.65 45.45 14.7 48.15 16.65 50.1C18.6 52.05 21.3 53.25 24.15 53.25C26.1 53.25 27.9 52.8 29.55 51.75C30.15 54.15 30.75 56.4 31.65 58.35C30.45 59.1 29.1 59.55 27.75 59.85Z" fill="#1FC34D"/>
  </symbol>

  <symbol id="icon-targeting-4" viewBox="0 0 120 112" fill="none" xmlns="http://www.w3.org/2000/svg">
    <circle cx="50" cy="58" r="40" fill="#E2F7E8"/>
    <circle cx="101" cy="91" r="16" fill="#E2F7E8"/>
    <path d="M86.85 32.85C86.4 29.85 84 20.1 72.75 20.1C71.25 20.1 69.6 20.4 68.25 20.85C65.25 12 57 6 47.55 6C37.8 6 29.1 12.6 26.55 21.9C25.35 21.6 23.25 21.3 21.75 21.3C9.75 21.3 0 31.05 0 43.05C0 50.25 3.6 57 9.6 61.05C10.2 66.6 12.6 71.85 16.95 76.05C21.75 80.85 28.2 83.55 35.1 83.55C40.35 83.55 45.45 81.9 49.65 79.05L56.1 85.5L53.4 88.2L66.75 101.55C68.4 103.2 70.65 104.1 72.75 104.1C75 104.1 77.1 103.2 78.75 101.55C80.4 99.9 81.3 97.8 81.3 95.55C81.3 93.3 80.4 91.2 78.75 89.55L65.4 76.2L62.7 78.9L56.25 72.45C58.2 69.6 59.55 66.45 60.3 63.15C62.55 64.8 65.25 65.7 68.1 65.7C71.85 65.7 75.3 64.05 77.7 61.5C79.5 62.25 81.3 62.55 83.25 62.55C91.5 62.55 98.4 55.8 98.4 47.4C98.1 40.5 93.3 34.5 86.85 32.85ZM62.55 82.05L65.25 79.35L76.95 91.05C78.15 92.25 78.75 93.75 78.75 95.55C78.75 97.2 78.15 98.85 76.95 100.05C74.55 102.45 70.5 102.45 68.1 100.05L56.4 88.35L59.1 85.65L51.3 77.7C51.9 77.25 52.5 76.65 53.1 76.05C53.7 75.45 54.15 74.85 54.75 74.25L62.55 82.05ZM51.45 74.4C47.1 78.75 41.1 81.3 34.95 81.3C28.8 81.3 22.8 78.9 18.45 74.4C9.3 65.25 9.3 50.4 18.45 41.4C22.8 37.05 28.8 34.5 34.95 34.5C41.1 34.5 47.1 36.9 51.45 41.4C60.6 50.55 60.6 65.25 51.45 74.4ZM82.95 60.3C81.6 60.3 80.1 60 78.9 59.7C79.5 58.65 80.1 57.6 80.4 56.4L78.15 55.65C76.8 60.3 72.6 63.45 67.8 63.45C65.1 63.45 62.4 62.4 60.45 60.45C61.2 53.1 58.8 45.3 53.1 39.75C48.3 34.95 41.85 32.25 34.95 32.25C28.05 32.25 21.6 34.95 16.8 39.75C11.85 44.7 9.3 51.3 9.3 57.9C4.8 54.15 2.25 48.75 2.25 42.9C2.25 32.1 10.95 23.4 21.75 23.4C23.55 23.4 27 24.15 27.15 24.15L28.2 24.45L28.5 23.4C30.45 14.55 38.55 8.1 47.55 8.1C56.4 8.1 64.2 14.1 66.45 22.5C66.9 24.15 67.05 25.8 67.05 27.6H69.3C69.3 25.95 69.15 24.45 68.85 22.95C70.05 22.5 71.4 22.35 72.75 22.35C83.85 22.35 84.6 33.45 84.75 33.9V34.8L85.65 34.95C91.65 36.15 95.85 41.4 95.85 47.55C95.85 54.45 90 60.3 82.95 60.3Z" fill="#1FC34D"/>
    <path d="M74.1491 95.4391L72.5586 93.8477L70.9672 95.4382L72.5577 97.0296L74.1491 95.4391Z" fill="#1FC34D"/>
    <path d="M70.5461 91.7765L68.9551 90.1855L67.3641 91.7765L68.9551 93.3675L70.5461 91.7765Z" fill="#1FC34D"/>
    <path d="M66.7316 88.1154L65.1406 86.5244L63.5497 88.1154L65.1406 89.7064L66.7316 88.1154Z" fill="#1FC34D"/>
    <path d="M35.1 37.9502C34.95 37.9502 34.95 37.9502 35.1 37.9502C24 37.9502 15 46.9502 15 57.9002C15 63.3002 17.1 68.2502 20.85 72.0002C24.6 75.7502 29.7 77.8502 34.95 77.8502C45.9 77.8502 54.9 68.8502 54.9 57.9002C55.05 46.9502 46.05 37.9502 35.1 37.9502ZM51.15 50.4002H43.8C43.05 46.3502 41.7 43.0502 40.05 40.8002C45 42.3002 48.9 45.9002 51.15 50.4002ZM42.15 57.9002C42.15 59.7002 42 61.5002 41.85 63.1502H28.2C28.05 61.5002 27.9 59.7002 27.9 57.9002C27.9 56.1002 28.05 54.3002 28.2 52.6502H41.85C42 54.3002 42.15 56.1002 42.15 57.9002ZM17.25 57.9002C17.25 56.1002 17.55 54.3002 18 52.6502H25.8C25.65 54.3002 25.5 56.1002 25.5 57.9002C25.5 59.7002 25.65 61.5002 25.8 63.1502H18C17.55 61.5002 17.25 59.7002 17.25 57.9002ZM28.5 50.4002C29.7 44.1002 32.4 40.0502 34.95 40.0502C37.5 40.0502 40.2 44.1002 41.4 50.4002H28.5ZM30 40.9502C28.35 43.2002 27 46.5002 26.25 50.5502H18.9C21 45.9002 25.05 42.3002 30 40.9502ZM18.9 65.4002H26.25C26.7 67.8002 27.3 69.9002 28.05 71.7002C28.65 72.9002 29.25 74.1002 29.85 75.0002C27 74.1002 24.45 72.6002 22.35 70.5002C21 69.0002 19.8 67.2002 18.9 65.4002ZM30.15 70.8002C29.4 69.1502 28.95 67.3502 28.5 65.4002H41.4C40.2 71.7002 37.5 75.7502 34.95 75.7502C33.3 75.6002 31.5 73.9502 30.15 70.8002ZM39.9 75.0002C41.55 72.7502 42.9 69.4502 43.65 65.4002H51C48.9 70.0502 44.85 73.5002 39.9 75.0002ZM51.9 63.1502H44.1C44.25 61.5002 44.4 59.7002 44.4 57.9002C44.4 56.1002 44.25 54.3002 44.1 52.6502H51.9C52.35 54.3002 52.65 56.1002 52.65 57.9002C52.8 59.7002 52.5 61.5002 51.9 63.1502Z" fill="#1FC34D"/>
  </symbol>

  <symbol id="icon-trustpilot-logo" viewBox="0 0 97 24" fill="none" xmlns="http://www.w3.org/2000/svg">
    <path d="M25.4947 8.43848H35.3078V10.2653H31.444V20.5635H29.3262V10.2653H25.4785L25.4947 8.43848ZM34.8875 11.785H36.6982V13.4825H36.7305C36.7952 13.24 36.9083 13.0136 37.07 12.7873C37.2317 12.561 37.4257 12.3508 37.6682 12.173C37.8945 11.979 38.1532 11.8335 38.4442 11.7203C38.719 11.6071 39.01 11.5425 39.301 11.5425C39.5273 11.5425 39.689 11.5586 39.7698 11.5586C39.8507 11.5748 39.9477 11.591 40.0285 11.591V13.4501C39.8992 13.4178 39.7537 13.4016 39.6082 13.3855C39.4627 13.3693 39.3333 13.3531 39.1878 13.3531C38.8645 13.3531 38.5573 13.4178 38.2663 13.5471C37.9753 13.6765 37.7328 13.8705 37.5065 14.113C37.2963 14.3716 37.1185 14.6788 36.9892 15.0506C36.8598 15.4225 36.7952 15.859 36.7952 16.344V20.515H34.8552L34.8875 11.785ZM48.9202 20.5635H47.0125V19.3348H46.9802C46.7377 19.7875 46.382 20.127 45.9132 20.4018C45.4443 20.6766 44.9593 20.806 44.4743 20.806C43.3265 20.806 42.4858 20.5311 41.9685 19.9491C41.4512 19.3833 41.1925 18.5103 41.1925 17.3625V11.785H43.1325V17.1685C43.1325 17.9445 43.278 18.4941 43.5852 18.8013C43.8762 19.1246 44.2965 19.2863 44.83 19.2863C45.2342 19.2863 45.5737 19.2216 45.8485 19.0923C46.1233 18.963 46.3497 18.8013 46.5113 18.5911C46.6892 18.381 46.8023 18.1223 46.8832 17.8313C46.964 17.5403 46.9963 17.217 46.9963 16.8775V11.785H48.9363V20.5635H48.9202ZM52.2182 17.7505C52.2828 18.3163 52.493 18.7043 52.8648 18.9468C53.2367 19.1731 53.6893 19.2863 54.2067 19.2863C54.3845 19.2863 54.5947 19.2701 54.821 19.2378C55.0473 19.2055 55.2737 19.157 55.4677 19.0761C55.6778 18.9953 55.8395 18.8821 55.9688 18.7205C56.0982 18.5588 56.1628 18.3648 56.1467 18.1223C56.1305 17.8798 56.0497 17.6696 55.8718 17.508C55.694 17.3463 55.4838 17.2331 55.2252 17.12C54.9665 17.023 54.6593 16.9421 54.3198 16.8775C53.9803 16.8128 53.6408 16.732 53.2852 16.6511C52.9295 16.5703 52.5738 16.4733 52.2343 16.3601C51.8948 16.247 51.6038 16.1015 51.329 15.8913C51.0703 15.6973 50.844 15.4548 50.6985 15.1476C50.5368 14.8405 50.456 14.4848 50.456 14.0321C50.456 13.5471 50.5692 13.1591 50.8117 12.8358C51.038 12.5125 51.3452 12.2538 51.7008 12.0598C52.0565 11.8658 52.4607 11.7203 52.8972 11.6395C53.3337 11.5586 53.754 11.5263 54.142 11.5263C54.5947 11.5263 55.0312 11.5748 55.4353 11.6718C55.8395 11.7688 56.2275 11.9143 56.5508 12.1406C56.8903 12.3508 57.1652 12.6418 57.3753 12.9813C57.6017 13.3208 57.731 13.7411 57.7957 14.2261H55.7748C55.6778 13.7573 55.4677 13.4501 55.1443 13.2885C54.8048 13.1268 54.433 13.046 53.9965 13.046C53.8672 13.046 53.6893 13.0621 53.5115 13.0783C53.3175 13.1106 53.1558 13.143 52.978 13.2076C52.8163 13.2723 52.6708 13.3693 52.5577 13.4825C52.4445 13.5956 52.3798 13.7573 52.3798 13.9513C52.3798 14.1938 52.4607 14.3716 52.6223 14.5171C52.784 14.6626 52.9942 14.7758 53.269 14.889C53.5277 14.986 53.8348 15.0668 54.1743 15.1315C54.5138 15.1961 54.8695 15.277 55.2252 15.3578C55.5808 15.4386 55.9203 15.5356 56.2598 15.6488C56.5993 15.762 56.9065 15.9075 57.1652 16.1176C57.4238 16.3116 57.6502 16.5541 57.8118 16.8451C57.9735 17.1361 58.0543 17.508 58.0543 17.9283C58.0543 18.4456 57.9412 18.8821 57.6987 19.254C57.4562 19.6096 57.149 19.9168 56.7772 20.1431C56.4053 20.3695 55.9688 20.5311 55.5162 20.6443C55.0473 20.7413 54.5947 20.806 54.142 20.806C53.5923 20.806 53.075 20.7413 52.6062 20.612C52.1373 20.4826 51.717 20.2886 51.3775 20.0461C51.038 19.7875 50.7632 19.4803 50.5692 19.0923C50.3752 18.7205 50.262 18.2678 50.2458 17.7343H52.202V17.7505H52.2182ZM58.604 11.785H60.0752V9.13364H62.0152V11.7688H63.7612V13.2076H62.0152V17.896C62.0152 18.1061 62.0313 18.2678 62.0475 18.4295C62.0637 18.575 62.1122 18.7043 62.1607 18.8013C62.2253 18.8983 62.3223 18.9791 62.4355 19.0276C62.5648 19.0761 62.7265 19.1085 62.9528 19.1085C63.0822 19.1085 63.2277 19.1085 63.357 19.0923C63.4863 19.0761 63.6318 19.06 63.7612 19.0276V20.5311C63.551 20.5635 63.3408 20.5796 63.1307 20.5958C62.9205 20.6281 62.7265 20.6281 62.5002 20.6281C61.9828 20.6281 61.5787 20.5796 61.2715 20.4826C60.9643 20.3856 60.7218 20.2401 60.544 20.0623C60.3662 19.8683 60.253 19.642 60.1883 19.3671C60.1237 19.0923 60.0913 18.7528 60.0752 18.3971V13.2238H58.604V11.7526V11.785ZM65.1191 11.785H66.946V12.9813H66.9783C67.2531 12.464 67.625 12.1083 68.11 11.882C68.595 11.6556 69.1123 11.5425 69.6943 11.5425C70.3895 11.5425 70.9876 11.6556 71.505 11.9143C72.0223 12.1568 72.4426 12.4801 72.7821 12.9166C73.1216 13.337 73.3803 13.8381 73.542 14.404C73.7036 14.9698 73.8006 15.5841 73.8006 16.2146C73.8006 16.8128 73.7198 17.3786 73.5743 17.9283C73.4126 18.478 73.1863 18.9791 72.8791 19.3995C72.572 19.8198 72.184 20.1593 71.699 20.418C71.214 20.6766 70.6643 20.806 70.0176 20.806C69.7428 20.806 69.4518 20.7736 69.177 20.7251C68.9021 20.6766 68.6273 20.5958 68.3686 20.4826C68.11 20.3695 67.8675 20.224 67.6573 20.0461C67.431 19.8683 67.2532 19.6581 67.1077 19.4318H67.0753V23.813H65.1353V11.785H65.1191ZM71.893 16.1823C71.893 15.7943 71.8445 15.4063 71.7313 15.0345C71.6343 14.6626 71.4726 14.3393 71.2625 14.0483C71.0523 13.7573 70.7936 13.531 70.5026 13.3531C70.1955 13.1753 69.8398 13.0945 69.4518 13.0945C68.6435 13.0945 68.0292 13.3693 67.6088 13.9351C67.2047 14.501 66.9945 15.2608 66.9945 16.1985C66.9945 16.6511 67.043 17.0553 67.1561 17.4271C67.2693 17.799 67.4148 18.1223 67.6411 18.3971C67.8513 18.672 68.11 18.8821 68.4172 19.0438C68.7243 19.2055 69.0638 19.2863 69.468 19.2863C69.9206 19.2863 70.2763 19.1893 70.5835 19.0115C70.8906 18.8336 71.1331 18.5911 71.3433 18.3163C71.5373 18.0253 71.6828 17.702 71.7636 17.3301C71.8445 16.9421 71.893 16.5703 71.893 16.1823ZM75.3041 8.43848H77.2441V10.2653H75.3041V8.43848ZM75.3041 11.785H77.2441V20.5635H75.3041V11.785ZM78.974 8.43848H80.914V20.5635H78.974V8.43848ZM86.831 20.806C86.1358 20.806 85.5053 20.6928 84.9556 20.4503C84.406 20.2078 83.9533 19.9006 83.5653 19.4965C83.1935 19.0923 82.9025 18.5911 82.7085 18.0253C82.5145 17.4595 82.4013 16.829 82.4013 16.1661C82.4013 15.5033 82.4983 14.889 82.7085 14.3231C82.9025 13.7573 83.1935 13.2723 83.5653 12.852C83.9371 12.4478 84.406 12.1245 84.9556 11.8981C85.5053 11.6718 86.1358 11.5425 86.831 11.5425C87.5261 11.5425 88.1566 11.6556 88.7063 11.8981C89.256 12.1245 89.7086 12.4478 90.0966 12.852C90.4685 13.2561 90.7595 13.7573 90.9535 14.3231C91.1475 14.889 91.2606 15.5033 91.2606 16.1661C91.2606 16.8451 91.1636 17.4595 90.9535 18.0253C90.7433 18.5911 90.4685 19.0761 90.0966 19.4965C89.7248 19.9006 89.256 20.224 88.7063 20.4503C88.1566 20.6766 87.5423 20.806 86.831 20.806ZM86.831 19.2701C87.2513 19.2701 87.6393 19.1731 87.9465 18.9953C88.2698 18.8175 88.5123 18.575 88.7225 18.284C88.9326 17.993 89.0781 17.6535 89.1751 17.2978C89.2721 16.926 89.3206 16.5541 89.3206 16.1661C89.3206 15.7943 89.2721 15.4225 89.1751 15.0506C89.0781 14.6788 88.9326 14.3555 88.7225 14.0645C88.5123 13.7735 88.2536 13.5471 87.9465 13.3693C87.6231 13.1915 87.2513 13.0945 86.831 13.0945C86.4106 13.0945 86.0226 13.1915 85.7155 13.3693C85.3921 13.5471 85.1496 13.7896 84.9395 14.0645C84.7293 14.3555 84.5838 14.6788 84.4868 15.0506C84.3898 15.4225 84.3413 15.7943 84.3413 16.1661C84.3413 16.5541 84.3898 16.926 84.4868 17.2978C84.5838 17.6696 84.7293 17.993 84.9395 18.284C85.1496 18.575 85.4083 18.8175 85.7155 18.9953C86.0388 19.1893 86.4106 19.2701 86.831 19.2701ZM91.8426 11.785H93.3138V9.13364H95.2538V11.7688H96.9998V13.2076H95.2538V17.896C95.2538 18.1061 95.27 18.2678 95.2861 18.4295C95.3023 18.575 95.3508 18.7043 95.3993 18.8013C95.464 18.8983 95.561 18.9791 95.6741 19.0276C95.8035 19.0761 95.9651 19.1085 96.1915 19.1085C96.3208 19.1085 96.4663 19.1085 96.5956 19.0923C96.725 19.0761 96.8705 19.06 96.9998 19.0276V20.5311C96.7896 20.5635 96.5795 20.5796 96.3693 20.5958C96.1591 20.6281 95.9651 20.6281 95.7388 20.6281C95.2215 20.6281 94.8173 20.5796 94.5101 20.4826C94.203 20.3856 93.9605 20.2401 93.7826 20.0623C93.6048 19.8683 93.4916 19.642 93.427 19.3671C93.3623 19.0923 93.33 18.7528 93.3138 18.3971V13.2238H91.8426V11.7526V11.785Z" fill="#242527"/>
    <path d="M23.2315 8.439H14.356L11.6238 0L8.87549 8.439L0 8.42283L7.178 13.6447L4.42966 22.0837L11.6077 16.8618L18.7857 22.0837L16.0535 13.6447L23.2315 8.439Z" fill="#00B67A"/>
    <path d="M16.667 15.5522L16.0527 13.6445L11.623 16.8617L16.667 15.5522Z" fill="#242527"/>
  </symbol>

  <symbol id="icon-trustpilot-raiting" viewBox="0 0 128 24" fill="none" xmlns="http://www.w3.org/2000/svg">
    <path d="M0 0H23.9872V23.9872H0V0ZM25.9861 0H49.9734V23.9872H25.9861V0ZM51.9723 0H75.9595V23.9872H51.9723V0ZM77.9584 0H101.946V23.9872H77.9584V0ZM103.945 0H127.932V23.9872H103.945V0Z" fill="#00B67A"/>
    <rect width="21.5949" height="24" transform="matrix(-1 0 0 1 127.932 0)" fill="#E6E6E6"/>
    <path d="M11.9932 16.1664L15.6412 15.2419L17.1654 19.9394L11.9932 16.1664ZM20.3887 10.0946H13.9671L11.9932 4.04785L10.0192 10.0946H3.59766L8.79489 13.8426L6.82094 19.8894L12.0182 16.1414L15.2165 13.8426L20.3887 10.0946ZM37.9793 16.1664L41.6274 15.2419L43.1516 19.9394L37.9793 16.1664ZM46.3748 10.0946H39.9533L37.9793 4.04785L36.0054 10.0946H29.5838L34.781 13.8426L32.8071 19.8894L38.0043 16.1414L41.2026 13.8426L46.3748 10.0946ZM63.9655 16.1664L67.6135 15.2419L69.1377 19.9394L63.9655 16.1664ZM72.361 10.0946H65.9394L63.9655 4.04785L61.9915 10.0946H55.5699L60.7672 13.8426L58.7932 19.8894L63.9905 16.1414L67.1887 13.8426L72.361 10.0946ZM89.9516 16.1664L93.5997 15.2419L95.1239 19.9394L89.9516 16.1664ZM98.3471 10.0946H91.9256L89.9516 4.04785L87.9777 10.0946H81.5561L86.7533 13.8426L84.7794 19.8894L89.9766 16.1414L93.1749 13.8426L98.3471 10.0946ZM115.938 16.1664L119.586 15.2419L121.11 19.9394L115.938 16.1664ZM124.333 10.0946H117.912L115.938 4.04785L113.964 10.0946H107.542L112.739 13.8426L110.766 19.8894L115.963 16.1414L119.161 13.8426L124.333 10.0946Z" fill="white"/>
  </symbol>

  <symbol id="icon-crm" viewBox="0 0 160 155" fill="none" xmlns="http://www.w3.org/2000/svg">
    <path fill-rule="evenodd" clip-rule="evenodd" d="M71.7435 1.31953C60.7703 -2.27425 48.7357 1.64179 41.9675 11.0085C38.6587 15.5877 33.9794 18.9924 28.6082 20.7289C17.6215 24.2808 10.1836 34.5331 10.2056 46.095C10.2164 51.7474 8.42904 57.2563 5.10283 61.8228C-1.70095 71.1637 -1.70094 83.8363 5.10284 93.1772C8.42904 97.7437 10.2164 103.253 10.2056 108.905C10.1836 120.467 17.6215 130.719 28.6082 134.271C33.9794 136.008 38.6587 139.412 41.9675 143.991C48.7357 153.358 60.7703 157.274 71.7435 153.68C77.108 151.924 82.8919 151.924 88.2565 153.68C99.2297 157.274 111.264 153.358 118.033 143.991C121.341 139.412 126.021 136.008 131.392 134.271C142.379 130.719 149.816 120.467 149.794 108.905C149.784 103.253 151.571 97.7437 154.897 93.1772C161.701 83.8363 161.701 71.1637 154.897 61.8228C151.571 57.2563 149.784 51.7474 149.794 46.095C149.816 34.5331 142.379 24.2808 131.392 20.7289C126.021 18.9924 121.341 15.5877 118.033 11.0085C111.264 1.64179 99.2297 -2.27425 88.2565 1.31953C82.892 3.07644 77.1081 3.07644 71.7435 1.31953Z" fill="#E2F7E8"/>
    <path d="M123.85 100.748V43.0635H36.25V100.748H31V105.255L35.2 111.113H125.2L129.4 105.255V100.748H123.85ZM121.6 45.3168V51.7762H38.5V45.3168H121.6ZM38.5 54.1798H121.6V100.748H38.5V54.1798ZM127 104.503L124 108.71H36.25L33.25 104.503V103.001H127V104.503Z" fill="#1FC34D"/>
    <path d="M53.9492 47.4199H51.6992V49.6732H53.9492V47.4199Z" fill="#1FC34D"/>
    <path d="M44.0508 47.4199H41.8008V49.6732H44.0508V47.4199Z" fill="#1FC34D"/>
    <path d="M49 47.4199H46.75V49.6732H49V47.4199Z" fill="#1FC34D"/>
    <path d="M73.4516 58.3857H42.8516V79.4166H73.4516V58.3857ZM56.0516 68.9011L45.1016 76.2619V61.6906L56.0516 68.9011ZM47.6516 60.639H68.5016L58.1516 67.5492L47.6516 60.639ZM58.1516 70.2531L68.5016 77.1632H47.6516L58.1516 70.2531ZM60.1016 68.9011L71.0516 61.5404V76.1117L60.1016 68.9011Z" fill="#1FC34D"/>
    <path d="M76.75 79.4166H117.25V58.3857H76.75V79.4166ZM79 60.639H115V77.1632H79V60.639Z" fill="#1FC34D"/>
    <path d="M42.8516 95.1899H117.252V82.7217H42.8516V95.1899ZM45.1016 84.975H115.002V92.9366H45.1016V84.975Z" fill="#1FC34D"/>
  </symbol>

  <symbol id="icon-deatiled-statistics" viewBox="0 0 160 155" fill="none" xmlns="http://www.w3.org/2000/svg">
    <path fill-rule="evenodd" clip-rule="evenodd" d="M71.7435 1.31953C60.7703 -2.27425 48.7357 1.64179 41.9675 11.0085C38.6587 15.5877 33.9794 18.9924 28.6082 20.7289C17.6215 24.2808 10.1836 34.5331 10.2056 46.095C10.2164 51.7474 8.42904 57.2563 5.10283 61.8228C-1.70095 71.1637 -1.70094 83.8363 5.10284 93.1772C8.42904 97.7437 10.2164 103.253 10.2056 108.905C10.1836 120.467 17.6215 130.719 28.6082 134.271C33.9794 136.008 38.6587 139.412 41.9675 143.991C48.7357 153.358 60.7703 157.274 71.7435 153.68C77.108 151.924 82.8919 151.924 88.2565 153.68C99.2297 157.274 111.264 153.358 118.033 143.991C121.341 139.412 126.021 136.008 131.392 134.271C142.379 130.719 149.816 120.467 149.794 108.905C149.784 103.253 151.571 97.7437 154.897 93.1772C161.701 83.8363 161.701 71.1637 154.897 61.8228C151.571 57.2563 149.784 51.7474 149.794 46.095C149.816 34.5331 142.379 24.2808 131.392 20.7289C126.021 18.9924 121.341 15.5877 118.033 11.0085C111.264 1.64179 99.2297 -2.27425 88.2565 1.31953C82.892 3.07644 77.1081 3.07644 71.7435 1.31953Z" fill="#E2F7E8"/>
    <path d="M125.898 91.484C125.748 91.1836 125.448 91.1836 125.148 91.1836H102.348C101.748 91.1836 101.148 91.6343 101.148 92.3854V115.97C101.148 116.27 101.298 116.571 101.598 116.871C101.748 117.021 102.048 117.172 102.348 117.172H102.498C115.248 115.82 125.148 105.455 126.198 92.5356C126.198 91.9347 126.048 91.6343 125.898 91.484ZM103.548 114.468V93.2867H123.798C122.448 104.103 114.198 112.665 103.548 114.468Z" fill="#1FC34D"/>
    <path d="M95.4508 91.9355C95.0008 91.7853 94.5508 91.7853 94.2508 92.236L79.7008 106.657C79.2508 107.108 79.2508 107.709 79.7008 108.159C83.6008 112.666 89.0008 115.67 94.8508 116.722H95.0008C95.3008 116.722 95.4508 116.572 95.7508 116.421C96.0508 116.271 96.2008 115.821 96.2008 115.52V92.9871C96.2008 92.5364 95.9008 92.0858 95.4508 91.9355ZM93.9508 114.018C89.4508 112.966 85.4008 110.563 82.1008 107.258L93.9508 95.5408V114.018Z" fill="#1FC34D"/>
    <path d="M95.9 66.2475C108.8 64.2946 120.95 72.8571 123.5 85.6258C123.65 86.2267 124.1 86.5272 124.55 86.5272H124.7C125.3 86.3769 125.75 85.7761 125.6 85.1752C122.9 71.2047 109.7 61.8911 95.6 63.9942C95 64.1444 94.25 64.1444 93.65 64.2946V39.0576H83.75V79.7673H80.75V43.8647H70.85V79.7673H67.85V52.7276H57.95V79.7673H54.95V48.8219H45.05V79.7673H42.05V62.3417H32V79.7673H29V82.0206H74.3C73.85 83.3725 73.55 84.8747 73.25 86.3769C72.35 91.9351 73.25 97.343 75.8 102.3C75.95 102.751 76.4 102.901 76.85 102.901C77 102.901 77.15 102.901 77.3 102.751C77.9 102.451 78.05 101.85 77.75 101.249C75.5 96.7421 74.75 91.6346 75.5 86.6774C75.8 85.1752 76.1 83.5228 76.7 82.0206H96.5V79.7673H93.5V66.6981C94.4 66.5479 95.15 66.3977 95.9 66.2475ZM34.25 79.7673V64.595H39.65V79.7673H34.25ZM47.15 79.7673V51.0752H52.55V79.7673H47.15ZM60.05 79.7673V54.9809H65.45V79.7673H60.05ZM75.95 79.7673H73.1V46.118H78.5V79.7673H75.95ZM86 79.7673V41.3109H91.4V79.7673H86Z" fill="#1FC34D"/>
  </symbol>

  <symbol id="icon-parsing" viewBox="0 0 160 155" fill="none" xmlns="http://www.w3.org/2000/svg">
    <path fill-rule="evenodd" clip-rule="evenodd" d="M71.7435 1.31953C60.7703 -2.27425 48.7357 1.64179 41.9675 11.0085C38.6587 15.5877 33.9794 18.9924 28.6082 20.7289C17.6215 24.2808 10.1836 34.5331 10.2056 46.095C10.2164 51.7474 8.42904 57.2563 5.10283 61.8228C-1.70095 71.1637 -1.70094 83.8363 5.10284 93.1772C8.42904 97.7437 10.2164 103.253 10.2056 108.905C10.1836 120.467 17.6215 130.719 28.6082 134.271C33.9794 136.008 38.6587 139.412 41.9675 143.991C48.7357 153.358 60.7703 157.274 71.7435 153.68C77.108 151.924 82.8919 151.924 88.2565 153.68C99.2297 157.274 111.264 153.358 118.033 143.991C121.341 139.412 126.021 136.008 131.392 134.271C142.379 130.719 149.816 120.467 149.794 108.905C149.784 103.253 151.571 97.7437 154.897 93.1772C161.701 83.8363 161.701 71.1637 154.897 61.8228C151.571 57.2563 149.784 51.7474 149.794 46.095C149.816 34.5331 142.379 24.2808 131.392 20.7289C126.021 18.9924 121.341 15.5877 118.033 11.0085C111.264 1.64179 99.2297 -2.27425 88.2565 1.31953C82.892 3.07644 77.1081 3.07644 71.7435 1.31953Z" fill="#E2F7E8"/>
    <path d="M109.17 97.9617L111.129 99.0703L112.236 97.1086L110.277 96L109.17 97.9617Z" fill="#1FC34D"/>
    <path d="M101.279 93.5906L103.238 94.6992L104.345 92.7375L102.386 91.6289L101.279 93.5906Z" fill="#1FC34D"/>
    <path d="M105.223 95.7761L107.182 96.8848L108.289 94.923L106.33 93.8144L105.223 95.7761Z" fill="#1FC34D"/>
    <path d="M120.7 97.1427C119.95 96.692 119.05 96.3916 118.15 96.3916C116.2 96.3916 114.4 97.4431 113.5 99.0956C112.75 100.297 112.6 101.8 113.05 103.152C113.5 104.503 114.4 105.705 115.6 106.306C116.35 106.757 117.25 107.057 118.15 107.057C120.1 107.057 121.9 106.006 122.8 104.353C124.3 101.8 123.25 98.4947 120.7 97.1427ZM120.85 103.302C120.1 104.804 118.15 105.255 116.65 104.503C115.9 104.053 115.45 103.452 115.15 102.701C115 101.95 115 101.048 115.45 100.297C116.05 99.396 117.1 98.7951 118.15 98.7951C118.75 98.7951 119.2 98.9453 119.65 99.2458C120.4 99.6964 120.85 100.297 121.15 101.048C121.3 101.649 121.3 102.551 120.85 103.302Z" fill="#1FC34D"/>
    <path d="M114.014 80.9431L116.264 80.9219L116.243 78.6686L113.993 78.6898L114.014 80.9431Z" fill="#1FC34D"/>
    <path d="M109.523 81.029L111.773 81.0078L111.752 78.7545L109.502 78.7757L109.523 81.029Z" fill="#1FC34D"/>
    <path d="M107.344 78.8068L105.094 78.8281L105.115 81.0814L107.365 81.0601L107.344 78.8068Z" fill="#1FC34D"/>
    <path d="M123.699 74.459C120.699 74.459 118.449 76.8625 118.449 79.8669C118.449 82.7211 120.849 85.1246 123.849 85.1246C126.849 85.1246 129.099 82.7211 129.099 79.7167C129.099 76.8625 126.699 74.459 123.699 74.459ZM125.949 81.97C125.349 82.5709 124.599 82.8713 123.699 82.8713C122.049 82.8713 120.699 81.5193 120.549 79.8669C120.549 78.2145 121.899 76.7123 123.699 76.7123C125.349 76.7123 126.699 78.0643 126.849 79.7167C126.849 80.618 126.549 81.3691 125.949 81.97Z" fill="#1FC34D"/>
    <path d="M111.803 62.7193L110.66 60.7783L108.722 61.9228L109.865 63.8638L111.803 62.7193Z" fill="#1FC34D"/>
    <path d="M107.947 64.9654L106.805 63.0244L104.867 64.1689L106.009 66.1099L107.947 64.9654Z" fill="#1FC34D"/>
    <path d="M104.166 67.3404L103.023 65.3994L101.085 66.5439L102.228 68.4849L104.166 67.3404Z" fill="#1FC34D"/>
    <path d="M117.7 63.3432C118.6 63.3432 119.65 63.0427 120.4 62.5921C122.95 61.0899 123.85 57.785 122.35 55.2313C121.45 53.5789 119.65 52.5273 117.7 52.5273C116.8 52.5273 115.75 52.8278 115 53.2784C112.45 54.7806 111.55 58.0855 113.05 60.6392C114.1 62.2917 115.9 63.3432 117.7 63.3432ZM116.2 55.2313C116.65 54.9309 117.25 54.7806 117.7 54.7806C118.75 54.7806 119.8 55.3815 120.4 56.2828C121.3 57.785 120.85 59.5877 119.35 60.489C118 61.3903 115.9 60.7894 115.15 59.4375C114.25 58.0855 114.7 56.1326 116.2 55.2313Z" fill="#1FC34D"/>
    <path d="M96.6522 53.0832L94.6934 51.9746L93.5864 53.9363L95.5452 55.045L96.6522 53.0832Z" fill="#1FC34D"/>
    <path d="M94.4166 56.9666L92.457 55.8594L91.3514 57.8218L93.3109 58.929L94.4166 56.9666Z" fill="#1FC34D"/>
    <path d="M98.8912 49.1903L96.9316 48.083L95.826 50.0454L97.7855 51.1527L98.8912 49.1903Z" fill="#1FC34D"/>
    <path d="M98.9516 46.6684C99.7016 47.1191 100.602 47.4195 101.502 47.4195C103.452 47.4195 105.252 46.368 106.152 44.7156C107.652 42.1618 106.752 38.857 104.052 37.505C103.302 37.0543 102.402 36.7539 101.502 36.7539C99.5516 36.7539 97.7516 37.8054 96.8516 39.4579C96.1016 40.6596 95.9516 42.1618 96.4016 43.5138C96.8516 44.8658 97.7516 46.0676 98.9516 46.6684ZM98.8016 40.5094C99.4016 39.6081 100.452 39.0072 101.502 39.0072C102.102 39.0072 102.552 39.1574 103.002 39.4579C103.752 39.9085 104.202 40.5094 104.502 41.2605C104.652 42.0116 104.652 42.9129 104.202 43.664C103.452 45.1662 101.502 45.6169 100.002 44.8658C99.2516 44.4151 98.8016 43.8143 98.5016 43.0632C98.3516 42.1618 98.5016 41.2605 98.8016 40.5094Z" fill="#1FC34D"/>
    <path d="M80.8252 50.7201L80.8047 48.4668L78.5547 48.4874L78.5752 50.7407L80.8252 50.7201Z" fill="#1FC34D"/>
    <path d="M80.864 55.1781L80.8418 52.9248L78.5918 52.947L78.614 55.2003L80.864 55.1781Z" fill="#1FC34D"/>
    <path d="M78.6383 43.9508L78.6602 46.2041L80.9102 46.1822L80.8883 43.9289L78.6383 43.9508Z" fill="#1FC34D"/>
    <path d="M79.6016 41.7115C82.6016 41.7115 85.0016 39.308 85.0016 36.3036C85.0016 33.4494 82.6016 31.0459 79.6016 31.0459C76.6016 31.0459 74.3516 33.4494 74.3516 36.4538C74.3516 39.4582 76.7516 41.7115 79.6016 41.7115ZM79.6016 33.2992C81.2516 33.2992 82.6016 34.6512 82.7516 36.3036C82.7516 37.956 81.4016 39.4582 79.7516 39.4582C78.1016 39.4582 76.7516 38.1062 76.6016 36.4538C76.4516 34.8014 77.9516 33.2992 79.6016 33.2992Z" fill="#1FC34D"/>
    <path d="M64.0354 55.3423L65.9727 54.1963L64.8283 52.2562L62.8911 53.4022L64.0354 55.3423Z" fill="#1FC34D"/>
    <path d="M60.6736 49.5824L61.8164 51.5234L63.7546 50.379L62.6118 48.438L60.6736 49.5824Z" fill="#1FC34D"/>
    <path d="M66.3342 59.1763L68.2715 58.0303L67.1271 56.0902L65.1899 57.2362L66.3342 59.1763Z" fill="#1FC34D"/>
    <path d="M57.8505 47.8707C58.7505 47.8707 59.8005 47.5703 60.5505 47.1196C63.1005 45.6174 64.0005 42.3126 62.5005 39.7588C61.4505 38.1064 59.6505 37.2051 57.8505 37.2051C56.9505 37.2051 56.0505 37.5055 55.3005 37.806L55.1505 37.9562C52.6005 39.4584 51.7005 42.7632 53.2005 45.317C54.2505 46.8192 55.9005 47.8707 57.8505 47.8707ZM56.2005 39.909C57.7005 39.0077 59.6505 39.6086 60.5505 40.9606C61.4505 42.4628 61.0005 44.2654 59.5005 45.1667C58.1505 46.0681 56.0505 45.4672 55.3005 44.1152C54.2505 42.613 54.7005 40.8104 56.2005 39.909Z" fill="#1FC34D"/>
    <path d="M51.022 62.5643L49.0625 61.457L47.9568 63.4194L49.9164 64.5267L51.022 62.5643Z" fill="#1FC34D"/>
    <path d="M58.8619 66.9159L56.9023 65.8086L55.7967 67.771L57.7562 68.8783L58.8619 66.9159Z" fill="#1FC34D"/>
    <path d="M54.9791 64.6747L53.0195 63.5674L51.9139 65.5298L53.8734 66.6371L54.9791 64.6747Z" fill="#1FC34D"/>
    <path d="M39.4008 63.3432C40.1508 63.7939 41.0508 64.0943 41.9508 64.0943C43.9008 64.0943 45.7008 63.0428 46.6008 61.3904C48.1008 58.8366 47.2008 55.5318 44.5008 54.1798C43.7508 53.7291 42.8508 53.4287 41.9508 53.4287C40.0008 53.4287 38.2008 54.4803 37.3008 56.1327C36.5508 57.3344 36.4008 58.8366 36.8508 60.1886C37.1508 61.5406 38.0508 62.5921 39.4008 63.3432ZM39.2508 57.1842C39.8508 56.2829 40.9008 55.682 41.9508 55.682C42.5508 55.682 43.0008 55.8322 43.4508 56.1327C44.2008 56.5833 44.6508 57.1842 44.9508 57.9353C45.1008 58.6864 45.1008 59.5877 44.6508 60.3388C43.9008 61.841 41.9508 62.2917 40.4508 61.5406C38.9508 60.4891 38.5008 58.6864 39.2508 57.1842Z" fill="#1FC34D"/>
    <path d="M48.3398 81.6032L50.5898 81.582L50.5687 79.3287L48.3187 79.3499L48.3398 81.6032Z" fill="#1FC34D"/>
    <path d="M52.8301 81.6667L55.0801 81.6455L55.0589 79.3922L52.8089 79.4134L52.8301 81.6667Z" fill="#1FC34D"/>
    <path d="M43.8496 81.6893L46.0996 81.668L46.0783 79.4147L43.8283 79.436L43.8496 81.6893Z" fill="#1FC34D"/>
    <path d="M41.65 80.619C41.65 77.7649 39.25 75.3613 36.25 75.3613C33.25 75.3613 31 77.7649 31 80.7693C31 83.6234 33.4 86.027 36.4 86.027C37.9 86.027 39.1 85.4261 40.15 84.3745C41.2 83.323 41.65 81.971 41.65 80.619ZM38.5 82.8723C37.9 83.323 37.15 83.7737 36.4 83.7737C34.75 83.7737 33.4 82.4217 33.25 80.7693C33.25 79.8679 33.55 79.1168 34.15 78.516C34.75 77.9151 35.5 77.6146 36.4 77.6146C38.05 77.6146 39.4 78.9666 39.55 80.619C39.4 81.3701 39.1 82.2715 38.5 82.8723Z" fill="#1FC34D"/>
    <path d="M48.2576 97.6576L49.4004 99.5986L51.3385 98.4542L50.1958 96.5132L48.2576 97.6576Z" fill="#1FC34D"/>
    <path d="M55.9744 93.1996L57.1172 95.1406L59.0553 93.9962L57.9126 92.0552L55.9744 93.1996Z" fill="#1FC34D"/>
    <path d="M52.1416 95.3272L53.2871 97.2666L55.2237 96.1194L54.0782 94.18L52.1416 95.3272Z" fill="#1FC34D"/>
    <path d="M42.3994 97.1426C41.4994 97.1426 40.4494 97.443 39.6994 97.8937C37.1494 99.3959 36.2494 102.701 37.7494 105.254C38.7994 106.757 40.4494 107.808 42.3994 107.808C43.2994 107.808 44.3494 107.508 45.0994 107.057C46.2994 106.306 47.1994 105.104 47.4994 103.752C47.7994 102.4 47.6494 100.898 46.8994 99.6963C45.9994 98.1941 44.1994 97.1426 42.3994 97.1426ZM43.8994 105.104C42.3994 106.006 40.4494 105.405 39.6994 104.053C38.7994 102.55 39.3994 100.748 40.7494 99.8465C41.1994 99.5461 41.7994 99.3959 42.2494 99.3959C43.2994 99.3959 44.3494 99.9968 44.9494 100.898C45.8494 102.4 45.3994 104.203 43.8994 105.104Z" fill="#1FC34D"/>
    <path d="M80.0508 59.2871C68.9508 59.2871 59.8008 68.3003 59.8008 79.5668C59.8008 89.4814 66.8508 97.5932 76.1508 99.3959V104.353H73.1508V119.075C73.1508 122.83 76.3008 125.985 80.0508 125.985C83.8008 125.985 86.9508 122.83 86.9508 119.075V104.353H83.9508V99.3959C93.2508 97.7435 100.301 89.4814 100.301 79.5668C100.301 68.4505 91.1508 59.2871 80.0508 59.2871ZM84.7008 106.606V119.075C84.7008 121.628 82.6008 123.732 80.0508 123.732C77.5008 123.732 75.4008 121.628 75.4008 119.075V106.606H78.4008V99.6963C79.0008 99.6963 79.4508 99.8465 80.0508 99.8465C80.6508 99.8465 81.1008 99.8465 81.7008 99.6963V106.606H84.7008ZM80.0508 97.5932C70.1508 97.5932 62.0508 89.4814 62.0508 79.5668C62.0508 69.6523 70.1508 61.5404 80.0508 61.5404C89.9508 61.5404 98.0508 69.6523 98.0508 79.5668C98.0508 89.4814 89.9508 97.5932 80.0508 97.5932Z" fill="#1FC34D"/>
    <path d="M81.25 112.015H79V114.268H81.25V112.015Z" fill="#1FC34D"/>
    <path d="M81.25 117.272H79V119.526H81.25V117.272Z" fill="#1FC34D"/>
    <path d="M85.1992 77.1064L88.6492 79.8103L85.1992 82.6645L86.6992 84.3169L92.0992 79.8103L86.6992 75.3037L85.1992 77.1064Z" fill="#1FC34D"/>
    <path d="M74.4 75.3037L69 79.8103L74.4 84.3169L75.9 82.6645L72.6 79.8103L75.9 77.1064L74.4 75.3037Z" fill="#1FC34D"/>
    <path d="M75.9675 86.5148L77.9844 87.5137L85.0993 73.1053L83.0824 72.1065L75.9675 86.5148Z" fill="#1FC34D"/>
  </symbol>

  <symbol id="icon-lens-money" viewBox="0 0 80 80" fill="none" xmlns="http://www.w3.org/2000/svg">
    <circle cx="40" cy="40" r="40" fill="#E2F7E8"/>
    <path d="M44.6231 48.3221L53.8509 59.2469C54.5933 60.2015 55.76 60.7318 57.0328 60.7318C58.1996 60.8379 59.3663 60.3075 60.2148 59.459C61.0633 58.6105 61.5937 57.4438 61.4876 56.277C61.3815 55.1103 60.8512 53.9436 60.0027 53.0951L49.29 43.6552C51.1992 40.6853 52.2599 37.0791 52.0477 33.4728C51.6235 25.1997 44.9413 18.5175 36.6682 17.8811C31.8952 17.5629 27.1222 19.3661 23.7281 22.7602C20.0158 26.4725 18.3187 31.5636 19.0612 36.7609C20.1219 45.034 27.4404 51.2919 35.8196 51.1859C39.0016 50.9737 42.0775 50.0191 44.6231 48.3221ZM21.3947 36.3366C20.7583 31.8818 22.2432 27.4271 25.4252 24.2451C28.395 21.2752 32.4255 19.7903 36.5621 20.1085C43.7746 20.5328 49.3961 26.3664 49.8204 33.5789C50.0325 36.973 48.9718 40.3671 46.8505 43.1248L46.3202 44.0794L58.6238 54.8982C59.0481 55.3224 59.3663 55.8528 59.3663 56.4892C59.3663 57.1256 59.2602 57.6559 58.836 58.0802C58.4117 58.5044 57.7753 58.7165 57.245 58.6105C56.6086 58.6105 56.0782 58.2923 55.654 57.868L45.0474 45.3522L44.1989 45.9886C41.7593 47.7917 38.8956 48.7463 35.8196 48.8524C28.7132 48.9585 22.3493 43.443 21.3947 36.3366Z" fill="#1FC34D"/>
    <path d="M37.5 28.85C38.1 29.3 38.4 29.9 38.4 30.5H40.65C40.65 29.15 40.05 27.95 39 27.05C38.25 26.45 37.35 26 36.45 25.85V23H34.2V26C33.3 26.15 32.4 26.6 31.65 27.2C30.6 28.1 30 29.3 30 30.65C30 32 30.6 33.2 31.65 34.1C32.7 35 33.9 35.45 35.25 35.45C36.15 35.45 36.9 35.75 37.5 36.2C38.1 36.65 38.4 37.25 38.4 37.85C38.4 38.45 38.1 39.05 37.5 39.5C36.3 40.55 34.2 40.55 33.15 39.5C32.55 39.05 32.25 38.45 32.25 37.85H30C30 39.2 30.6 40.4 31.65 41.3C32.4 41.9 33.3 42.35 34.2 42.5V45.2H36.45V42.5C37.35 42.35 38.25 41.9 39 41.3C40.05 40.4 40.65 39.2 40.65 37.85C40.65 36.5 40.05 35.3 39 34.4C37.95 33.5 36.75 33.05 35.4 33.05C34.5 33.05 33.75 32.75 33.15 32.3C32.55 31.85 32.25 31.25 32.25 30.65C32.25 30.05 32.55 29.45 33.15 29C34.35 27.95 36.45 27.95 37.5 28.85Z" fill="#1FC34D"/>
  </symbol>

  <symbol id="icon-money-flower" viewBox="0 0 80 80" fill="none" xmlns="http://www.w3.org/2000/svg">
    <circle cx="40" cy="40" r="40" fill="#E2F7E8"/>
    <path d="M41.1992 35.7499C41.7992 35.5999 42.3992 35.2999 42.9992 34.8499C43.7492 34.0999 44.1992 33.1999 44.1992 32.1499C44.1992 31.0999 43.7492 30.3499 42.9992 29.5999C42.2492 28.9999 41.1992 28.5499 40.1492 28.5499C39.5492 28.5499 39.0992 28.3999 38.7992 28.0999C38.4992 27.7999 38.3492 27.4999 38.3492 27.0499C38.3492 26.7499 38.4992 26.2999 38.7992 25.9999C39.5492 25.3999 40.8992 25.3999 41.6492 25.9999C41.9492 26.2999 42.0992 26.5999 42.0992 27.0499H44.3492C44.3492 25.9999 43.8992 25.0999 43.1492 24.3499C42.6992 23.8999 42.0992 23.5999 41.3492 23.4499V21.7999H39.0992V23.5999C38.4992 23.7499 37.8992 24.0499 37.2992 24.4999C36.5492 25.2499 36.0992 26.1499 36.0992 27.1999C36.0992 28.2499 36.5492 29.1499 37.2992 29.8999C38.0492 30.4999 39.0992 30.9499 40.1492 30.9499C40.7492 30.9499 41.1992 31.0999 41.4992 31.3999C41.7992 31.6999 41.9492 31.9999 41.9492 32.4499C41.9492 32.7499 41.7992 33.1999 41.4992 33.4999C40.7492 34.0999 39.3992 34.0999 38.6492 33.4999C38.3492 33.1999 38.1992 32.8999 38.1992 32.4499H35.9492C35.9492 33.4999 36.3992 34.3999 37.1492 35.1499C37.5992 35.5999 38.1992 35.8999 38.9492 36.0499V37.8499H41.1992V35.7499Z" fill="#1FC34D"/>
    <path fill-rule="evenodd" clip-rule="evenodd" d="M41.2002 62V60.35L48.7002 52.85C49.4502 53.45 50.5 54.05 51.7002 54.05C53.0498 54.05 54.3994 53.45 55.75 52.1C58.5996 49.25 59.3496 42.2 59.3496 41.9L59.5 40.55L58.1494 40.7C57.8496 40.7 50.9502 41.45 47.9502 44.3C45.5498 46.7 45.25 48.95 47.2002 51.35L41.2002 57.35V42.65C47.7998 42.05 52.8994 36.5 52.8994 29.9C52.8994 22.85 47.2002 17 40 17C32.9502 17 27.0996 22.7 27.0996 29.9C27.0996 36.65 32.2002 42.05 38.7998 42.65V57.35L32.7998 51.35C34.5996 48.95 34.2998 46.7 32.0498 44.3C29.2002 41.45 22.1494 40.7 21.8496 40.7L20.5 40.55L20.6494 41.9C20.6494 42.2 21.3994 49.1 24.25 52.1C25.5996 53.45 26.9502 54.05 28.2998 54.05C29.5 54.05 30.5498 53.45 31.2998 52.85L38.7998 60.35V62H41.2002ZM56.9502 43.1C54.7002 43.4 51.0996 44.3 49.5996 45.8C47.9502 47.3 47.9502 48.5 48.8496 49.55L50.5 47.9L52.1494 49.55L50.5 51.2C50.9502 51.65 51.3994 51.8 51.8496 51.8C52.5996 51.8 53.3496 51.35 54.25 50.45C55.75 48.95 56.6494 45.35 56.9502 43.1ZM26.0498 50.3C26.9502 51.2 27.7002 51.65 28.4502 51.65C28.8994 51.65 29.3496 51.5 29.7998 51.2L28.1494 49.55L29.7998 47.9L31.4502 49.55C32.3496 48.35 32.3496 47.3 30.7002 45.65C29.2002 44.15 25.5996 43.25 23.3496 42.95C23.6494 45.2 24.5498 48.8 26.0498 50.3ZM40.1494 19.1C34.2998 19.1 29.5 23.9 29.5 29.75C29.5 35.45 34.2998 40.25 40.1494 40.4C46 40.4 50.7998 35.6 50.7998 29.75C50.7998 23.9 46 19.1 40.1494 19.1Z" fill="#1FC34D"/>
  </symbol>

  <symbol id="icon-friend-list" viewBox="0 0 80 80" fill="none" xmlns="http://www.w3.org/2000/svg">
    <circle cx="40" cy="40" r="40" fill="#E2F7E8"/>
    <path d="M60.681 21V20.9H60.581H20H19.9V21V61.0545V61.1678L20.0124 61.1537L53.9048 56.902C57.6022 56.8985 60.681 53.8176 60.681 50.1195V21ZM49.1385 48.783V48.6399L49.0041 48.6891L21.9225 58.6029V22.9225H58.537V50.1195C58.537 52.7373 56.3948 54.8795 53.777 54.8795C51.2824 54.8795 49.1385 52.7389 49.1385 50.1195V48.783ZM49.6335 55.3972L29.7291 57.9284L47.2646 51.4679C47.6272 53.0568 48.4157 54.4341 49.6335 55.3972Z" fill="#1FC34D" stroke="#1FC34D" stroke-width="0.2"/>
    <path d="M39.5605 30.8629H39.4605V30.9629V32.7854V32.8854H39.5605H55.234H55.334V32.7854V30.9629V30.8629H55.234H39.5605Z" fill="#1FC34D" stroke="#1FC34D" stroke-width="0.2"/>
    <path d="M30.691 25.5172C27.2351 25.5172 24.273 28.3552 24.273 31.9352C24.273 35.5139 27.1123 38.3532 30.691 38.3532C34.147 38.3532 37.109 35.5152 37.109 31.9352C37.109 28.3552 34.147 25.5172 30.691 25.5172ZM30.691 36.2092C28.3145 36.2092 26.2955 34.3082 26.2955 31.8137C26.2955 29.3174 28.1948 27.4182 30.691 27.4182C33.0676 27.4182 35.0865 29.3192 35.0865 31.8137C35.0865 34.3082 33.0676 36.2092 30.691 36.2092Z" fill="#1FC34D" stroke="#1FC34D" stroke-width="0.2"/>
    <path d="M39.5605 44.9566H39.4605V45.0566V46.8791V46.9791H39.5605H55.234H55.334V46.8791V45.0566V44.9566H55.234H39.5605Z" fill="#1FC34D" stroke="#1FC34D" stroke-width="0.2"/>
    <path d="M30.691 39.6109C27.2351 39.6109 24.273 42.449 24.273 46.0289C24.273 49.6077 27.1123 52.4469 30.691 52.4469C34.147 52.4469 37.109 49.6089 37.109 46.0289C37.109 42.449 34.147 39.6109 30.691 39.6109ZM30.691 50.3029C28.3145 50.3029 26.2955 48.402 26.2955 45.9074C26.2955 43.5309 28.1965 41.5119 30.691 41.5119C33.0668 41.5119 35.0853 43.4117 35.0865 45.905C34.9663 48.4065 33.0626 50.3029 30.691 50.3029Z" fill="#1FC34D" stroke="#1FC34D" stroke-width="0.2"/>
  </symbol>

  <symbol id="icon-groups" viewBox="0 0 80 80" fill="none" xmlns="http://www.w3.org/2000/svg">
    <circle cx="40" cy="40" r="40" fill="#E2F7E8"/>
    <path d="M23.489 55.1976V55.2976H23.589H56.5155H56.6155V55.1976V54.2256H56.6161L56.6149 54.2145C56.5563 53.6873 56.5261 53.1883 56.4966 52.7013L56.4938 52.6552C56.4658 52.1927 56.4376 51.7402 56.3853 51.2881H62.226H62.326V51.1881V50.2161H62.3261L62.3259 50.2113C62.2044 47.6595 61.9615 45.3506 61.7185 43.5269V43.4121H61.7193L61.7177 43.3997C61.5961 42.427 61.3531 41.4477 60.7465 40.4675V40.3746V40.348L60.7333 40.325C60.238 39.4581 59.4947 38.7149 58.5042 38.2196C58.4324 38.1837 58.3519 38.1382 58.2618 38.0871C58.2013 38.0529 58.1365 38.0162 58.0669 37.9783C57.8986 37.8864 57.7104 37.792 57.5198 37.7284C57.5196 37.7284 57.5194 37.7283 57.5191 37.7282L52.6605 36.0277L52.5806 35.9997L52.5398 36.074L50.5151 39.7662L45.735 38.0932L45.6546 38.065L45.614 38.14L40.7824 47.0786H39.4436L34.612 38.14L34.5714 38.065L34.491 38.0932L29.7109 39.7662L27.6862 36.074L27.6454 35.9997L27.5655 36.0277L22.7069 37.7282C22.7066 37.7283 22.7064 37.7284 22.7062 37.7284C22.3335 37.8527 22.083 37.9781 21.7139 38.224C20.8492 38.7188 20.1085 39.46 19.6142 40.325L19.614 40.3249L19.6116 40.3298L19.4901 40.5728C19.0018 41.5493 18.6322 42.5323 18.5085 43.3979L18.5075 43.405V43.4121V43.5269C18.2645 45.3506 18.0216 47.6595 17.9001 50.2113L17.9 50.2113V50.2161V51.1881V51.2881H18H23.7169C23.6007 52.1234 23.489 53.1738 23.489 54.2256V55.1976ZM58.8455 41.4681V41.4983L58.8623 41.5235C59.3396 42.2395 59.5745 42.9495 59.5745 43.6551V43.6551V43.6551V43.6552V43.6552V43.6553V43.6553V43.6553V43.6554V43.6554V43.6555V43.6555V43.6556V43.6556V43.6557V43.6557V43.6558V43.6559V43.6559V43.656V43.6561V43.6561V43.6562V43.6563V43.6564V43.6565V43.6566V43.6566V43.6567V43.6568V43.6569V43.657V43.6571V43.6572V43.6573V43.6575V43.6576V43.6577V43.6578V43.6579V43.658V43.6582V43.6583V43.6584V43.6586V43.6587V43.6588V43.659V43.6591V43.6593V43.6594V43.6596V43.6597V43.6599V43.66V43.6602V43.6604V43.6605V43.6607V43.6609V43.661V43.6612V43.6614V43.6616V43.6618V43.6619V43.6621V43.6623V43.6625V43.6627V43.6629V43.6631V43.6633V43.6635V43.6637V43.6639V43.6641V43.6643V43.6646V43.6648V43.665V43.6652V43.6654V43.6657V43.6659V43.6661V43.6664V43.6666V43.6668V43.6671V43.6673V43.6676V43.6678V43.6681V43.6683V43.6686V43.6688V43.6691V43.6694V43.6696V43.6699V43.6701V43.6704V43.6707V43.671V43.6712V43.6715V43.6718V43.6721V43.6724V43.6727V43.6729V43.6732V43.6735V43.6738V43.6741V43.6744V43.6747V43.675V43.6753V43.6756V43.676V43.6763V43.6766V43.6769V43.6772V43.6775V43.6779V43.6782V43.6785V43.6788V43.6792V43.6795V43.6798V43.6802V43.6805V43.6809V43.6812V43.6815V43.6819V43.6822V43.6826V43.6829V43.6833V43.6837V43.684V43.6844V43.6847V43.6851V43.6855V43.6858V43.6862V43.6866V43.687V43.6873V43.6877V43.6881V43.6885V43.6889V43.6892V43.6896V43.69V43.6904V43.6908V43.6912V43.6916V43.692V43.6924V43.6928V43.6932V43.6936V43.694V43.6944V43.6948V43.6953V43.6957V43.6961V43.6965V43.6969V43.6973V43.6978V43.6982V43.6986V43.6991V43.6995V43.6999V43.7004V43.7008V43.7012V43.7017V43.7021V43.7026V43.703V43.7034V43.7039V43.7043V43.7048V43.7053V43.7057V43.7062V43.7066V43.7071V43.7075V43.708V43.7085V43.7089V43.7094V43.7099V43.7103V43.7108V43.7113V43.7118V43.7122V43.7127V43.7132V43.7137V43.7142V43.7147V43.7152V43.7156V43.7161V43.7166V43.7171V43.7176V43.7181V43.7186V43.7191V43.7196V43.7201V43.7206V43.7211V43.7216V43.7221V43.7226V43.7232V43.7237V43.7242V43.7247V43.7252V43.7257V43.7263V43.7268V43.7273V43.7278V43.7284V43.7289V43.7294V43.7299V43.7305V43.731V43.7315V43.7321V43.7326V43.7332V43.7337V43.7342V43.7348V43.7353V43.7359V43.7364V43.737V43.7375V43.7381V43.7386V43.7392V43.7397V43.7403V43.7408V43.7414V43.742V43.7425V43.7431V43.7436V43.7442V43.7448V43.7453V43.7459V43.7465V43.7471V43.7476V43.7482V43.7488V43.7494V43.7499V43.7505V43.7511V43.7517V43.7523V43.7528V43.7534V43.754V43.7546V43.7552V43.7558V43.7564V43.757V43.7575V43.7581V43.7587V43.7593V43.7599V43.7605V43.7611V43.7617V43.7623V43.7629V43.7635V43.7641V43.7647V43.7654V43.766V43.7666V43.7672V43.7678V43.7684V43.769V43.7696V43.7702V43.7709V43.7715V43.7721V43.7727V43.7733V43.774V43.7746V43.7752V43.7758V43.7765V43.7771V43.7777V43.7783V43.779V43.7796V43.7802V43.7809V43.7815V43.7821V43.7828V43.7834V43.784V43.7847V43.7853V43.7859V43.7866V43.7872V43.7879V43.7885V43.7892V43.7898V43.7904V43.7911V43.7917V43.7924V43.793V43.7937V43.7943V43.795V43.7956V43.7963V43.7969V43.7976V43.7983V43.7989V43.7996V43.8002V43.8009V43.8015V43.8022V43.8029V43.8035V43.8042V43.8049V43.8055V43.8062V43.8068V43.8075V43.8082V43.8088V43.8095V43.8102V43.8108V43.8115V43.8122V43.8129V43.8135V43.8142V43.8149V43.8156V43.8162V43.8169V43.8176V43.8183V43.8189V43.8196V43.8203V43.821V43.8216V43.8223V43.823V43.8237V43.8244V43.825V43.8257V43.8264V43.8271V43.8278V43.8285V43.8292V43.8298V43.8305V43.8312V43.8319V43.8326V43.8333V43.834V43.8347V43.8353V43.836V43.8367V43.8374V43.8381V43.8388V43.8395V43.8402V43.8409V43.8416V43.8423V43.843V43.8437V43.8444V43.8451V43.8458V43.8465V43.8471V43.8478V43.8485V43.8492V43.8499V43.8506V43.8513V43.852V43.8527V43.8534V43.8541V43.8548V43.8555V43.8563V43.857V43.8577V43.8584V43.8591V43.8598V43.8605V43.8612V43.8619V43.8626V43.8633V43.864V43.8647V43.8654V43.8661V43.8668V43.8675V43.8682V43.8689V43.8697V43.8704V43.8711V43.8718V43.8725V43.8732V43.8739V43.8746V43.8753V43.876V43.8767V43.8774V43.8782V43.8789V43.8796V43.8803V43.881V43.8817V43.8824V43.8831V43.8838V43.8845V43.8853V43.886V43.8867V43.8874V43.8881V43.8888V43.8895V43.8902V43.891V43.8917V43.8924V43.8931V43.8938V43.8945V43.8952V43.8959V43.8966V43.8974V43.8981V43.9057L59.5757 43.9133C59.7181 44.8393 59.8183 45.8869 59.9261 47.0135C59.9988 47.7731 60.0748 48.5686 60.1696 49.3871H56.2393C56.1218 48.4472 56.0042 47.5097 55.8865 46.6855V46.5711H55.8871L55.8859 46.56C55.7636 45.4593 55.3985 44.3607 54.793 43.2647V43.1691V43.1404L54.7778 43.1161C54.1823 42.1633 53.4639 41.3146 52.395 40.811L53.4098 38.5558L56.7192 39.7377L57.0783 39.9173L57.4393 40.0978C58.0211 40.4475 58.4901 40.912 58.8455 41.3801V41.4681ZM38.0816 49.0497L38.1102 49.1011H38.169H41.814H41.8735L41.9019 49.0488L46.4778 40.6195L50.4009 42.0461C50.6414 42.1663 50.8873 42.2889 51.2526 42.4112C51.9524 42.7628 52.5371 43.3451 52.892 44.0433V44.1411V44.1676L52.9052 44.1907C53.3891 45.0376 53.7425 45.8692 53.7425 46.6926V46.6926V46.6926V46.6927V46.6927V46.6928V46.6928V46.6928V46.6929V46.6929V46.693V46.693V46.6931V46.6931V46.6932V46.6932V46.6933V46.6934V46.6934V46.6935V46.6936V46.6936V46.6937V46.6938V46.6939V46.694V46.6941V46.6941V46.6942V46.6943V46.6944V46.6945V46.6946V46.6947V46.6948V46.695V46.6951V46.6952V46.6953V46.6954V46.6955V46.6957V46.6958V46.6959V46.6961V46.6962V46.6963V46.6965V46.6966V46.6968V46.6969V46.6971V46.6972V46.6974V46.6975V46.6977V46.6979V46.698V46.6982V46.6984V46.6985V46.6987V46.6989V46.6991V46.6993V46.6994V46.6996V46.6998V46.7V46.7002V46.7004V46.7006V46.7008V46.701V46.7012V46.7014V46.7016V46.7018V46.7021V46.7023V46.7025V46.7027V46.7029V46.7032V46.7034V46.7036V46.7039V46.7041V46.7043V46.7046V46.7048V46.7051V46.7053V46.7056V46.7058V46.7061V46.7063V46.7066V46.7069V46.7071V46.7074V46.7076V46.7079V46.7082V46.7085V46.7087V46.709V46.7093V46.7096V46.7099V46.7102V46.7104V46.7107V46.711V46.7113V46.7116V46.7119V46.7122V46.7125V46.7128V46.7131V46.7135V46.7138V46.7141V46.7144V46.7147V46.715V46.7154V46.7157V46.716V46.7163V46.7167V46.717V46.7173V46.7177V46.718V46.7184V46.7187V46.719V46.7194V46.7197V46.7201V46.7204V46.7208V46.7212V46.7215V46.7219V46.7222V46.7226V46.723V46.7233V46.7237V46.7241V46.7245V46.7248V46.7252V46.7256V46.726V46.7264V46.7267V46.7271V46.7275V46.7279V46.7283V46.7287V46.7291V46.7295V46.7299V46.7303V46.7307V46.7311V46.7315V46.7319V46.7323V46.7328V46.7332V46.7336V46.734V46.7344V46.7348V46.7353V46.7357V46.7361V46.7366V46.737V46.7374V46.7379V46.7383V46.7387V46.7392V46.7396V46.7401V46.7405V46.7409V46.7414V46.7418V46.7423V46.7428V46.7432V46.7437V46.7441V46.7446V46.745V46.7455V46.746V46.7464V46.7469V46.7474V46.7478V46.7483V46.7488V46.7493V46.7497V46.7502V46.7507V46.7512V46.7517V46.7522V46.7527V46.7531V46.7536V46.7541V46.7546V46.7551V46.7556V46.7561V46.7566V46.7571V46.7576V46.7581V46.7586V46.7591V46.7596V46.7601V46.7607V46.7612V46.7617V46.7622V46.7627V46.7632V46.7638V46.7643V46.7648V46.7653V46.7659V46.7664V46.7669V46.7674V46.768V46.7685V46.769V46.7696V46.7701V46.7707V46.7712V46.7717V46.7723V46.7728V46.7734V46.7739V46.7745V46.775V46.7756V46.7761V46.7767V46.7772V46.7778V46.7783V46.7789V46.7795V46.78V46.7806V46.7811V46.7817V46.7823V46.7828V46.7834V46.784V46.7846V46.7851V46.7857V46.7863V46.7869V46.7874V46.788V46.7886V46.7892V46.7898V46.7903V46.7909V46.7915V46.7921V46.7927V46.7933V46.7939V46.7945V46.795V46.7956V46.7962V46.7968V46.7974V46.798V46.7986V46.7992V46.7998V46.8004V46.801V46.8016V46.8022V46.8029V46.8035V46.8041V46.8047V46.8053V46.8059V46.8065V46.8071V46.8077V46.8084V46.809V46.8096V46.8102V46.8108V46.8115V46.8121V46.8127V46.8133V46.814V46.8146V46.8152V46.8158V46.8165V46.8171V46.8177V46.8184V46.819V46.8196V46.8203V46.8209V46.8215V46.8222V46.8228V46.8234V46.8241V46.8247V46.8254V46.826V46.8267V46.8273V46.8279V46.8286V46.8292V46.8299V46.8305V46.8312V46.8318V46.8325V46.8331V46.8338V46.8344V46.8351V46.8358V46.8364V46.8371V46.8377V46.8384V46.839V46.8397V46.8404V46.841V46.8417V46.8424V46.843V46.8437V46.8443V46.845V46.8457V46.8463V46.847V46.8477V46.8483V46.849V46.8497V46.8504V46.851V46.8517V46.8524V46.8531V46.8537V46.8544V46.8551V46.8558V46.8564V46.8571V46.8578V46.8585V46.8591V46.8598V46.8605V46.8612V46.8619V46.8625V46.8632V46.8639V46.8646V46.8653V46.866V46.8667V46.8673V46.868V46.8687V46.8694V46.8701V46.8708V46.8715V46.8722V46.8728V46.8735V46.8742V46.8749V46.8756V46.8763V46.877V46.8777V46.8784V46.8791V46.8798V46.8805V46.8812V46.8819V46.8826V46.8833V46.884V46.8846V46.8853V46.886V46.8867V46.8874V46.8881V46.8888V46.8895V46.8902V46.8909V46.8916V46.8923V46.8931V46.8938V46.8945V46.8952V46.8959V46.8966V46.8973V46.898V46.8987V46.8994V46.9001V46.9008V46.9015V46.9022V46.9029V46.9036V46.9043V46.905V46.9057V46.9064V46.9072V46.9079V46.9086V46.9093V46.91V46.9107V46.9114V46.9121V46.9128V46.9135V46.9142V46.9149V46.9157V46.9164V46.9171V46.9178V46.9185V46.9192V46.9199V46.9206V46.9213V46.922V46.9228V46.9235V46.9242V46.9249V46.9256V46.9263V46.927V46.9277V46.9285V46.9292V46.9299V46.9306V46.9313V46.932V46.9327V46.9334V46.9341V46.9349V46.9356H53.7416L53.7434 46.9488C53.9826 48.7429 54.2218 51.0084 54.3448 53.3966H25.3963C25.5176 51.4461 25.6958 49.9359 25.8446 48.9091C25.9203 48.3864 25.9885 47.989 26.0376 47.7226C26.0622 47.5893 26.082 47.4889 26.0956 47.4218C26.1025 47.3883 26.1077 47.3631 26.1113 47.3464L26.1153 47.3277L26.1163 47.3231L26.1166 47.3221L26.1166 47.3218L26.1166 47.3218L26.119 47.311V47.3001V47.0571C26.119 46.1038 26.3568 45.1483 26.9569 44.0681L26.957 44.0682L26.9589 44.0643C27.4304 43.1214 28.378 42.4072 29.4526 42.0489L29.4526 42.049L29.4552 42.048L33.3846 40.6192L38.0816 49.0497ZM20.53 43.5419C20.65 42.8275 20.8885 42.1119 21.2467 41.3947C21.6019 40.8039 22.0744 40.3315 22.6652 39.9763C22.785 39.9164 22.9078 39.8549 23.0159 39.7931C23.1156 39.7362 23.2091 39.6755 23.2784 39.611L26.5784 38.4324L27.7078 40.5782C26.6408 41.1902 25.8065 42.0348 25.3229 43.0012C24.5889 44.3473 24.218 45.5783 24.218 46.8141C24.218 46.864 24.2048 46.9533 24.1798 47.0903C24.1677 47.1563 24.1539 47.2281 24.1385 47.3081C24.1218 47.395 24.1032 47.4915 24.083 47.6008C24.0102 47.9939 23.9233 48.5129 23.8624 49.1441H19.9355C20.0605 47.062 20.2946 45.3145 20.5288 43.7918L20.53 43.7842V43.7766V43.5419Z" fill="#1FC34D" stroke="#1FC34D" stroke-width="0.2"/>
    <path d="M25.3102 29.804H25.3101L25.3102 29.8072C25.4334 33.6258 28.5133 36.708 32.3357 36.708C33.0564 36.708 33.7766 36.591 34.4957 36.3576C35.8498 37.6882 37.8009 38.5305 39.9902 38.5305C42.06 38.5305 44.0096 37.6876 45.3631 36.3576C46.0823 36.591 46.8024 36.708 47.5232 36.708C51.3449 36.708 54.4272 33.6257 54.4272 29.804C54.4272 25.9823 51.3449 22.9 47.5232 22.9C46.1916 22.9 44.8578 23.257 43.7566 23.9738C42.6548 23.2566 41.3188 22.9 39.8687 22.9C38.4185 22.9 37.0825 23.2566 35.9807 23.9738C34.8795 23.257 33.5457 22.9 32.2142 22.9C28.3924 22.9 25.3102 25.9823 25.3102 29.804ZM47.6447 24.9225C50.3839 24.9225 52.5262 27.0647 52.5262 29.804C52.5262 32.5433 50.3839 34.6855 47.6447 34.6855C47.322 34.6855 47.0135 34.6849 46.7079 34.606C47.4007 33.5073 47.7447 32.0828 47.7447 30.776C47.7447 28.7296 46.9209 26.8021 45.5055 25.3381C46.1757 25.0288 46.8537 24.9225 47.6447 24.9225ZM45.8437 30.776C45.8437 34.0013 43.2154 36.6295 39.9902 36.6295C36.7649 36.6295 34.1367 34.0013 34.1367 30.776C34.1367 27.5507 36.7649 24.9225 39.9902 24.9225C43.2154 24.9225 45.8437 27.5507 45.8437 30.776ZM32.3357 24.9225C32.9927 24.9225 33.7575 25.1259 34.345 25.3468C33.0476 26.6952 32.1142 28.618 32.1142 30.776C32.1142 32.2009 32.4584 33.5155 33.1507 34.6061C32.8451 34.6849 32.5368 34.6855 32.2142 34.6855C29.4749 34.6855 27.3327 32.5433 27.3327 29.804C27.3327 27.0678 29.5932 24.9225 32.3357 24.9225Z" fill="#1FC34D" stroke="#1FC34D" stroke-width="0.2"/>
  </symbol>

  <symbol id="icon-marketplaces" viewBox="0 0 80 80" fill="none" xmlns="http://www.w3.org/2000/svg">
    <circle cx="40" cy="40" r="40" fill="#E2F7E8"/>
    <path d="M20 28.9L25.4 46.9H48.8L47.6 50.8H47.45H29.9C27.5 50.8 25.55 52.75 25.55 55.15C25.55 57.55 27.5 59.5 29.9 59.5C32.3 59.5 34.25 57.55 34.25 55.15C34.25 54.4 34.1 53.65 33.65 53.05H43.55C43.25 53.65 42.95 54.4 42.95 55.15C42.95 57.55 44.9 59.5 47.3 59.5C49.7 59.5 51.65 57.55 51.65 55.15C51.65 53.65 50.9 52.3 49.55 51.55L50.9 46.9L56.3 28.9L57.65 24.25H62.3V22H56L53.9 28.9H20ZM32 55.15C32 56.35 31.1 57.25 29.9 57.25C28.7 57.25 27.8 56.35 27.8 55.15C27.8 53.95 28.7 53.05 29.9 53.05C31.1 53.05 32 54.1 32 55.15ZM47.45 57.25C46.25 57.25 45.35 56.35 45.35 55.15C45.35 53.95 46.25 53.05 47.45 53.05C48.65 53.05 49.55 53.95 49.55 55.15C49.55 56.35 48.65 57.25 47.45 57.25ZM51.8 36.85H46.7L47.6 31.15H53.45L51.8 36.85ZM37.1 39.1V44.8H33.2L32.3 39.1H37.1ZM32 36.85L31.1 31.15H37.1V36.85H32ZM39.35 39.1H44.15L43.25 44.8H39.35V39.1ZM39.35 36.85V31.15H45.35L44.45 36.85H39.35ZM28.85 31.15L29.75 36.85H24.65L23 31.15H28.85ZM25.4 39.1H30.2L31.1 44.8H27.2L25.4 39.1ZM45.65 44.65L46.55 38.95H51.2L49.55 44.65H45.65Z" fill="#1FC34D"/>
  </symbol>

  <symbol id="icon-lens-people" viewBox="0 0 80 80" fill="none" xmlns="http://www.w3.org/2000/svg">
    <circle cx="40" cy="40" r="40" fill="#E2F7E8"/>
    <path d="M44.6231 50.3221L53.8509 61.2469C54.5933 62.2015 55.76 62.7318 57.0328 62.7318C58.1996 62.8379 59.3663 62.3075 60.2148 61.459C61.0633 60.6105 61.5937 59.4438 61.4876 58.277C61.3815 57.1103 60.8512 55.9436 60.0027 55.0951L49.29 45.6552C51.1992 42.6853 52.2599 39.0791 52.0477 35.4728C51.6235 27.1997 44.9413 20.5175 36.6682 19.8811C31.8952 19.5629 27.1222 21.3661 23.7281 24.7602C20.0158 28.4725 18.3187 33.5636 19.0612 38.7609C20.1219 47.034 27.4404 53.2919 35.8196 53.1859C39.0016 52.9737 42.0775 52.0191 44.6231 50.3221ZM21.3947 38.3366C20.7583 33.8818 22.2432 29.4271 25.4252 26.2451C28.395 23.2752 32.4255 21.7903 36.5621 22.1085C43.7746 22.5328 49.3961 28.3664 49.8204 35.5789C50.0325 38.973 48.9718 42.3671 46.8505 45.1248L46.3202 46.0794L58.6238 56.8982C59.0481 57.3224 59.3663 57.8528 59.3663 58.4892C59.3663 59.1256 59.2602 59.6559 58.836 60.0802C58.4117 60.5044 57.7753 60.7165 57.245 60.6105C56.6086 60.6105 56.0782 60.2923 55.654 59.868L45.0474 47.3522L44.1989 47.9886C41.7593 49.7917 38.8956 50.7463 35.8196 50.8524C28.7132 50.9585 22.3493 45.443 21.3947 38.3366Z" fill="#1FC34D"/>
    <path d="M35.7477 25C32.2977 25 29.5977 27.7 29.5977 31.15C29.5977 34.6 32.2977 37.3 35.7477 37.3C39.1977 37.3 41.8977 34.6 41.8977 31.15C41.8977 27.7 39.0477 25 35.7477 25ZM35.7477 35.05C33.4977 35.05 31.8477 33.25 31.8477 31.15C31.8477 28.9 33.6477 27.25 35.7477 27.25C37.9977 27.25 39.6477 29.05 39.6477 31.15C39.6477 33.25 37.8477 35.05 35.7477 35.05Z" fill="#1FC34D"/>
    <path d="M23 46.3L25.1941 46.3365C25.237 45.9132 25.2771 45.5414 25.3093 45.2366L25.3298 45.0461C25.3708 44.6595 25.3972 44.4128 25.3972 44.3501C25.3972 43.4501 25.697 42.7001 25.9968 42.25C26.1736 42.0149 26.3728 41.7798 26.5954 41.5626C26.9402 41.2258 27.3406 40.9325 27.7966 40.75L30.6472 39.7001L34.2468 46.3H37.5466L41.1472 39.7001L43.9968 40.75C44.2683 40.8586 44.5203 40.9869 44.7527 41.1421C45.1609 41.4153 45.5095 41.7716 45.7966 42.25C46.0964 42.7001 46.3972 43.6001 46.3972 44.5L46.4773 45.1875C46.5163 45.5304 46.4473 45.4673 46.5 45.9999L48.6401 46.5187C48.6215 45.5016 48.3279 42.2123 47.7468 41.05C47.1472 39.8501 46.0964 39.1001 44.7468 38.65L40.0964 37L36.197 44.2001H35.447L31.5466 37L26.8972 38.65C25.697 39.1001 24.6472 40 23.8972 41.05C23.363 41.9844 23.0586 45.4453 23 46.3Z" fill="#1FC34D"/>
  </symbol>

</svg>

