<svg style="display: none">
  <symbol id="icon-logo" xmlns="http://www.w3.org/2000/svg" viewBox="0 0 186 52" fill="none">
    <path d="M180.447 14.9883C182.162 14.9883 183.516 15.5078 184.509 16.5469C185.502 17.5633 185.999 18.9864 185.999 20.816V32.1327C185.999 32.3586 185.886 32.4716 185.66 32.4716H183.121C182.896 32.4716 182.783 32.3586 182.783 32.1327V21.4937C182.783 20.3643 182.467 19.472 181.835 18.817C181.226 18.1393 180.402 17.8005 179.364 17.8005C178.326 17.8005 177.48 18.128 176.825 18.7831C176.171 19.4382 175.843 20.3191 175.843 21.4259V32.1327C175.843 32.3586 175.731 32.4716 175.505 32.4716H172.966C172.74 32.4716 172.628 32.3586 172.628 32.1327V21.4937C172.628 20.3643 172.312 19.472 171.68 18.817C171.071 18.1393 170.247 17.8005 169.209 17.8005C168.171 17.8005 167.336 18.128 166.704 18.7831C166.094 19.4382 165.79 20.3191 165.79 21.4259V32.1327C165.79 32.3586 165.677 32.4716 165.451 32.4716H162.879C162.653 32.4716 162.54 32.3586 162.54 32.1327V15.5643C162.54 15.3384 162.653 15.2255 162.879 15.2255H165.451C165.677 15.2255 165.79 15.3384 165.79 15.5643V16.7163C165.79 16.7615 165.801 16.7953 165.824 16.8179C165.869 16.8405 165.914 16.8292 165.959 16.784C166.952 15.5869 168.396 14.9883 170.292 14.9883C171.443 14.9883 172.425 15.2142 173.237 15.6659C174.049 16.0951 174.681 16.7389 175.133 17.5972C175.2 17.6876 175.268 17.6876 175.336 17.5972C175.877 16.7163 176.588 16.0612 177.468 15.632C178.371 15.2029 179.364 14.9883 180.447 14.9883Z" fill="#242527"/>
    <path d="M152.481 14.9883C154.197 14.9883 155.551 15.5078 156.544 16.5469C157.537 17.5633 158.033 18.9864 158.033 20.816V32.1327C158.033 32.3586 157.92 32.4716 157.694 32.4716H155.156C154.93 32.4716 154.817 32.3586 154.817 32.1327V21.4937C154.817 20.3643 154.501 19.472 153.869 18.817C153.26 18.1393 152.436 17.8005 151.398 17.8005C150.36 17.8005 149.514 18.128 148.859 18.7831C148.205 19.4382 147.878 20.3191 147.878 21.4259V32.1327C147.878 32.3586 147.765 32.4716 147.539 32.4716H145C144.775 32.4716 144.662 32.3586 144.662 32.1327V21.4937C144.662 20.3643 144.346 19.472 143.714 18.817C143.105 18.1393 142.281 17.8005 141.243 17.8005C140.205 17.8005 139.37 18.128 138.738 18.7831C138.129 19.4382 137.824 20.3191 137.824 21.4259V32.1327C137.824 32.3586 137.711 32.4716 137.485 32.4716H134.913C134.687 32.4716 134.574 32.3586 134.574 32.1327V15.5643C134.574 15.3384 134.687 15.2255 134.913 15.2255H137.485C137.711 15.2255 137.824 15.3384 137.824 15.5643V16.7163C137.824 16.7615 137.835 16.7953 137.858 16.8179C137.903 16.8405 137.948 16.8292 137.993 16.784C138.986 15.5869 140.43 14.9883 142.326 14.9883C143.477 14.9883 144.459 15.2142 145.271 15.6659C146.084 16.0951 146.715 16.7389 147.167 17.5972C147.235 17.6876 147.302 17.6876 147.37 17.5972C147.912 16.7163 148.622 16.0612 149.503 15.632C150.405 15.2029 151.398 14.9883 152.481 14.9883Z" fill="#242527"/>
    <path d="M122.838 32.7423C121.168 32.7423 119.712 32.3245 118.471 31.4887C117.23 30.6303 116.361 29.4445 115.864 27.931C115.458 26.7113 115.255 25.3334 115.255 23.7974C115.255 22.1936 115.447 20.8383 115.83 19.7315C116.327 18.2407 117.196 17.0774 118.437 16.2416C119.678 15.3833 121.156 14.9541 122.871 14.9541C124.496 14.9541 125.907 15.3833 127.103 16.2416C128.321 17.0774 129.19 18.2294 129.709 19.6976C130.115 20.8496 130.319 22.2049 130.319 23.7635C130.319 25.3447 130.115 26.7339 129.709 27.931C129.213 29.4445 128.355 30.6303 127.137 31.4887C125.918 32.3245 124.485 32.7423 122.838 32.7423ZM122.838 29.9301C123.74 29.9301 124.53 29.6816 125.207 29.1847C125.884 28.6652 126.369 27.9423 126.663 27.0162C126.911 26.1579 127.035 25.0962 127.035 23.8313C127.035 22.5663 126.922 21.516 126.697 20.6802C126.403 19.7541 125.918 19.0426 125.241 18.5456C124.564 18.0261 123.74 17.7663 122.77 17.7663C121.845 17.7663 121.043 18.0261 120.366 18.5456C119.689 19.0426 119.204 19.7541 118.911 20.6802C118.663 21.4708 118.538 22.5212 118.538 23.8313C118.538 25.1414 118.663 26.203 118.911 27.0162C119.182 27.9423 119.656 28.6652 120.333 29.1847C121.032 29.6816 121.867 29.9301 122.838 29.9301Z" fill="#242527"/>
    <path d="M105.017 32.7423C103.302 32.7423 101.835 32.3132 100.616 31.4548C99.3976 30.5739 98.5626 29.388 98.1113 27.8972C97.7728 26.8581 97.6035 25.4915 97.6035 23.7974C97.6035 22.2388 97.7728 20.8722 98.1113 19.6976C98.5626 18.252 99.3976 17.1 100.616 16.2416C101.857 15.3833 103.324 14.9541 105.017 14.9541C106.709 14.9541 108.188 15.3833 109.451 16.2416C110.715 17.1 111.539 18.1842 111.923 19.4943C112.058 19.8557 112.148 20.2285 112.193 20.6125C112.193 20.7932 112.092 20.9061 111.889 20.9513L109.35 21.324H109.282C109.124 21.324 109.011 21.2223 108.944 21.019L108.842 20.4769C108.662 19.7089 108.221 19.0652 107.522 18.5456C106.822 18.0261 105.976 17.7663 104.983 17.7663C104.013 17.7663 103.189 18.0261 102.512 18.5456C101.835 19.0652 101.395 19.7541 101.192 20.6125C100.989 21.4256 100.887 22.4986 100.887 23.8313C100.887 25.1414 100.989 26.203 101.192 27.0162C101.417 27.9197 101.857 28.6313 102.512 29.1508C103.189 29.6703 104.013 29.9301 104.983 29.9301C105.976 29.9301 106.822 29.6703 107.522 29.1508C108.244 28.6313 108.695 27.9536 108.876 27.1179C108.898 27.0953 108.898 27.0727 108.876 27.0501C108.876 27.0049 108.887 26.971 108.91 26.9485V26.8129C108.977 26.6322 109.102 26.5645 109.282 26.6096L111.821 27.0162C112.001 27.0614 112.092 27.1517 112.092 27.2873V27.4228C112.092 27.6261 112.035 27.8746 111.923 28.1682C111.539 29.5461 110.715 30.6529 109.451 31.4887C108.188 32.3245 106.709 32.7423 105.017 32.7423Z" fill="#242527"/>
    <path d="M90.154 15.5634C90.154 15.3376 90.2668 15.2246 90.4925 15.2246H93.0313C93.257 15.2246 93.3698 15.3376 93.3698 15.5634V32.1319C93.3698 32.3578 93.257 32.4707 93.0313 32.4707H90.4925C90.2668 32.4707 90.154 32.3578 90.154 32.1319V30.8783C90.154 30.8331 90.1314 30.8105 90.0863 30.8105C90.0637 30.7879 90.0299 30.7992 89.9847 30.8444C89.082 32.0867 87.6941 32.7079 85.821 32.7079C84.7152 32.7079 83.6884 32.4933 82.7406 32.0641C81.8153 31.635 81.0706 31.0025 80.5064 30.1667C79.9422 29.331 79.6602 28.3145 79.6602 27.1173V15.5634C79.6602 15.3376 79.773 15.2246 79.9987 15.2246H82.5375C82.7632 15.2246 82.876 15.3376 82.876 15.5634V26.1008C82.876 27.2754 83.1807 28.2016 83.79 28.8792C84.4219 29.5568 85.302 29.8957 86.4304 29.8957C87.5587 29.8957 88.4614 29.5568 89.1384 28.8792C89.8155 28.179 90.154 27.2528 90.154 26.1008V15.5634Z" fill="#242527"/>
    <path d="M68.9837 32.7423C67.2686 32.7423 65.8017 32.3132 64.5831 31.4548C63.3644 30.5739 62.5294 29.388 62.0781 27.8972C61.7396 26.8581 61.5703 25.4915 61.5703 23.7974C61.5703 22.2388 61.7396 20.8722 62.0781 19.6976C62.5294 18.252 63.3644 17.1 64.5831 16.2416C65.8243 15.3833 67.2911 14.9541 68.9837 14.9541C70.6762 14.9541 72.1544 15.3833 73.4182 16.2416C74.6819 17.1 75.5057 18.1842 75.8893 19.4943C76.0247 19.8557 76.115 20.2285 76.1601 20.6125C76.1601 20.7932 76.0586 20.9061 75.8554 20.9513L73.3166 21.324H73.2489C73.0909 21.324 72.9781 21.2223 72.9104 21.019L72.8089 20.4769C72.6283 19.7089 72.1883 19.0652 71.4887 18.5456C70.7891 18.0261 69.9428 17.7663 68.9498 17.7663C67.9794 17.7663 67.1557 18.0261 66.4787 18.5456C65.8017 19.0652 65.3616 19.7541 65.1585 20.6125C64.9554 21.4256 64.8539 22.4986 64.8539 23.8313C64.8539 25.1414 64.9554 26.203 65.1585 27.0162C65.3842 27.9197 65.8243 28.6313 66.4787 29.1508C67.1557 29.6703 67.9794 29.9301 68.9498 29.9301C69.9428 29.9301 70.7891 29.6703 71.4887 29.1508C72.2108 28.6313 72.6622 27.9536 72.8427 27.1179C72.8653 27.0953 72.8653 27.0727 72.8427 27.0501C72.8427 27.0049 72.854 26.971 72.8766 26.9485V26.8129C72.9443 26.6322 73.0684 26.5645 73.2489 26.6096L75.7877 27.0162C75.9683 27.0614 76.0586 27.1517 76.0586 27.2873V27.4228C76.0586 27.6261 76.0021 27.8746 75.8893 28.1682C75.5057 29.5461 74.6819 30.6529 73.4182 31.4887C72.1544 32.3245 70.6762 32.7423 68.9837 32.7423Z" fill="#242527"/>
    <path d="M0 24.2353C0 10.8505 10.8405 0 24.2129 0C37.5853 0 48.4258 10.8505 48.4258 24.2353C48.4258 37.6201 37.5853 48.4706 24.2129 48.4706C10.8405 48.4706 0 37.6201 0 24.2353Z" fill="#1FC34D"/>
    <path d="M8.22789 52L20.2168 45.1765L8.22789 38.3529V52Z" fill="#1FC34D"/>
    <path fill-rule="evenodd" clip-rule="evenodd" d="M24.9746 8.04688C25.5263 8.04688 25.9736 8.49459 25.9736 9.04687L25.9736 39.4233C25.9736 39.9756 25.5263 40.4233 24.9746 40.4233L23.7757 40.4233C23.2239 40.4233 22.7766 39.9756 22.7766 39.4233L22.7766 9.04688C22.7766 8.49459 23.2239 8.04688 23.7757 8.04688L24.9746 8.04688Z" fill="white"/>
    <path fill-rule="evenodd" clip-rule="evenodd" d="M38.6811 16.6603C38.957 17.1386 38.7933 17.7502 38.3154 18.0264L12.033 33.2146C11.5551 33.4907 10.9441 33.3269 10.6682 32.8486L10.0688 31.8093C9.79287 31.3311 9.95659 30.7195 10.4344 30.4433L36.7169 15.2551C37.1948 14.9789 37.8058 15.1428 38.0817 15.6211L38.6811 16.6603Z" fill="white"/>
    <path fill-rule="evenodd" clip-rule="evenodd" d="M38.6811 31.8094C38.957 31.3311 38.7933 30.7195 38.3154 30.4434L12.033 15.2551C11.5551 14.979 10.9441 15.1429 10.6682 15.6212L10.0688 16.6604C9.79287 17.1387 9.95659 17.7503 10.4344 18.0264L36.7169 33.2146C37.1948 33.4908 37.8058 33.3269 38.0817 32.8486L38.6811 31.8094Z" fill="white"/>
  </symbol>

  <symbol id="icon-list-point" viewBox="0 0 8 9" fill="none" xmlns="http://www.w3.org/2000/svg">
    <mask id="path-1-inside-1_121_656" fill="white">
    <path d="M3.96 8.168C2.936 8.168 2.06133 7.80533 1.336 7.08C0.610667 6.33333 0.248 5.45867 0.248 4.456C0.248 3.432 0.610667 2.568 1.336 1.864C2.06133 1.13867 2.936 0.775999 3.96 0.775999C4.96267 0.775999 5.82667 1.13867 6.552 1.864C7.27733 2.568 7.64 3.432 7.64 4.456C7.64 5.45867 7.27733 6.33333 6.552 7.08C5.82667 7.80533 4.96267 8.168 3.96 8.168Z"/>
    </mask>
    <path d="M1.336 7.08L0.618721 7.77678L0.62377 7.78198L0.628893 7.78711L1.336 7.08ZM1.336 1.864L2.03248 2.58158L2.03783 2.57638L2.04311 2.57111L1.336 1.864ZM6.552 1.864L5.84489 2.57111L5.85017 2.57638L5.85553 2.58158L6.552 1.864ZM6.552 7.08L7.25911 7.78711L7.26423 7.78198L7.26928 7.77678L6.552 7.08ZM3.96 7.168C3.20173 7.168 2.58127 6.91106 2.04311 6.37289L0.628893 7.78711C1.5414 8.69961 2.67027 9.168 3.96 9.168V7.168ZM2.05328 6.38321C1.50155 5.81526 1.248 5.18763 1.248 4.456H-0.752C-0.752 5.7297 -0.280219 6.85141 0.618721 7.77678L2.05328 6.38321ZM1.248 4.456C1.248 3.69841 1.50401 3.0945 2.03248 2.58158L0.639525 1.14642C-0.282677 2.0415 -0.752 3.16559 -0.752 4.456H1.248ZM2.04311 2.57111C2.58127 2.03294 3.20173 1.776 3.96 1.776V-0.224001C2.67027 -0.224001 1.5414 0.24439 0.628893 1.15689L2.04311 2.57111ZM3.96 1.776C4.69068 1.776 5.30225 2.02847 5.84489 2.57111L7.25911 1.15689C6.35108 0.248866 5.23465 -0.224001 3.96 -0.224001V1.776ZM5.85553 2.58158C6.38399 3.0945 6.64 3.69841 6.64 4.456H8.64C8.64 3.16559 8.17068 2.0415 7.24848 1.14642L5.85553 2.58158ZM6.64 4.456C6.64 5.18763 6.38645 5.81526 5.83472 6.38321L7.26928 7.77678C8.16822 6.85141 8.64 5.7297 8.64 4.456H6.64ZM5.84489 6.37289C5.30225 6.91553 4.69068 7.168 3.96 7.168V9.168C5.23465 9.168 6.35108 8.69513 7.25911 7.78711L5.84489 6.37289Z" fill="#B4B9BF" mask="url(#path-1-inside-1_121_656)"/>
  </symbol>

  <symbol id="icon-benefits-1" viewBox="0 0 140 112" fill="none" xmlns="http://www.w3.org/2000/svg">
    <circle cx="69" cy="55" r="40" fill="#E2F7E8"/>
    <circle cx="20" cy="20" r="16" fill="#E2F7E8"/>
    <path d="M61.3516 37.4771L64.2016 49.3271L71.8516 47.5271L69.0016 35.6771L73.8016 34.4771L73.3516 32.8271C75.4516 32.3771 77.4016 32.2271 79.3516 32.2271C83.5516 32.2271 87.9016 33.1271 93.7516 35.0771L95.7016 35.6771L93.9016 28.3271C95.1016 27.8771 96.1516 26.9771 96.7516 25.7771C97.6516 24.2771 97.9516 22.6271 97.5016 20.9771C97.0516 19.3271 96.1516 17.9771 94.6516 17.0771C93.4516 16.3271 92.2516 16.0271 90.9016 16.1771L89.1016 8.82715L87.7516 10.3271C81.4516 16.7771 76.6516 19.9271 70.5016 21.5771L70.2016 19.9271L53.1016 23.9771L56.5516 38.6771L61.3516 37.4771ZM93.6016 19.0271C94.5016 19.6271 95.2516 20.5271 95.5516 21.5771C95.8516 22.6271 95.7016 23.8271 95.1016 24.7271C94.6516 25.3271 94.2016 25.7771 93.6016 26.2271L91.5016 18.4271C92.2516 18.4271 93.0016 18.5771 93.6016 19.0271ZM88.0516 13.1771L92.7016 32.3771C87.4516 30.7271 83.4016 29.9771 79.5016 29.9771C77.2516 29.9771 75.1516 30.1271 72.9016 30.7271L71.2516 23.6771C78.0016 21.7271 82.9516 18.1271 88.0516 13.1771ZM69.1516 45.8771L65.8516 46.6271L63.4516 36.8771L66.7516 36.1271L69.1516 45.8771ZM68.5516 22.4771L69.7516 27.5771L70.9516 32.6771L58.2016 35.6771L55.6516 25.3271L68.5516 22.4771Z" fill="#1FC34D"/>
    <path d="M101.29 7.17472L99.3711 6L95.0638 13.0364L96.9828 14.2112L101.29 7.17472Z" fill="#1FC34D"/>
    <path d="M100.9 21.1023L108.922 19.1768L108.397 16.9889L100.374 18.9144L100.9 21.1023Z" fill="#1FC34D"/>
    <path d="M98.7738 28.6072L105.809 32.917L106.984 30.9984L99.9492 26.6886L98.7738 28.6072Z" fill="#1FC34D"/>
    <path d="M108.45 26.2275V28.4775H116.25V68.5275H105.45V80.3775L92.25 68.5275H42.15V28.4775H50.25V26.2275H39.9V40.9275H21V84.8775H30.9V98.3775L45.9 84.8775H88.5V70.7775H91.35L107.7 85.4775V70.7775H118.5V26.2275H108.45ZM86.25 82.6275H45.15L33.15 93.4275V82.6275H23.25V43.0275H39.9V70.6275H86.25V82.6275Z" fill="#1FC34D"/>
  </symbol>

  <symbol id="icon-benefits-2" viewBox="0 0 140 112" fill="none" xmlns="http://www.w3.org/2000/svg">
    <circle cx="70" cy="55" r="40" fill="#E2F7E8"/>
    <circle cx="25" cy="95" r="16" fill="#E2F7E8"/>
    <path d="M86.9016 73.9504H84.6516V76.5004H76.4016V73.9504H74.1516V76.5004H65.7516V73.9504H63.6516V76.5004H55.2516V73.9504H53.0016V76.5004H47.6016V70.6504H50.1516V68.4004H47.6016V60.0004H50.1516V57.7504H47.6016V49.5004H50.1516V47.2504H47.6016V39.0004H50.1516V36.7504H47.6016V30.9004H45.3516V76.5004H43.1016V78.7504H45.3516V80.8504H47.6016V78.7504H93.5016V76.5004H86.9016V73.9504Z" fill="#1FC34D"/>
    <path d="M109.1 13H46.7C41.45 13 37.1 17.35 37.1 22.6V84.7H20V88C20 93.25 24.35 97.6 29.6 97.6C29.9 97.6 30.2 97.6 30.5 97.6H93.05H93.35C98.6 97.45 102.8 93.25 102.8 88V25.9H117.5V24.85C117.5 24.85 117.5 22.6 117.5 21.85C117.5 16.75 113.9 13 109.1 13ZM29.6 95.35C25.55 95.35 22.25 92.05 22.25 88V86.95H36.95V88C36.95 92.05 33.65 95.35 29.6 95.35ZM100.4 88C100.4 92.05 97.1 95.35 93.05 95.35H35.75C37.85 93.55 39.2 91 39.2 88V85.75V22.6C39.2 18.55 42.5 15.25 46.55 15.25C50.6 15.25 53.9 18.55 53.9 22.6C53.9 23.2 53.75 23.95 53.6 24.55L53.3 25.75L54.5 25.9H100.4V88ZM115.25 23.65H56.15C56.15 23.2 56.3 22.9 56.3 22.6C56.3 19.6 54.95 16.9 52.85 15.25H109.4C113 15.25 115.55 18.1 115.55 21.85C115.25 22.3 115.25 23.05 115.25 23.65Z" fill="#1FC34D"/>
    <path d="M57.6508 67.3492C59.6008 67.3492 61.2508 65.6992 61.2508 63.7492C61.2508 63.1492 61.1008 62.6992 60.9508 62.2492L68.3008 54.8992C68.7508 55.1992 69.3508 55.1992 69.8008 55.1992C71.3008 55.1992 72.6508 54.1492 73.1008 52.7992H79.4008C79.8508 54.1492 81.2008 55.1992 82.7008 55.1992C84.6508 55.1992 86.3008 53.5492 86.3008 51.5992C86.3008 50.9992 86.1508 50.5492 85.8508 49.9492L94.1008 41.6992V44.9992H96.3508V37.9492H89.3008V40.1992H92.6008L84.3508 48.4492C83.9008 48.1492 83.3008 47.9992 82.7008 47.9992C81.2008 47.9992 79.8508 49.0492 79.4008 50.5492H73.1008C72.6508 49.0492 71.3008 47.9992 69.8008 47.9992C67.8508 47.9992 66.2008 49.6492 66.2008 51.5992C66.2008 52.1992 66.3508 52.6492 66.6508 53.2492L59.3008 60.5992C58.8508 60.2992 58.2508 60.1492 57.6508 60.1492C55.7008 60.1492 54.0508 61.7992 54.0508 63.7492C54.0508 65.6992 55.7008 67.3492 57.6508 67.3492ZM82.8508 50.2492C83.1508 50.2492 83.6008 50.3992 83.7508 50.6992C84.0508 50.9992 84.2008 51.2992 84.2008 51.5992C84.2008 52.3492 83.6008 52.9492 82.8508 52.9492C82.1008 52.9492 81.5008 52.3492 81.5008 51.5992C81.5008 50.8492 82.1008 50.2492 82.8508 50.2492ZM69.8008 50.2492C70.5508 50.2492 71.1508 50.8492 71.1508 51.5992C71.1508 52.3492 70.5508 52.9492 69.8008 52.9492C69.5008 52.9492 69.2008 52.7992 68.9008 52.6492C68.6008 52.3492 68.4508 52.0492 68.4508 51.7492C68.4508 50.8492 69.0508 50.2492 69.8008 50.2492ZM57.6508 62.3992C58.4008 62.3992 59.0008 62.9992 59.0008 63.7492C59.0008 64.4992 58.4008 65.0992 57.6508 65.0992C56.9008 65.0992 56.3008 64.4992 56.3008 63.7492C56.3008 62.9992 56.9008 62.3992 57.6508 62.3992Z" fill="#1FC34D"/>
  </symbol>

  <symbol id="icon-benefits-3" viewBox="0 0 140 112" fill="none" xmlns="http://www.w3.org/2000/svg">
    <circle cx="68" cy="55" r="40" fill="#E2F7E8"/>
    <path d="M119.183 38.5148L109.634 33.5127L104.632 43.0622L106.602 44.1232L109.937 37.7569C117.97 57.3106 111.604 79.7443 94.021 92.0222C73.5578 106.422 45.2126 101.42 30.8126 81.1085C23.8399 71.1043 21.1115 58.978 23.2336 47.0032L21.2631 46.3969C18.9894 58.978 21.7178 71.8622 29.1452 82.3211C38.3915 95.3569 53.0947 102.481 68.101 102.481C77.4989 102.481 87.1999 99.6011 95.3852 93.8411C113.423 81.1085 120.244 57.9169 112.362 37.6053L117.97 40.6369L119.183 38.5148Z" fill="#1FC34D"/>
    <path d="M36.2695 32.7548L35.6632 30.6327L28.2358 32.7548C37.9368 15.02 58.0968 5.9253 77.9537 10.4727C87.9579 12.7464 97.0526 18.5064 103.419 26.54L105.238 25.1758C98.5684 16.6874 89.019 10.6242 78.4084 8.19899C57.6421 3.50004 36.5726 12.8979 26.4169 31.3906L24.4463 24.2664L22.3242 24.8727L25.3558 35.7864L36.2695 32.7548Z" fill="#1FC34D"/>
    <path d="M47.79 60.3419C44.4553 61.0998 41.8785 63.8282 41.1206 67.163L38.6953 80.0472H97.2048L94.7795 67.163C94.1732 63.8282 91.5964 61.0998 88.2616 60.3419L78.1058 57.9166L74.7711 51.5503C76.7416 49.5798 77.9543 46.6998 78.1058 43.2135C79.0153 42.4556 80.6827 40.4851 80.6827 38.363C80.6827 36.6956 79.7732 35.9377 79.0153 35.7861L79.3185 33.2093C79.47 30.0261 78.2574 28.2072 77.0448 27.4493C77.9543 25.9335 77.6511 24.8724 77.6511 24.7209L77.1964 23.2051L75.8321 24.1146C75.2258 24.5693 74.6195 24.8724 74.1648 24.8724C73.8616 24.8724 73.71 24.7209 73.71 24.7209C71.5879 23.6598 67.1922 23.3567 66.7374 23.3567C62.6448 23.3567 60.6743 25.4788 59.9164 26.9946C55.8237 27.7524 56.1269 32.2998 56.1269 34.2703C56.1269 34.5735 56.1269 34.8767 56.1269 35.1798C56.1269 35.483 56.1269 35.7861 56.1269 36.0893C55.369 36.3924 54.6111 37.1503 54.6111 38.6661C54.6111 40.7882 56.43 42.7588 57.1879 43.5167C57.3395 46.8514 58.5522 49.7314 60.5227 51.7019L57.1879 58.3714L47.79 60.3419ZM41.5753 77.9251L43.5458 67.7693C44.0006 65.1924 45.9711 63.2219 48.3964 62.6156L57.0364 60.6451L61.7353 77.9251H41.5753ZM65.8279 63.2219H69.4658L68.7079 64.5861H66.5858L65.8279 63.2219ZM65.8279 77.9251L66.889 66.8598H68.2532L69.3143 77.9251H65.8279ZM92.6574 67.6177L94.6279 77.7735H73.4069L78.1058 60.3419L87.8069 62.6156C90.3837 63.2219 92.2027 65.1924 92.6574 67.6177ZM59.31 42.9103V42.4556L58.8553 42.1524C58.249 41.6977 56.5816 40.0303 56.7332 38.6661C56.7332 38.5145 56.7332 38.363 56.7332 38.2114C57.1879 38.2114 57.6427 37.9082 57.9458 37.6051C58.249 37.3019 58.4006 36.8472 58.4006 36.3924C58.4006 35.9377 58.249 35.6346 58.249 35.1798C58.249 34.8767 58.249 34.5735 58.249 34.1188C58.0974 30.784 58.4006 29.1167 60.6743 29.1167H61.5837L61.7353 28.2072C61.7353 27.904 62.3416 25.4788 66.4343 25.4788C67.6469 25.4788 70.9816 25.9335 72.4974 26.5398C72.649 26.5398 73.2553 26.9946 74.4679 26.843L74.3164 26.9946L72.9521 28.5103L75.0743 28.8135C75.2258 28.8135 77.0448 29.2682 76.8932 32.9061L76.59 36.3924C76.59 36.8472 76.7416 37.1503 76.8932 37.4535C77.1964 37.7567 77.4995 37.9082 77.9543 37.9082H78.2574C78.2574 38.0598 78.2574 38.0598 78.2574 38.363C78.2574 39.5756 76.59 41.3945 76.1353 41.8493L75.6806 42.1524V42.6072C75.6806 48.064 72.1943 52.1567 67.4953 52.1567C62.9479 52.3082 59.4616 48.3672 59.31 42.9103ZM67.6469 54.5819C69.6174 54.5819 71.4364 53.9756 72.9521 53.0661L76.1353 59.1293L71.4364 76.5609L70.3753 65.9503L72.1943 62.6156C72.3458 62.3124 72.3458 61.8577 72.1943 61.5545C72.0427 61.2514 71.5879 60.9482 71.2848 60.9482H63.7058C63.2511 60.9482 62.9479 61.0998 62.7964 61.5545C62.6448 61.8577 62.6448 62.3124 62.7964 62.6156L64.6153 65.7988L63.5543 76.4093L59.0069 59.2809L62.19 53.0661C63.8574 53.9756 65.6764 54.5819 67.6469 54.5819Z" fill="#1FC34D"/>
    <circle cx="117" cy="20" r="16" fill="#E2F7E8"/>
  </symbol>

  <symbol id="icon-benefits-4" viewBox="0 0 140 112" fill="none" xmlns="http://www.w3.org/2000/svg">
    <circle cx="24" cy="95" r="16" fill="#E2F7E8"/>
    <circle cx="70" cy="55" r="40" fill="#E2F7E8"/>
    <path d="M91.4996 63.0996C87.2996 63.0996 83.8496 66.5496 83.8496 70.7496C83.8496 74.9496 87.2996 78.3996 91.4996 78.3996C95.6996 78.3996 99.1496 74.9496 99.1496 70.7496C99.2996 66.5496 95.8496 63.0996 91.4996 63.0996ZM91.4996 76.2996C88.4996 76.2996 85.9496 73.8996 85.9496 70.7496C85.9496 67.7496 88.3496 65.1996 91.4996 65.1996C94.4996 65.1996 97.0496 67.5996 97.0496 70.7496C97.0496 73.8996 94.6496 76.2996 91.4996 76.2996Z" fill="#1FC34D"/>
    <path d="M91.5 53.05C81.9 53.05 73.8 58.6 69.9 66.7L49.35 57.7C49.95 55.9 50.4 53.95 50.4 52C50.4 50.35 50.1 48.55 49.65 47.05L75.15 33.4C78.6 38.8 84.6 42.4 91.5 42.4C102.15 42.4 110.85 33.7 110.85 23.05C110.85 12.4 102.15 4 91.5 4C80.85 4 72.15 12.7 72.15 23.35C72.15 26.35 72.9 29.2 74.1 31.6L48.9 45.1C46.35 39.7 40.65 35.95 34.35 35.95C25.35 35.95 18 43.15 18 52.15C18 61.15 25.35 68.35 34.2 68.35C40.35 68.35 45.75 64.9 48.45 59.8L69 68.8C68.1 71.35 67.5 74.05 67.5 77.05C67.5 90.25 78.3 101.05 91.5 101.05C104.7 101.05 115.5 90.25 115.5 77.05C115.5 63.85 104.7 53.05 91.5 53.05ZM81.15 36.85V33.7C81.15 30.7 83.4 28.15 86.4 27.85L89.85 34.3H93.15L96.6 27.85C99.6 28.15 101.85 30.7 101.85 33.7V36.85C99 39.1 95.4 40.45 91.5 40.45C87.6 40.45 84 39.1 81.15 36.85ZM91.5 6.25C100.95 6.25 108.6 13.9 108.6 23.35C108.6 27.85 106.95 31.75 104.1 34.9V33.7C104.1 29.2 100.5 25.6 96 25.6H95.4L91.95 32.2H91.35L87.9 25.75H87C82.5 25.75 78.9 29.35 78.9 33.85V34.9C76.2 31.9 74.4 27.85 74.4 23.35C74.4 13.9 82.05 6.25 91.5 6.25ZM25.8 63.25V60.85C25.8 58.45 27.6 56.5 29.85 56.2L32.7 61.6H35.7L38.55 56.2C40.8 56.5 42.6 58.45 42.6 60.85V63.25C40.2 65.05 37.35 66.1 34.2 66.1C31.05 66.1 28.2 65.05 25.8 63.25ZM44.85 61.15V60.85C44.85 57.1 41.7 53.95 37.95 53.95H37.35L34.5 59.35H34.2L31.35 53.95H30.45C26.7 53.95 23.55 57.1 23.55 60.85V61.15C21.45 58.75 20.25 55.6 20.25 52.15C20.25 44.5 26.55 38.2 34.2 38.2C41.85 38.2 48.15 44.5 48.15 52.15C48.3 55.6 46.95 58.75 44.85 61.15ZM78.3 94.15V90.1C78.3 86.05 81.45 82.75 85.35 82.45L89.7 90.55H93.6L97.95 82.45C101.85 82.75 105 86.05 105 90.1V94.15C101.25 97 96.75 98.8 91.65 98.8C86.55 98.65 81.9 97 78.3 94.15ZM107.1 92.2V90.25C107.1 84.85 102.6 80.35 97.2 80.35H96.6L92.25 88.45H91.05L86.55 80.2H85.95C80.55 80.2 76.05 84.7 76.05 90.1V92.2C72.3 88.3 69.9 82.9 69.9 77.05C69.9 65.05 79.65 55.3 91.65 55.3C103.65 55.3 113.4 65.05 113.4 77.05C113.25 82.9 110.85 88.15 107.1 92.2Z" fill="#1FC34D"/>
    <path d="M34.2004 42.5498C31.2004 42.5498 28.6504 44.9498 28.6504 48.0998C28.6504 51.0998 31.0504 53.6498 34.2004 53.6498C37.3504 53.6498 39.7504 51.2498 39.7504 48.0998C39.7504 44.9498 37.2004 42.5498 34.2004 42.5498ZM34.2004 51.2498C32.4004 51.2498 30.9004 49.7498 30.9004 47.9498C30.9004 46.1498 32.4004 44.6498 34.2004 44.6498C36.0004 44.6498 37.5004 46.1498 37.5004 47.9498C37.5004 49.8998 36.0004 51.2498 34.2004 51.2498Z" fill="#1FC34D"/>
    <path d="M91.5008 24.6998C94.9508 24.6998 97.9508 21.8498 97.9508 18.2498C97.9508 14.7998 95.1008 11.7998 91.5008 11.7998C88.0508 11.7998 85.0508 14.6498 85.0508 18.2498C85.2008 21.8498 88.0508 24.6998 91.5008 24.6998ZM91.5008 14.1998C93.7508 14.1998 95.7008 15.9998 95.7008 18.3998C95.7008 20.6498 93.9008 22.5998 91.5008 22.5998C89.2508 22.5998 87.3008 20.7998 87.3008 18.3998C87.4508 15.9998 89.2508 14.1998 91.5008 14.1998Z" fill="#1FC34D"/>
  </symbol>

  <symbol id="icon-benefits-5" viewBox="0 0 140 112" fill="none" xmlns="http://www.w3.org/2000/svg">
    <circle cx="122" cy="24" r="16" fill="#E2F7E8"/>
    <circle cx="70" cy="55" r="40" fill="#E2F7E8"/>
    <path d="M108.05 76.4502C107.15 71.8002 103.7 68.2002 99.0504 67.0002L84.2004 63.5502L79.1004 53.9502C82.1004 51.1002 83.9004 46.9002 84.0504 41.9502C85.1004 40.9002 87.8004 38.2002 87.8004 35.2002C87.8004 32.3502 86.0004 31.9002 85.2504 31.9002L85.7004 27.7002C86.0004 22.6002 83.9004 20.5002 82.2504 19.6002C83.7504 17.3502 83.4504 15.8502 83.3004 15.5502L82.8504 14.0502L81.5004 14.9502C80.6004 15.7002 79.5504 16.0002 78.8004 16.0002C78.2004 16.0002 77.9004 15.8502 77.9004 15.8502C74.9004 14.3502 68.4504 14.0502 68.1504 13.9002C61.7004 13.9002 59.6004 17.5002 58.8504 19.1502C58.1004 19.3002 57.3504 19.4502 56.7504 19.9002C53.1504 16.3002 48.5004 14.0502 43.5504 13.4502L43.2504 15.7002C47.7504 16.3002 51.8004 18.2502 55.1004 21.4002C54.0504 22.9002 53.6004 25.0002 53.6004 26.8002C51.0504 23.3502 47.0004 20.9502 42.6504 20.3502L42.3504 22.6002C47.3004 23.2002 51.6504 26.5002 53.4504 31.1502C53.4504 31.3002 53.6004 31.4502 53.6004 31.6002C53.6004 31.7502 53.6004 32.0502 53.6004 32.2002C52.8504 32.3502 51.3504 32.9502 51.3504 35.5002C51.3504 37.6002 52.5504 39.5502 53.7504 40.9002C52.1004 46.0002 47.6004 49.7502 42.2004 50.5002L42.5004 52.7502C48.0504 52.0002 52.8504 48.5502 55.1004 43.4502C55.2504 45.7002 55.8504 47.8002 56.7504 49.6002C53.4504 53.8002 48.5004 56.6502 43.1004 57.4002L43.4004 59.6502C49.1004 58.9002 54.2004 56.0502 57.9504 51.7002C58.5504 52.6002 59.1504 53.3502 59.9004 54.1002L54.8004 64.0002L41.4504 67.1502C36.8004 68.2002 33.3504 71.9502 32.4504 76.6002L29.1504 94.3002H111.5L108.05 76.4502ZM57.5004 41.8002V41.3502L57.0504 40.9002C56.1504 40.1502 53.7504 37.6002 53.7504 35.6502C53.7504 34.6002 54.0504 34.6002 54.2004 34.6002C54.8004 34.6002 55.2504 34.3002 55.5504 34.0002C55.8504 33.5502 56.0004 33.1002 56.0004 32.5002C55.8504 31.9002 55.8504 31.3002 55.8504 30.7002C55.8504 30.2502 55.8504 29.8002 55.8504 29.2002C55.7004 25.1502 55.8504 21.7002 59.7504 21.4002H60.6504L60.8004 20.5002C60.8004 20.5002 61.5504 16.3002 68.0004 16.3002C69.6504 16.4502 74.6004 16.9002 76.8504 17.9502C77.0004 17.9502 77.7504 18.4002 78.8004 18.4002C79.2504 18.4002 79.8504 18.4002 80.4504 18.1002C80.1504 18.5502 79.8504 18.8502 79.5504 19.4502L78.2004 21.1002L80.3004 21.4002C80.4504 21.4002 83.6004 21.8502 83.4504 27.7002L83.0004 32.6502C83.0004 33.1002 83.1504 33.5502 83.4504 33.8502C83.7504 34.1502 84.2004 34.3002 84.6504 34.3002H84.9504C85.1004 34.3002 85.1004 34.3002 85.2504 34.3002C85.5504 34.3002 85.7004 34.9002 85.7004 35.3502C85.7004 37.4502 83.3004 39.8502 82.4004 40.6002L81.8004 40.9002V41.3502C81.8004 49.4502 76.7004 55.4502 69.6504 55.4502C62.7504 55.6002 57.5004 49.7502 57.5004 41.8002ZM32.0004 92.0502L34.8504 77.0502C35.6004 73.3002 38.4504 70.3002 42.2004 69.4002L55.1004 66.4002L62.0004 92.0502H32.0004ZM66.6504 92.0502L68.1504 75.4002H71.0004L72.5004 92.0502H66.6504ZM66.2004 70.1502H73.1004L71.4504 73.0002H67.8504L66.2004 70.1502ZM73.2504 74.3502L75.9504 69.5502C76.1004 69.2502 76.1004 68.8002 75.9504 68.3502C75.8004 68.0502 75.3504 67.7502 75.0504 67.7502H64.2504C63.8004 67.7502 63.5004 67.9002 63.3504 68.3502C63.2004 68.6502 63.2004 69.1002 63.3504 69.5502L66.0504 74.3502L64.4004 91.9002H64.2504L57.0504 65.0502L62.0004 55.4502C64.2504 56.9502 66.8004 57.7002 69.6504 57.7002C72.6504 57.7002 75.2004 56.8002 77.4504 55.3002L82.4004 64.6002L75.0504 91.9002H74.9004L73.2504 74.3502ZM84.3504 65.9502L98.6004 69.2502C102.35 70.1502 105.2 73.1502 105.95 76.9002L108.8 92.0502H77.3004L84.3504 65.9502Z" fill="#1FC34D"/>
    <path d="M41.5996 10H39.3496V25.15H41.5996V10Z" fill="#1FC34D"/>
    <path d="M41.5996 47.9502H39.3496V61.7502H41.5996V47.9502Z" fill="#1FC34D"/>
    <path d="M29.15 35.3496H14V37.5996H29.15V35.3496Z" fill="#1FC34D"/>
    <path d="M37.6992 15.7002L37.3992 13.4502C27.0492 14.8002 18.7992 23.0502 17.4492 33.4002L19.6992 33.7002C20.8992 24.4002 28.3992 16.9002 37.6992 15.7002Z" fill="#1FC34D"/>
    <path d="M37.6992 57.4C28.2492 56.2 20.8992 48.7 19.6992 39.25L17.4492 39.55C18.7992 50.05 27.0492 58.3 37.3992 59.65L37.6992 57.4Z" fill="#1FC34D"/>
    <path d="M24.3496 34.2996L26.5996 34.5996C27.4996 28.2996 32.4496 23.3496 38.7496 22.5996L38.4496 20.3496C31.0996 21.2496 25.2496 27.0996 24.3496 34.2996Z" fill="#1FC34D"/>
    <path d="M26.5996 38.3496L24.3496 38.6496C25.2496 45.9996 31.0996 51.6996 38.4496 52.7496L38.7496 50.4996C32.2996 49.5996 27.3496 44.6496 26.5996 38.3496Z" fill="#1FC34D"/>
    <path d="M46.9996 36.5496C46.9996 32.9496 44.1496 30.0996 40.5496 30.0996C36.9496 30.0996 34.0996 32.9496 34.0996 36.5496C34.0996 40.1496 36.9496 42.9996 40.5496 42.9996C43.9996 42.9996 46.9996 40.1496 46.9996 36.5496ZM40.5496 40.7496C38.2996 40.7496 36.3496 38.7996 36.3496 36.5496C36.3496 34.2996 38.2996 32.3496 40.5496 32.3496C42.7996 32.3496 44.7496 34.2996 44.7496 36.5496C44.7496 38.7996 42.7996 40.7496 40.5496 40.7496Z" fill="#1FC34D"/>
  </symbol>
</svg>

