<svg style="display: none">
  <symbol id="icon-logo" xmlns="http://www.w3.org/2000/svg" viewBox="0 0 186 52" fill="none">
    <path d="M180.447 14.9883C182.162 14.9883 183.516 15.5078 184.509 16.5469C185.502 17.5633 185.999 18.9864 185.999 20.816V32.1327C185.999 32.3586 185.886 32.4716 185.66 32.4716H183.121C182.896 32.4716 182.783 32.3586 182.783 32.1327V21.4937C182.783 20.3643 182.467 19.472 181.835 18.817C181.226 18.1393 180.402 17.8005 179.364 17.8005C178.326 17.8005 177.48 18.128 176.825 18.7831C176.171 19.4382 175.843 20.3191 175.843 21.4259V32.1327C175.843 32.3586 175.731 32.4716 175.505 32.4716H172.966C172.74 32.4716 172.628 32.3586 172.628 32.1327V21.4937C172.628 20.3643 172.312 19.472 171.68 18.817C171.071 18.1393 170.247 17.8005 169.209 17.8005C168.171 17.8005 167.336 18.128 166.704 18.7831C166.094 19.4382 165.79 20.3191 165.79 21.4259V32.1327C165.79 32.3586 165.677 32.4716 165.451 32.4716H162.879C162.653 32.4716 162.54 32.3586 162.54 32.1327V15.5643C162.54 15.3384 162.653 15.2255 162.879 15.2255H165.451C165.677 15.2255 165.79 15.3384 165.79 15.5643V16.7163C165.79 16.7615 165.801 16.7953 165.824 16.8179C165.869 16.8405 165.914 16.8292 165.959 16.784C166.952 15.5869 168.396 14.9883 170.292 14.9883C171.443 14.9883 172.425 15.2142 173.237 15.6659C174.049 16.0951 174.681 16.7389 175.133 17.5972C175.2 17.6876 175.268 17.6876 175.336 17.5972C175.877 16.7163 176.588 16.0612 177.468 15.632C178.371 15.2029 179.364 14.9883 180.447 14.9883Z" fill="#242527"/>
    <path d="M152.481 14.9883C154.197 14.9883 155.551 15.5078 156.544 16.5469C157.537 17.5633 158.033 18.9864 158.033 20.816V32.1327C158.033 32.3586 157.92 32.4716 157.694 32.4716H155.156C154.93 32.4716 154.817 32.3586 154.817 32.1327V21.4937C154.817 20.3643 154.501 19.472 153.869 18.817C153.26 18.1393 152.436 17.8005 151.398 17.8005C150.36 17.8005 149.514 18.128 148.859 18.7831C148.205 19.4382 147.878 20.3191 147.878 21.4259V32.1327C147.878 32.3586 147.765 32.4716 147.539 32.4716H145C144.775 32.4716 144.662 32.3586 144.662 32.1327V21.4937C144.662 20.3643 144.346 19.472 143.714 18.817C143.105 18.1393 142.281 17.8005 141.243 17.8005C140.205 17.8005 139.37 18.128 138.738 18.7831C138.129 19.4382 137.824 20.3191 137.824 21.4259V32.1327C137.824 32.3586 137.711 32.4716 137.485 32.4716H134.913C134.687 32.4716 134.574 32.3586 134.574 32.1327V15.5643C134.574 15.3384 134.687 15.2255 134.913 15.2255H137.485C137.711 15.2255 137.824 15.3384 137.824 15.5643V16.7163C137.824 16.7615 137.835 16.7953 137.858 16.8179C137.903 16.8405 137.948 16.8292 137.993 16.784C138.986 15.5869 140.43 14.9883 142.326 14.9883C143.477 14.9883 144.459 15.2142 145.271 15.6659C146.084 16.0951 146.715 16.7389 147.167 17.5972C147.235 17.6876 147.302 17.6876 147.37 17.5972C147.912 16.7163 148.622 16.0612 149.503 15.632C150.405 15.2029 151.398 14.9883 152.481 14.9883Z" fill="#242527"/>
    <path d="M122.838 32.7423C121.168 32.7423 119.712 32.3245 118.471 31.4887C117.23 30.6303 116.361 29.4445 115.864 27.931C115.458 26.7113 115.255 25.3334 115.255 23.7974C115.255 22.1936 115.447 20.8383 115.83 19.7315C116.327 18.2407 117.196 17.0774 118.437 16.2416C119.678 15.3833 121.156 14.9541 122.871 14.9541C124.496 14.9541 125.907 15.3833 127.103 16.2416C128.321 17.0774 129.19 18.2294 129.709 19.6976C130.115 20.8496 130.319 22.2049 130.319 23.7635C130.319 25.3447 130.115 26.7339 129.709 27.931C129.213 29.4445 128.355 30.6303 127.137 31.4887C125.918 32.3245 124.485 32.7423 122.838 32.7423ZM122.838 29.9301C123.74 29.9301 124.53 29.6816 125.207 29.1847C125.884 28.6652 126.369 27.9423 126.663 27.0162C126.911 26.1579 127.035 25.0962 127.035 23.8313C127.035 22.5663 126.922 21.516 126.697 20.6802C126.403 19.7541 125.918 19.0426 125.241 18.5456C124.564 18.0261 123.74 17.7663 122.77 17.7663C121.845 17.7663 121.043 18.0261 120.366 18.5456C119.689 19.0426 119.204 19.7541 118.911 20.6802C118.663 21.4708 118.538 22.5212 118.538 23.8313C118.538 25.1414 118.663 26.203 118.911 27.0162C119.182 27.9423 119.656 28.6652 120.333 29.1847C121.032 29.6816 121.867 29.9301 122.838 29.9301Z" fill="#242527"/>
    <path d="M105.017 32.7423C103.302 32.7423 101.835 32.3132 100.616 31.4548C99.3976 30.5739 98.5626 29.388 98.1113 27.8972C97.7728 26.8581 97.6035 25.4915 97.6035 23.7974C97.6035 22.2388 97.7728 20.8722 98.1113 19.6976C98.5626 18.252 99.3976 17.1 100.616 16.2416C101.857 15.3833 103.324 14.9541 105.017 14.9541C106.709 14.9541 108.188 15.3833 109.451 16.2416C110.715 17.1 111.539 18.1842 111.923 19.4943C112.058 19.8557 112.148 20.2285 112.193 20.6125C112.193 20.7932 112.092 20.9061 111.889 20.9513L109.35 21.324H109.282C109.124 21.324 109.011 21.2223 108.944 21.019L108.842 20.4769C108.662 19.7089 108.221 19.0652 107.522 18.5456C106.822 18.0261 105.976 17.7663 104.983 17.7663C104.013 17.7663 103.189 18.0261 102.512 18.5456C101.835 19.0652 101.395 19.7541 101.192 20.6125C100.989 21.4256 100.887 22.4986 100.887 23.8313C100.887 25.1414 100.989 26.203 101.192 27.0162C101.417 27.9197 101.857 28.6313 102.512 29.1508C103.189 29.6703 104.013 29.9301 104.983 29.9301C105.976 29.9301 106.822 29.6703 107.522 29.1508C108.244 28.6313 108.695 27.9536 108.876 27.1179C108.898 27.0953 108.898 27.0727 108.876 27.0501C108.876 27.0049 108.887 26.971 108.91 26.9485V26.8129C108.977 26.6322 109.102 26.5645 109.282 26.6096L111.821 27.0162C112.001 27.0614 112.092 27.1517 112.092 27.2873V27.4228C112.092 27.6261 112.035 27.8746 111.923 28.1682C111.539 29.5461 110.715 30.6529 109.451 31.4887C108.188 32.3245 106.709 32.7423 105.017 32.7423Z" fill="#242527"/>
    <path d="M90.154 15.5634C90.154 15.3376 90.2668 15.2246 90.4925 15.2246H93.0313C93.257 15.2246 93.3698 15.3376 93.3698 15.5634V32.1319C93.3698 32.3578 93.257 32.4707 93.0313 32.4707H90.4925C90.2668 32.4707 90.154 32.3578 90.154 32.1319V30.8783C90.154 30.8331 90.1314 30.8105 90.0863 30.8105C90.0637 30.7879 90.0299 30.7992 89.9847 30.8444C89.082 32.0867 87.6941 32.7079 85.821 32.7079C84.7152 32.7079 83.6884 32.4933 82.7406 32.0641C81.8153 31.635 81.0706 31.0025 80.5064 30.1667C79.9422 29.331 79.6602 28.3145 79.6602 27.1173V15.5634C79.6602 15.3376 79.773 15.2246 79.9987 15.2246H82.5375C82.7632 15.2246 82.876 15.3376 82.876 15.5634V26.1008C82.876 27.2754 83.1807 28.2016 83.79 28.8792C84.4219 29.5568 85.302 29.8957 86.4304 29.8957C87.5587 29.8957 88.4614 29.5568 89.1384 28.8792C89.8155 28.179 90.154 27.2528 90.154 26.1008V15.5634Z" fill="#242527"/>
    <path d="M68.9837 32.7423C67.2686 32.7423 65.8017 32.3132 64.5831 31.4548C63.3644 30.5739 62.5294 29.388 62.0781 27.8972C61.7396 26.8581 61.5703 25.4915 61.5703 23.7974C61.5703 22.2388 61.7396 20.8722 62.0781 19.6976C62.5294 18.252 63.3644 17.1 64.5831 16.2416C65.8243 15.3833 67.2911 14.9541 68.9837 14.9541C70.6762 14.9541 72.1544 15.3833 73.4182 16.2416C74.6819 17.1 75.5057 18.1842 75.8893 19.4943C76.0247 19.8557 76.115 20.2285 76.1601 20.6125C76.1601 20.7932 76.0586 20.9061 75.8554 20.9513L73.3166 21.324H73.2489C73.0909 21.324 72.9781 21.2223 72.9104 21.019L72.8089 20.4769C72.6283 19.7089 72.1883 19.0652 71.4887 18.5456C70.7891 18.0261 69.9428 17.7663 68.9498 17.7663C67.9794 17.7663 67.1557 18.0261 66.4787 18.5456C65.8017 19.0652 65.3616 19.7541 65.1585 20.6125C64.9554 21.4256 64.8539 22.4986 64.8539 23.8313C64.8539 25.1414 64.9554 26.203 65.1585 27.0162C65.3842 27.9197 65.8243 28.6313 66.4787 29.1508C67.1557 29.6703 67.9794 29.9301 68.9498 29.9301C69.9428 29.9301 70.7891 29.6703 71.4887 29.1508C72.2108 28.6313 72.6622 27.9536 72.8427 27.1179C72.8653 27.0953 72.8653 27.0727 72.8427 27.0501C72.8427 27.0049 72.854 26.971 72.8766 26.9485V26.8129C72.9443 26.6322 73.0684 26.5645 73.2489 26.6096L75.7877 27.0162C75.9683 27.0614 76.0586 27.1517 76.0586 27.2873V27.4228C76.0586 27.6261 76.0021 27.8746 75.8893 28.1682C75.5057 29.5461 74.6819 30.6529 73.4182 31.4887C72.1544 32.3245 70.6762 32.7423 68.9837 32.7423Z" fill="#242527"/>
    <path d="M0 24.2353C0 10.8505 10.8405 0 24.2129 0C37.5853 0 48.4258 10.8505 48.4258 24.2353C48.4258 37.6201 37.5853 48.4706 24.2129 48.4706C10.8405 48.4706 0 37.6201 0 24.2353Z" fill="#1FC34D"/>
    <path d="M8.22789 52L20.2168 45.1765L8.22789 38.3529V52Z" fill="#1FC34D"/>
    <path fill-rule="evenodd" clip-rule="evenodd" d="M24.9746 8.04688C25.5263 8.04688 25.9736 8.49459 25.9736 9.04687L25.9736 39.4233C25.9736 39.9756 25.5263 40.4233 24.9746 40.4233L23.7757 40.4233C23.2239 40.4233 22.7766 39.9756 22.7766 39.4233L22.7766 9.04688C22.7766 8.49459 23.2239 8.04688 23.7757 8.04688L24.9746 8.04688Z" fill="white"/>
    <path fill-rule="evenodd" clip-rule="evenodd" d="M38.6811 16.6603C38.957 17.1386 38.7933 17.7502 38.3154 18.0264L12.033 33.2146C11.5551 33.4907 10.9441 33.3269 10.6682 32.8486L10.0688 31.8093C9.79287 31.3311 9.95659 30.7195 10.4344 30.4433L36.7169 15.2551C37.1948 14.9789 37.8058 15.1428 38.0817 15.6211L38.6811 16.6603Z" fill="white"/>
    <path fill-rule="evenodd" clip-rule="evenodd" d="M38.6811 31.8094C38.957 31.3311 38.7933 30.7195 38.3154 30.4434L12.033 15.2551C11.5551 14.979 10.9441 15.1429 10.6682 15.6212L10.0688 16.6604C9.79287 17.1387 9.95659 17.7503 10.4344 18.0264L36.7169 33.2146C37.1948 33.4908 37.8058 33.3269 38.0817 32.8486L38.6811 31.8094Z" fill="white"/>
  </symbol>

  <symbol id="icon-list-point" viewBox="0 0 8 9" fill="none" xmlns="http://www.w3.org/2000/svg">
    <mask id="path-1-inside-1_121_656" fill="white">
    <path d="M3.96 8.168C2.936 8.168 2.06133 7.80533 1.336 7.08C0.610667 6.33333 0.248 5.45867 0.248 4.456C0.248 3.432 0.610667 2.568 1.336 1.864C2.06133 1.13867 2.936 0.775999 3.96 0.775999C4.96267 0.775999 5.82667 1.13867 6.552 1.864C7.27733 2.568 7.64 3.432 7.64 4.456C7.64 5.45867 7.27733 6.33333 6.552 7.08C5.82667 7.80533 4.96267 8.168 3.96 8.168Z"/>
    </mask>
    <path d="M1.336 7.08L0.618721 7.77678L0.62377 7.78198L0.628893 7.78711L1.336 7.08ZM1.336 1.864L2.03248 2.58158L2.03783 2.57638L2.04311 2.57111L1.336 1.864ZM6.552 1.864L5.84489 2.57111L5.85017 2.57638L5.85553 2.58158L6.552 1.864ZM6.552 7.08L7.25911 7.78711L7.26423 7.78198L7.26928 7.77678L6.552 7.08ZM3.96 7.168C3.20173 7.168 2.58127 6.91106 2.04311 6.37289L0.628893 7.78711C1.5414 8.69961 2.67027 9.168 3.96 9.168V7.168ZM2.05328 6.38321C1.50155 5.81526 1.248 5.18763 1.248 4.456H-0.752C-0.752 5.7297 -0.280219 6.85141 0.618721 7.77678L2.05328 6.38321ZM1.248 4.456C1.248 3.69841 1.50401 3.0945 2.03248 2.58158L0.639525 1.14642C-0.282677 2.0415 -0.752 3.16559 -0.752 4.456H1.248ZM2.04311 2.57111C2.58127 2.03294 3.20173 1.776 3.96 1.776V-0.224001C2.67027 -0.224001 1.5414 0.24439 0.628893 1.15689L2.04311 2.57111ZM3.96 1.776C4.69068 1.776 5.30225 2.02847 5.84489 2.57111L7.25911 1.15689C6.35108 0.248866 5.23465 -0.224001 3.96 -0.224001V1.776ZM5.85553 2.58158C6.38399 3.0945 6.64 3.69841 6.64 4.456H8.64C8.64 3.16559 8.17068 2.0415 7.24848 1.14642L5.85553 2.58158ZM6.64 4.456C6.64 5.18763 6.38645 5.81526 5.83472 6.38321L7.26928 7.77678C8.16822 6.85141 8.64 5.7297 8.64 4.456H6.64ZM5.84489 6.37289C5.30225 6.91553 4.69068 7.168 3.96 7.168V9.168C5.23465 9.168 6.35108 8.69513 7.25911 7.78711L5.84489 6.37289Z" fill="#B4B9BF" mask="url(#path-1-inside-1_121_656)"/>
  </symbol>

  <symbol id="icon-benefits-1" viewBox="0 0 140 112" fill="none" xmlns="http://www.w3.org/2000/svg">
    <circle cx="69" cy="55" r="40" fill="#E2F7E8"/>
    <circle cx="20" cy="20" r="16" fill="#E2F7E8"/>
    <path d="M61.3516 37.4771L64.2016 49.3271L71.8516 47.5271L69.0016 35.6771L73.8016 34.4771L73.3516 32.8271C75.4516 32.3771 77.4016 32.2271 79.3516 32.2271C83.5516 32.2271 87.9016 33.1271 93.7516 35.0771L95.7016 35.6771L93.9016 28.3271C95.1016 27.8771 96.1516 26.9771 96.7516 25.7771C97.6516 24.2771 97.9516 22.6271 97.5016 20.9771C97.0516 19.3271 96.1516 17.9771 94.6516 17.0771C93.4516 16.3271 92.2516 16.0271 90.9016 16.1771L89.1016 8.82715L87.7516 10.3271C81.4516 16.7771 76.6516 19.9271 70.5016 21.5771L70.2016 19.9271L53.1016 23.9771L56.5516 38.6771L61.3516 37.4771ZM93.6016 19.0271C94.5016 19.6271 95.2516 20.5271 95.5516 21.5771C95.8516 22.6271 95.7016 23.8271 95.1016 24.7271C94.6516 25.3271 94.2016 25.7771 93.6016 26.2271L91.5016 18.4271C92.2516 18.4271 93.0016 18.5771 93.6016 19.0271ZM88.0516 13.1771L92.7016 32.3771C87.4516 30.7271 83.4016 29.9771 79.5016 29.9771C77.2516 29.9771 75.1516 30.1271 72.9016 30.7271L71.2516 23.6771C78.0016 21.7271 82.9516 18.1271 88.0516 13.1771ZM69.1516 45.8771L65.8516 46.6271L63.4516 36.8771L66.7516 36.1271L69.1516 45.8771ZM68.5516 22.4771L69.7516 27.5771L70.9516 32.6771L58.2016 35.6771L55.6516 25.3271L68.5516 22.4771Z" fill="#1FC34D"/>
    <path d="M101.29 7.17472L99.3711 6L95.0638 13.0364L96.9828 14.2112L101.29 7.17472Z" fill="#1FC34D"/>
    <path d="M100.9 21.1023L108.922 19.1768L108.397 16.9889L100.374 18.9144L100.9 21.1023Z" fill="#1FC34D"/>
    <path d="M98.7738 28.6072L105.809 32.917L106.984 30.9984L99.9492 26.6886L98.7738 28.6072Z" fill="#1FC34D"/>
    <path d="M108.45 26.2275V28.4775H116.25V68.5275H105.45V80.3775L92.25 68.5275H42.15V28.4775H50.25V26.2275H39.9V40.9275H21V84.8775H30.9V98.3775L45.9 84.8775H88.5V70.7775H91.35L107.7 85.4775V70.7775H118.5V26.2275H108.45ZM86.25 82.6275H45.15L33.15 93.4275V82.6275H23.25V43.0275H39.9V70.6275H86.25V82.6275Z" fill="#1FC34D"/>
  </symbol>

  <symbol id="icon-benefits-2" viewBox="0 0 140 112" fill="none" xmlns="http://www.w3.org/2000/svg">
    <circle cx="70" cy="55" r="40" fill="#E2F7E8"/>
    <circle cx="25" cy="95" r="16" fill="#E2F7E8"/>
    <path d="M86.9016 73.9504H84.6516V76.5004H76.4016V73.9504H74.1516V76.5004H65.7516V73.9504H63.6516V76.5004H55.2516V73.9504H53.0016V76.5004H47.6016V70.6504H50.1516V68.4004H47.6016V60.0004H50.1516V57.7504H47.6016V49.5004H50.1516V47.2504H47.6016V39.0004H50.1516V36.7504H47.6016V30.9004H45.3516V76.5004H43.1016V78.7504H45.3516V80.8504H47.6016V78.7504H93.5016V76.5004H86.9016V73.9504Z" fill="#1FC34D"/>
    <path d="M109.1 13H46.7C41.45 13 37.1 17.35 37.1 22.6V84.7H20V88C20 93.25 24.35 97.6 29.6 97.6C29.9 97.6 30.2 97.6 30.5 97.6H93.05H93.35C98.6 97.45 102.8 93.25 102.8 88V25.9H117.5V24.85C117.5 24.85 117.5 22.6 117.5 21.85C117.5 16.75 113.9 13 109.1 13ZM29.6 95.35C25.55 95.35 22.25 92.05 22.25 88V86.95H36.95V88C36.95 92.05 33.65 95.35 29.6 95.35ZM100.4 88C100.4 92.05 97.1 95.35 93.05 95.35H35.75C37.85 93.55 39.2 91 39.2 88V85.75V22.6C39.2 18.55 42.5 15.25 46.55 15.25C50.6 15.25 53.9 18.55 53.9 22.6C53.9 23.2 53.75 23.95 53.6 24.55L53.3 25.75L54.5 25.9H100.4V88ZM115.25 23.65H56.15C56.15 23.2 56.3 22.9 56.3 22.6C56.3 19.6 54.95 16.9 52.85 15.25H109.4C113 15.25 115.55 18.1 115.55 21.85C115.25 22.3 115.25 23.05 115.25 23.65Z" fill="#1FC34D"/>
    <path d="M57.6508 67.3492C59.6008 67.3492 61.2508 65.6992 61.2508 63.7492C61.2508 63.1492 61.1008 62.6992 60.9508 62.2492L68.3008 54.8992C68.7508 55.1992 69.3508 55.1992 69.8008 55.1992C71.3008 55.1992 72.6508 54.1492 73.1008 52.7992H79.4008C79.8508 54.1492 81.2008 55.1992 82.7008 55.1992C84.6508 55.1992 86.3008 53.5492 86.3008 51.5992C86.3008 50.9992 86.1508 50.5492 85.8508 49.9492L94.1008 41.6992V44.9992H96.3508V37.9492H89.3008V40.1992H92.6008L84.3508 48.4492C83.9008 48.1492 83.3008 47.9992 82.7008 47.9992C81.2008 47.9992 79.8508 49.0492 79.4008 50.5492H73.1008C72.6508 49.0492 71.3008 47.9992 69.8008 47.9992C67.8508 47.9992 66.2008 49.6492 66.2008 51.5992C66.2008 52.1992 66.3508 52.6492 66.6508 53.2492L59.3008 60.5992C58.8508 60.2992 58.2508 60.1492 57.6508 60.1492C55.7008 60.1492 54.0508 61.7992 54.0508 63.7492C54.0508 65.6992 55.7008 67.3492 57.6508 67.3492ZM82.8508 50.2492C83.1508 50.2492 83.6008 50.3992 83.7508 50.6992C84.0508 50.9992 84.2008 51.2992 84.2008 51.5992C84.2008 52.3492 83.6008 52.9492 82.8508 52.9492C82.1008 52.9492 81.5008 52.3492 81.5008 51.5992C81.5008 50.8492 82.1008 50.2492 82.8508 50.2492ZM69.8008 50.2492C70.5508 50.2492 71.1508 50.8492 71.1508 51.5992C71.1508 52.3492 70.5508 52.9492 69.8008 52.9492C69.5008 52.9492 69.2008 52.7992 68.9008 52.6492C68.6008 52.3492 68.4508 52.0492 68.4508 51.7492C68.4508 50.8492 69.0508 50.2492 69.8008 50.2492ZM57.6508 62.3992C58.4008 62.3992 59.0008 62.9992 59.0008 63.7492C59.0008 64.4992 58.4008 65.0992 57.6508 65.0992C56.9008 65.0992 56.3008 64.4992 56.3008 63.7492C56.3008 62.9992 56.9008 62.3992 57.6508 62.3992Z" fill="#1FC34D"/>
  </symbol>

  <symbol id="icon-benefits-3" viewBox="0 0 140 112" fill="none" xmlns="http://www.w3.org/2000/svg">
    <circle cx="68" cy="55" r="40" fill="#E2F7E8"/>
    <path d="M119.183 38.5148L109.634 33.5127L104.632 43.0622L106.602 44.1232L109.937 37.7569C117.97 57.3106 111.604 79.7443 94.021 92.0222C73.5578 106.422 45.2126 101.42 30.8126 81.1085C23.8399 71.1043 21.1115 58.978 23.2336 47.0032L21.2631 46.3969C18.9894 58.978 21.7178 71.8622 29.1452 82.3211C38.3915 95.3569 53.0947 102.481 68.101 102.481C77.4989 102.481 87.1999 99.6011 95.3852 93.8411C113.423 81.1085 120.244 57.9169 112.362 37.6053L117.97 40.6369L119.183 38.5148Z" fill="#1FC34D"/>
    <path d="M36.2695 32.7548L35.6632 30.6327L28.2358 32.7548C37.9368 15.02 58.0968 5.9253 77.9537 10.4727C87.9579 12.7464 97.0526 18.5064 103.419 26.54L105.238 25.1758C98.5684 16.6874 89.019 10.6242 78.4084 8.19899C57.6421 3.50004 36.5726 12.8979 26.4169 31.3906L24.4463 24.2664L22.3242 24.8727L25.3558 35.7864L36.2695 32.7548Z" fill="#1FC34D"/>
    <path d="M47.79 60.3419C44.4553 61.0998 41.8785 63.8282 41.1206 67.163L38.6953 80.0472H97.2048L94.7795 67.163C94.1732 63.8282 91.5964 61.0998 88.2616 60.3419L78.1058 57.9166L74.7711 51.5503C76.7416 49.5798 77.9543 46.6998 78.1058 43.2135C79.0153 42.4556 80.6827 40.4851 80.6827 38.363C80.6827 36.6956 79.7732 35.9377 79.0153 35.7861L79.3185 33.2093C79.47 30.0261 78.2574 28.2072 77.0448 27.4493C77.9543 25.9335 77.6511 24.8724 77.6511 24.7209L77.1964 23.2051L75.8321 24.1146C75.2258 24.5693 74.6195 24.8724 74.1648 24.8724C73.8616 24.8724 73.71 24.7209 73.71 24.7209C71.5879 23.6598 67.1922 23.3567 66.7374 23.3567C62.6448 23.3567 60.6743 25.4788 59.9164 26.9946C55.8237 27.7524 56.1269 32.2998 56.1269 34.2703C56.1269 34.5735 56.1269 34.8767 56.1269 35.1798C56.1269 35.483 56.1269 35.7861 56.1269 36.0893C55.369 36.3924 54.6111 37.1503 54.6111 38.6661C54.6111 40.7882 56.43 42.7588 57.1879 43.5167C57.3395 46.8514 58.5522 49.7314 60.5227 51.7019L57.1879 58.3714L47.79 60.3419ZM41.5753 77.9251L43.5458 67.7693C44.0006 65.1924 45.9711 63.2219 48.3964 62.6156L57.0364 60.6451L61.7353 77.9251H41.5753ZM65.8279 63.2219H69.4658L68.7079 64.5861H66.5858L65.8279 63.2219ZM65.8279 77.9251L66.889 66.8598H68.2532L69.3143 77.9251H65.8279ZM92.6574 67.6177L94.6279 77.7735H73.4069L78.1058 60.3419L87.8069 62.6156C90.3837 63.2219 92.2027 65.1924 92.6574 67.6177ZM59.31 42.9103V42.4556L58.8553 42.1524C58.249 41.6977 56.5816 40.0303 56.7332 38.6661C56.7332 38.5145 56.7332 38.363 56.7332 38.2114C57.1879 38.2114 57.6427 37.9082 57.9458 37.6051C58.249 37.3019 58.4006 36.8472 58.4006 36.3924C58.4006 35.9377 58.249 35.6346 58.249 35.1798C58.249 34.8767 58.249 34.5735 58.249 34.1188C58.0974 30.784 58.4006 29.1167 60.6743 29.1167H61.5837L61.7353 28.2072C61.7353 27.904 62.3416 25.4788 66.4343 25.4788C67.6469 25.4788 70.9816 25.9335 72.4974 26.5398C72.649 26.5398 73.2553 26.9946 74.4679 26.843L74.3164 26.9946L72.9521 28.5103L75.0743 28.8135C75.2258 28.8135 77.0448 29.2682 76.8932 32.9061L76.59 36.3924C76.59 36.8472 76.7416 37.1503 76.8932 37.4535C77.1964 37.7567 77.4995 37.9082 77.9543 37.9082H78.2574C78.2574 38.0598 78.2574 38.0598 78.2574 38.363C78.2574 39.5756 76.59 41.3945 76.1353 41.8493L75.6806 42.1524V42.6072C75.6806 48.064 72.1943 52.1567 67.4953 52.1567C62.9479 52.3082 59.4616 48.3672 59.31 42.9103ZM67.6469 54.5819C69.6174 54.5819 71.4364 53.9756 72.9521 53.0661L76.1353 59.1293L71.4364 76.5609L70.3753 65.9503L72.1943 62.6156C72.3458 62.3124 72.3458 61.8577 72.1943 61.5545C72.0427 61.2514 71.5879 60.9482 71.2848 60.9482H63.7058C63.2511 60.9482 62.9479 61.0998 62.7964 61.5545C62.6448 61.8577 62.6448 62.3124 62.7964 62.6156L64.6153 65.7988L63.5543 76.4093L59.0069 59.2809L62.19 53.0661C63.8574 53.9756 65.6764 54.5819 67.6469 54.5819Z" fill="#1FC34D"/>
    <circle cx="117" cy="20" r="16" fill="#E2F7E8"/>
  </symbol>

  <symbol id="icon-benefits-4" viewBox="0 0 140 112" fill="none" xmlns="http://www.w3.org/2000/svg">
    <circle cx="24" cy="95" r="16" fill="#E2F7E8"/>
    <circle cx="70" cy="55" r="40" fill="#E2F7E8"/>
    <path d="M91.4996 63.0996C87.2996 63.0996 83.8496 66.5496 83.8496 70.7496C83.8496 74.9496 87.2996 78.3996 91.4996 78.3996C95.6996 78.3996 99.1496 74.9496 99.1496 70.7496C99.2996 66.5496 95.8496 63.0996 91.4996 63.0996ZM91.4996 76.2996C88.4996 76.2996 85.9496 73.8996 85.9496 70.7496C85.9496 67.7496 88.3496 65.1996 91.4996 65.1996C94.4996 65.1996 97.0496 67.5996 97.0496 70.7496C97.0496 73.8996 94.6496 76.2996 91.4996 76.2996Z" fill="#1FC34D"/>
    <path d="M91.5 53.05C81.9 53.05 73.8 58.6 69.9 66.7L49.35 57.7C49.95 55.9 50.4 53.95 50.4 52C50.4 50.35 50.1 48.55 49.65 47.05L75.15 33.4C78.6 38.8 84.6 42.4 91.5 42.4C102.15 42.4 110.85 33.7 110.85 23.05C110.85 12.4 102.15 4 91.5 4C80.85 4 72.15 12.7 72.15 23.35C72.15 26.35 72.9 29.2 74.1 31.6L48.9 45.1C46.35 39.7 40.65 35.95 34.35 35.95C25.35 35.95 18 43.15 18 52.15C18 61.15 25.35 68.35 34.2 68.35C40.35 68.35 45.75 64.9 48.45 59.8L69 68.8C68.1 71.35 67.5 74.05 67.5 77.05C67.5 90.25 78.3 101.05 91.5 101.05C104.7 101.05 115.5 90.25 115.5 77.05C115.5 63.85 104.7 53.05 91.5 53.05ZM81.15 36.85V33.7C81.15 30.7 83.4 28.15 86.4 27.85L89.85 34.3H93.15L96.6 27.85C99.6 28.15 101.85 30.7 101.85 33.7V36.85C99 39.1 95.4 40.45 91.5 40.45C87.6 40.45 84 39.1 81.15 36.85ZM91.5 6.25C100.95 6.25 108.6 13.9 108.6 23.35C108.6 27.85 106.95 31.75 104.1 34.9V33.7C104.1 29.2 100.5 25.6 96 25.6H95.4L91.95 32.2H91.35L87.9 25.75H87C82.5 25.75 78.9 29.35 78.9 33.85V34.9C76.2 31.9 74.4 27.85 74.4 23.35C74.4 13.9 82.05 6.25 91.5 6.25ZM25.8 63.25V60.85C25.8 58.45 27.6 56.5 29.85 56.2L32.7 61.6H35.7L38.55 56.2C40.8 56.5 42.6 58.45 42.6 60.85V63.25C40.2 65.05 37.35 66.1 34.2 66.1C31.05 66.1 28.2 65.05 25.8 63.25ZM44.85 61.15V60.85C44.85 57.1 41.7 53.95 37.95 53.95H37.35L34.5 59.35H34.2L31.35 53.95H30.45C26.7 53.95 23.55 57.1 23.55 60.85V61.15C21.45 58.75 20.25 55.6 20.25 52.15C20.25 44.5 26.55 38.2 34.2 38.2C41.85 38.2 48.15 44.5 48.15 52.15C48.3 55.6 46.95 58.75 44.85 61.15ZM78.3 94.15V90.1C78.3 86.05 81.45 82.75 85.35 82.45L89.7 90.55H93.6L97.95 82.45C101.85 82.75 105 86.05 105 90.1V94.15C101.25 97 96.75 98.8 91.65 98.8C86.55 98.65 81.9 97 78.3 94.15ZM107.1 92.2V90.25C107.1 84.85 102.6 80.35 97.2 80.35H96.6L92.25 88.45H91.05L86.55 80.2H85.95C80.55 80.2 76.05 84.7 76.05 90.1V92.2C72.3 88.3 69.9 82.9 69.9 77.05C69.9 65.05 79.65 55.3 91.65 55.3C103.65 55.3 113.4 65.05 113.4 77.05C113.25 82.9 110.85 88.15 107.1 92.2Z" fill="#1FC34D"/>
    <path d="M34.2004 42.5498C31.2004 42.5498 28.6504 44.9498 28.6504 48.0998C28.6504 51.0998 31.0504 53.6498 34.2004 53.6498C37.3504 53.6498 39.7504 51.2498 39.7504 48.0998C39.7504 44.9498 37.2004 42.5498 34.2004 42.5498ZM34.2004 51.2498C32.4004 51.2498 30.9004 49.7498 30.9004 47.9498C30.9004 46.1498 32.4004 44.6498 34.2004 44.6498C36.0004 44.6498 37.5004 46.1498 37.5004 47.9498C37.5004 49.8998 36.0004 51.2498 34.2004 51.2498Z" fill="#1FC34D"/>
    <path d="M91.5008 24.6998C94.9508 24.6998 97.9508 21.8498 97.9508 18.2498C97.9508 14.7998 95.1008 11.7998 91.5008 11.7998C88.0508 11.7998 85.0508 14.6498 85.0508 18.2498C85.2008 21.8498 88.0508 24.6998 91.5008 24.6998ZM91.5008 14.1998C93.7508 14.1998 95.7008 15.9998 95.7008 18.3998C95.7008 20.6498 93.9008 22.5998 91.5008 22.5998C89.2508 22.5998 87.3008 20.7998 87.3008 18.3998C87.4508 15.9998 89.2508 14.1998 91.5008 14.1998Z" fill="#1FC34D"/>
  </symbol>

  <symbol id="icon-benefits-5" viewBox="0 0 140 112" fill="none" xmlns="http://www.w3.org/2000/svg">
    <circle cx="122" cy="24" r="16" fill="#E2F7E8"/>
    <circle cx="70" cy="55" r="40" fill="#E2F7E8"/>
    <path d="M108.05 76.4502C107.15 71.8002 103.7 68.2002 99.0504 67.0002L84.2004 63.5502L79.1004 53.9502C82.1004 51.1002 83.9004 46.9002 84.0504 41.9502C85.1004 40.9002 87.8004 38.2002 87.8004 35.2002C87.8004 32.3502 86.0004 31.9002 85.2504 31.9002L85.7004 27.7002C86.0004 22.6002 83.9004 20.5002 82.2504 19.6002C83.7504 17.3502 83.4504 15.8502 83.3004 15.5502L82.8504 14.0502L81.5004 14.9502C80.6004 15.7002 79.5504 16.0002 78.8004 16.0002C78.2004 16.0002 77.9004 15.8502 77.9004 15.8502C74.9004 14.3502 68.4504 14.0502 68.1504 13.9002C61.7004 13.9002 59.6004 17.5002 58.8504 19.1502C58.1004 19.3002 57.3504 19.4502 56.7504 19.9002C53.1504 16.3002 48.5004 14.0502 43.5504 13.4502L43.2504 15.7002C47.7504 16.3002 51.8004 18.2502 55.1004 21.4002C54.0504 22.9002 53.6004 25.0002 53.6004 26.8002C51.0504 23.3502 47.0004 20.9502 42.6504 20.3502L42.3504 22.6002C47.3004 23.2002 51.6504 26.5002 53.4504 31.1502C53.4504 31.3002 53.6004 31.4502 53.6004 31.6002C53.6004 31.7502 53.6004 32.0502 53.6004 32.2002C52.8504 32.3502 51.3504 32.9502 51.3504 35.5002C51.3504 37.6002 52.5504 39.5502 53.7504 40.9002C52.1004 46.0002 47.6004 49.7502 42.2004 50.5002L42.5004 52.7502C48.0504 52.0002 52.8504 48.5502 55.1004 43.4502C55.2504 45.7002 55.8504 47.8002 56.7504 49.6002C53.4504 53.8002 48.5004 56.6502 43.1004 57.4002L43.4004 59.6502C49.1004 58.9002 54.2004 56.0502 57.9504 51.7002C58.5504 52.6002 59.1504 53.3502 59.9004 54.1002L54.8004 64.0002L41.4504 67.1502C36.8004 68.2002 33.3504 71.9502 32.4504 76.6002L29.1504 94.3002H111.5L108.05 76.4502ZM57.5004 41.8002V41.3502L57.0504 40.9002C56.1504 40.1502 53.7504 37.6002 53.7504 35.6502C53.7504 34.6002 54.0504 34.6002 54.2004 34.6002C54.8004 34.6002 55.2504 34.3002 55.5504 34.0002C55.8504 33.5502 56.0004 33.1002 56.0004 32.5002C55.8504 31.9002 55.8504 31.3002 55.8504 30.7002C55.8504 30.2502 55.8504 29.8002 55.8504 29.2002C55.7004 25.1502 55.8504 21.7002 59.7504 21.4002H60.6504L60.8004 20.5002C60.8004 20.5002 61.5504 16.3002 68.0004 16.3002C69.6504 16.4502 74.6004 16.9002 76.8504 17.9502C77.0004 17.9502 77.7504 18.4002 78.8004 18.4002C79.2504 18.4002 79.8504 18.4002 80.4504 18.1002C80.1504 18.5502 79.8504 18.8502 79.5504 19.4502L78.2004 21.1002L80.3004 21.4002C80.4504 21.4002 83.6004 21.8502 83.4504 27.7002L83.0004 32.6502C83.0004 33.1002 83.1504 33.5502 83.4504 33.8502C83.7504 34.1502 84.2004 34.3002 84.6504 34.3002H84.9504C85.1004 34.3002 85.1004 34.3002 85.2504 34.3002C85.5504 34.3002 85.7004 34.9002 85.7004 35.3502C85.7004 37.4502 83.3004 39.8502 82.4004 40.6002L81.8004 40.9002V41.3502C81.8004 49.4502 76.7004 55.4502 69.6504 55.4502C62.7504 55.6002 57.5004 49.7502 57.5004 41.8002ZM32.0004 92.0502L34.8504 77.0502C35.6004 73.3002 38.4504 70.3002 42.2004 69.4002L55.1004 66.4002L62.0004 92.0502H32.0004ZM66.6504 92.0502L68.1504 75.4002H71.0004L72.5004 92.0502H66.6504ZM66.2004 70.1502H73.1004L71.4504 73.0002H67.8504L66.2004 70.1502ZM73.2504 74.3502L75.9504 69.5502C76.1004 69.2502 76.1004 68.8002 75.9504 68.3502C75.8004 68.0502 75.3504 67.7502 75.0504 67.7502H64.2504C63.8004 67.7502 63.5004 67.9002 63.3504 68.3502C63.2004 68.6502 63.2004 69.1002 63.3504 69.5502L66.0504 74.3502L64.4004 91.9002H64.2504L57.0504 65.0502L62.0004 55.4502C64.2504 56.9502 66.8004 57.7002 69.6504 57.7002C72.6504 57.7002 75.2004 56.8002 77.4504 55.3002L82.4004 64.6002L75.0504 91.9002H74.9004L73.2504 74.3502ZM84.3504 65.9502L98.6004 69.2502C102.35 70.1502 105.2 73.1502 105.95 76.9002L108.8 92.0502H77.3004L84.3504 65.9502Z" fill="#1FC34D"/>
    <path d="M41.5996 10H39.3496V25.15H41.5996V10Z" fill="#1FC34D"/>
    <path d="M41.5996 47.9502H39.3496V61.7502H41.5996V47.9502Z" fill="#1FC34D"/>
    <path d="M29.15 35.3496H14V37.5996H29.15V35.3496Z" fill="#1FC34D"/>
    <path d="M37.6992 15.7002L37.3992 13.4502C27.0492 14.8002 18.7992 23.0502 17.4492 33.4002L19.6992 33.7002C20.8992 24.4002 28.3992 16.9002 37.6992 15.7002Z" fill="#1FC34D"/>
    <path d="M37.6992 57.4C28.2492 56.2 20.8992 48.7 19.6992 39.25L17.4492 39.55C18.7992 50.05 27.0492 58.3 37.3992 59.65L37.6992 57.4Z" fill="#1FC34D"/>
    <path d="M24.3496 34.2996L26.5996 34.5996C27.4996 28.2996 32.4496 23.3496 38.7496 22.5996L38.4496 20.3496C31.0996 21.2496 25.2496 27.0996 24.3496 34.2996Z" fill="#1FC34D"/>
    <path d="M26.5996 38.3496L24.3496 38.6496C25.2496 45.9996 31.0996 51.6996 38.4496 52.7496L38.7496 50.4996C32.2996 49.5996 27.3496 44.6496 26.5996 38.3496Z" fill="#1FC34D"/>
    <path d="M46.9996 36.5496C46.9996 32.9496 44.1496 30.0996 40.5496 30.0996C36.9496 30.0996 34.0996 32.9496 34.0996 36.5496C34.0996 40.1496 36.9496 42.9996 40.5496 42.9996C43.9996 42.9996 46.9996 40.1496 46.9996 36.5496ZM40.5496 40.7496C38.2996 40.7496 36.3496 38.7996 36.3496 36.5496C36.3496 34.2996 38.2996 32.3496 40.5496 32.3496C42.7996 32.3496 44.7496 34.2996 44.7496 36.5496C44.7496 38.7996 42.7996 40.7496 40.5496 40.7496Z" fill="#1FC34D"/>
  </symbol>

  <symbol id="icon-targeting-1" viewBox="0 0 120 112" fill="none" xmlns="http://www.w3.org/2000/svg">
    <circle cx="50" cy="58" r="40" fill="#E2F7E8"/>
    <circle cx="99" cy="24" r="16" fill="#E2F7E8"/>
    <path d="M27.4507 36.0727C32.2507 36.0727 36.0007 32.1727 36.0007 27.5227C36.0007 22.7227 32.1007 18.9727 27.4507 18.9727C22.6507 18.9727 18.9007 22.8727 18.9007 27.5227C18.7507 32.1727 22.6507 36.0727 27.4507 36.0727ZM27.4507 21.2227C30.9007 21.2227 33.7507 24.0727 33.7507 27.5227C33.7507 30.9727 30.9007 33.8227 27.4507 33.8227C24.0007 33.8227 21.1507 30.9727 21.1507 27.5227C21.0007 24.0727 23.8507 21.2227 27.4507 21.2227Z" fill="#1FC34D"/>
    <path d="M97.65 22.5732L65.7 8.17321H65.55C65.4 8.17321 65.4 8.17321 65.25 8.17321C65.1 8.17321 65.1 8.17321 64.95 8.17321H64.8L41.1 18.6732C38.25 14.1732 33.15 11.1732 27.45 11.1732C23.55 11.1732 19.8 12.6732 17.1 14.9232L1.65 8.17321C1.35 7.87321 0.9 8.02321 0.6 8.17321C0.3 8.32321 0 8.77321 0 9.07321V81.2232C0 81.6732 0.3 82.1232 0.6 82.2732L32.55 96.6732C32.7 96.6732 32.85 96.8232 33 96.8232C33.15 96.8232 33.3 96.8232 33.45 96.6732L47.1 90.5232C49.35 98.3232 56.55 104.023 64.95 104.023C69.9 104.023 74.7 102.073 78.15 98.4732C80.4 96.2232 82.05 93.5232 82.8 90.5232L96.45 96.6732C96.6 96.6732 96.75 96.8232 96.9 96.8232C97.05 96.8232 97.35 96.8232 97.5 96.6732C97.8 96.5232 97.95 96.0732 97.95 95.7732V23.4732C98.4 23.1732 98.1 22.7232 97.65 22.5732ZM48.75 85.4232C48.75 83.7732 49.05 82.1232 49.5 80.6232H56.7C56.55 82.1232 56.4 83.7732 56.4 85.4232C56.4 87.0732 56.55 88.7232 56.7 90.2232H49.5C49.05 88.5732 48.75 87.0732 48.75 85.4232ZM65.25 68.9232C67.5 68.9232 70.05 72.5232 71.25 78.3732H59.4C59.7 76.5732 60.3 74.9232 60.9 73.4232C61.95 70.5732 63.6 68.9232 65.25 68.9232ZM58.65 72.5232C57.9 74.1732 57.3 76.2732 56.85 78.3732H50.25C52.2 74.3232 55.8 71.0232 60.15 69.6732C59.7 70.4232 59.25 71.4732 58.65 72.5232ZM58.65 85.4232C58.65 83.7732 58.8 82.1232 58.95 80.6232H71.55C71.7 82.1232 71.85 83.7732 71.85 85.4232C71.85 87.0732 71.7 88.7232 71.55 90.2232H58.95C58.65 88.7232 58.65 87.0732 58.65 85.4232ZM73.8 80.6232H81C81.45 82.1232 81.75 83.7732 81.75 85.4232C81.75 87.0732 81.45 88.7232 81 90.2232H73.8C73.95 88.7232 74.1 87.0732 74.1 85.4232C74.1 83.6232 73.95 82.1232 73.8 80.6232ZM73.35 78.3732C72.6 74.7732 71.55 71.7732 69.9 69.6732C74.25 71.0232 78 74.1732 79.95 78.3732H73.35ZM41.4 27.3732C41.4 35.9232 30.6 48.3732 27.45 51.8232C24.3 48.3732 13.5 35.7732 13.5 27.3732C13.5 19.7232 19.8 13.4232 27.45 13.4232C35.1 13.4232 41.4 19.7232 41.4 27.3732ZM41.85 27.3732H42.45H41.25H41.85ZM2.4 10.8732L15.3 16.7232C12.75 19.5732 11.25 23.3232 11.25 27.3732C11.25 38.1732 25.95 53.6232 26.55 54.2232L27.3 55.1232L28.05 54.2232C28.2 54.0732 29.85 52.4232 31.95 49.8732V93.9732L2.4 80.6232V10.8732ZM34.35 93.9732V47.0232C38.7 41.4732 43.65 33.5232 43.65 27.3732C43.65 24.9732 43.05 22.7232 42.15 20.7732L64.05 10.8732V55.7232V66.8232C54.3 67.4232 46.5 75.5232 46.5 85.4232C46.5 86.4732 46.65 87.3732 46.8 88.4232L34.35 93.9732ZM50.4 92.4732H57C57.75 96.0732 58.8 99.0732 60.45 101.173C55.95 99.6732 52.35 96.5232 50.4 92.4732ZM65.25 101.923C63 101.773 60.45 98.1732 59.25 92.4732H71.1C70.05 98.1732 67.5 101.773 65.25 101.923ZM76.8 96.9732C74.85 98.9232 72.6 100.273 70.05 101.023C71.55 98.9232 72.75 95.9232 73.35 92.3232H79.95C79.2 94.1232 78.15 95.6232 76.8 96.9732ZM96.15 93.9732L83.7 88.4232C83.85 87.3732 84 86.4732 84 85.4232C84 75.5232 76.2 67.4232 66.45 66.8232V55.7232V10.8732L96.15 24.2232V93.9732Z" fill="#1FC34D"/>
  </symbol>

  <symbol id="icon-targeting-2" viewBox="0 0 120 112" fill="none" xmlns="http://www.w3.org/2000/svg">
    <circle cx="52" cy="58" r="40" fill="#E2F7E8"/>
    <circle cx="102" cy="91" r="16" fill="#E2F7E8"/>
    <path d="M85.0484 29.2H85.3484C87.4484 29.2 89.2484 27.7 89.6984 25.75H97.3484V23.5H89.6984C89.0984 21.55 87.2984 20.05 85.1984 20.05H84.8984C82.7984 20.05 80.9984 21.55 80.5484 23.5H46.3484C43.6484 19 38.8484 16 33.2984 16C24.8984 16 18.1484 22.75 18.1484 31.15C18.1484 39.55 24.8984 46.3 33.2984 46.3C38.6984 46.3 43.3484 43.45 46.0484 39.25H59.3984C59.8484 41.2 61.6484 42.7 63.7484 42.7H64.0484C66.1484 42.7 67.9484 41.2 68.3984 39.25H97.1984V37H68.3984C67.9484 35.05 66.1484 33.55 64.0484 33.55H63.7484C61.6484 33.55 59.8484 35.05 59.3984 37H47.2484C47.9984 35.2 48.4484 33.25 48.4484 31.15C48.4484 29.2 48.1484 27.4 47.3984 25.75H80.5484C81.1484 27.7 82.7984 29.2 85.0484 29.2ZM82.7984 24.55C82.7984 23.35 83.8484 22.3 85.0484 22.3H85.3484C86.5484 22.3 87.5984 23.35 87.5984 24.55V24.85C87.5984 26.05 86.5484 27.1 85.3484 27.1H85.0484C83.8484 27.1 82.7984 26.05 82.7984 24.85V24.55ZM61.6484 38.05C61.6484 36.85 62.6984 35.8 63.8984 35.8H64.1984C65.3984 35.8 66.4484 36.85 66.4484 38.05V38.35C66.4484 39.55 65.3984 40.6 64.1984 40.6H63.8984C62.6984 40.6 61.6484 39.55 61.6484 38.35V38.05ZM33.2984 44.05C26.0984 44.05 20.3984 38.2 20.3984 31.15C20.3984 24.1 26.2484 18.25 33.2984 18.25C40.4984 18.25 46.1984 24.1 46.1984 31.15C46.1984 38.2 40.3484 44.05 33.2984 44.05Z" fill="#1FC34D"/>
    <path d="M80.55 47.0508H80.25C78.15 47.0508 76.35 48.5508 75.9 50.5008H54.3L45.15 47.2008L35.25 65.6508H31.2L21.3 47.2008L10.65 50.9508C7.65 52.0008 5.25 54.1008 3.75 56.6508C2.25 59.2008 1.5 61.7508 1.5 64.1508C1.5 64.3008 0.3 92.3508 0 102.251V103.451H66.45V102.251C66.15 94.9008 65.4 69.5508 65.1 66.1008H69.45C69.9 68.0508 71.7 69.5508 73.8 69.5508H74.1C76.2 69.5508 78 68.0508 78.45 66.1008H97.05V63.8508H78.45C78 62.0508 76.35 60.5508 74.1 60.5508H73.8C71.7 60.5508 69.9 62.0508 69.45 64.0008H64.8C64.8 61.6008 64.05 59.2008 62.55 56.6508C61.65 55.1508 60.45 53.6508 58.95 52.6008H75.75C76.2 54.5508 78 56.0508 80.1 56.0508H80.4C82.5 56.0508 84.3 54.5508 84.75 52.6008H97.05V50.3508H84.75C84.45 48.5508 82.65 47.0508 80.55 47.0508ZM71.7 65.0508C71.7 63.8508 72.75 62.8008 73.95 62.8008H74.25C75.45 62.8008 76.5 63.8508 76.5 65.0508V65.3508C76.5 66.5508 75.45 67.6008 74.25 67.6008H73.95C72.75 67.6008 71.7 66.5508 71.7 65.3508V65.0508ZM60.75 57.8508C62.1 60.1008 62.7 62.3508 62.7 64.4508C62.7 64.6008 63.75 91.9008 64.2 101.201H54.6L53.85 71.8008L51.6 71.9508L52.35 101.351H14.25L15 71.9508L12.75 71.8008L11.85 101.351H2.4C2.85 91.9008 3.9 64.6008 3.9 64.4508C3.9 61.9008 4.95 59.5008 5.85 57.8508C7.05 55.7508 9.15 54.1008 11.55 53.2008L20.4 50.0508L29.85 67.9008H36.6L46.2 50.0508L55.05 53.2008C57.45 54.1008 59.55 55.7508 60.75 57.8508ZM82.8 51.8508C82.8 53.0508 81.75 54.1008 80.55 54.1008H80.25C79.05 54.1008 78 53.0508 78 51.8508V51.5508C78 50.3508 79.05 49.3008 80.25 49.3008H80.55C81.75 49.3008 82.8 50.3508 82.8 51.5508V51.8508Z" fill="#1FC34D"/>
  </symbol>

  <symbol id="icon-targeting-3" viewBox="0 0 120 112" fill="none" xmlns="http://www.w3.org/2000/svg">
    <circle cx="50" cy="58" r="40" fill="#E2F7E8"/>
    <circle cx="100" cy="24" r="16" fill="#E2F7E8"/>
    <path d="M41.5493 57.1492C39.2993 52.4992 36.8993 45.5992 38.2493 39.2992C39.1493 34.6492 42.1493 30.8992 46.9493 27.8992L45.8993 25.9492C40.3493 29.2492 37.1993 33.5992 36.1493 38.8492C34.6493 45.7492 37.1993 53.2492 39.5993 58.1992L41.5493 57.1492Z" fill="#1FC34D"/>
    <path d="M80.4008 87.0008C82.2008 85.9508 83.4008 84.0008 83.4008 81.6008V80.8508C83.4008 77.4008 80.5508 74.5508 77.1008 74.5508H39.0008C35.5508 74.5508 32.7008 77.4008 32.7008 80.8508V81.6008C32.7008 83.8508 33.9008 85.8008 35.7008 86.8508C31.5008 90.6008 28.8008 95.7008 28.8008 100.201C28.8008 102.301 31.3508 104.101 33.3008 104.101H82.6508C84.7508 104.101 87.1508 102.451 87.1508 100.201C87.3008 96.0008 84.6008 90.7508 80.4008 87.0008ZM34.9508 80.8508C34.9508 78.6008 36.7508 76.8008 39.0008 76.8008H77.2508C79.5008 76.8008 81.3008 78.6008 81.3008 80.8508V81.6008C81.3008 83.8508 79.5008 85.6508 77.2508 85.6508H39.0008C36.7508 85.6508 34.9508 83.8508 34.9508 81.6008V80.8508ZM82.6508 102.001H33.3008C32.2508 102.001 31.0508 100.951 31.0508 100.351C30.9008 96.3008 33.7508 91.3508 37.9508 88.0508H78.1508C82.3508 91.3508 85.0508 96.3008 85.0508 100.351C84.9008 100.951 83.7008 102.001 82.6508 102.001Z" fill="#1FC34D"/>
    <path d="M32.55 60.6C34.95 66.3 37.65 70.2 37.95 70.5L38.25 70.95H78.75V69.75C78 57.15 69.6 49.2 67.05 47.1C65.25 45.6 64.2 43.95 63.75 42.75C69.75 46.05 73.95 46.8 76.35 46.8C78.75 46.8 79.95 46.05 79.95 46.05C82.35 44.85 85.05 40.65 85.05 36.9C85.05 34.35 83.7 32.25 81.15 31.35C75.3 28.95 68.25 17.7 68.1 17.55L67.95 17.25L67.65 17.1C65.1 15.9 61.8 15.75 60.15 15.75V6L58.95 6.15C48.45 6.9 43.8 16.65 42.9 18.75C39.45 20.85 36.75 23.4 34.5 26.1C32.85 25.05 31.05 24.3 29.25 23.85L28.35 18.9H20.4L19.5 23.85C17.7 24.3 15.9 25.05 14.25 25.95L10.05 22.8L4.35 28.35L7.2 32.55C6.15 34.2 5.55 35.85 4.95 37.65L0 38.55V46.5L4.95 47.4C5.4 49.2 6.15 51 7.05 52.65L4.2 56.7L9.75 62.4L13.95 59.55C15.6 60.45 17.25 61.2 19.05 61.8L19.95 66.75H27.9L28.8 61.8C30.15 61.65 31.35 61.2 32.55 60.6ZM44.4 20.4L44.7 20.25L44.85 19.8C44.85 19.65 48.75 9.75 57.9 8.4V18H59.1C59.1 18 59.25 18 59.55 18C60.6 18 63.9 18.15 66.45 19.05C67.65 21 74.25 30.9 80.25 33.45C81.9 34.2 82.65 35.25 82.65 37.05C82.65 40.05 80.4 43.5 78.75 44.25C78.75 44.25 74.1 46.65 62.4 39.75L60.9 38.7V40.65C60.9 40.8 60.9 45.15 65.55 48.9C67.8 50.85 75.3 57.75 76.35 68.7H39.3C37.5 65.85 28.5 51.3 31.35 37.5C32.85 30.45 37.2 24.75 44.4 20.4ZM29.1 49.5C27.6 50.55 25.95 51.15 24.15 51.15C21.9 51.15 19.8 50.25 18.3 48.6C16.8 46.95 15.9 44.85 15.9 42.6C15.9 40.35 16.8 38.25 18.45 36.75C20.1 35.25 22.05 34.35 24.3 34.35C26.25 34.35 28.05 35.1 29.55 36.3C29.55 36.6 29.4 36.9 29.4 37.2C28.35 41.25 28.5 45.45 29.1 49.5ZM27.75 59.85L27 60L26.1 64.5H21.9L21.15 60L20.4 59.85C18.3 59.4 16.35 58.5 14.55 57.45L13.95 57L10.05 59.55L7.05 56.55L9.9 52.8L9.45 52.2C8.25 50.4 7.5 48.45 7.05 46.35L6.9 45.6L2.4 44.7V40.5L6.9 39.75L7.05 39C7.5 36.9 8.25 34.95 9.45 33.15L9.9 32.55L7.35 28.8L10.35 25.8L14.1 28.5L14.7 28.05C16.5 26.85 18.45 26.1 20.55 25.65L21.3 25.5L22.2 21H26.4L27.15 25.5L27.9 25.65C29.7 26.1 31.5 26.7 33.15 27.75C31.8 29.7 30.75 31.8 30.15 33.9C28.5 32.7 26.4 32.1 24.3 32.1C21.45 32.1 18.75 33.15 16.8 35.1C14.85 37.05 13.65 39.75 13.65 42.6C13.65 45.45 14.7 48.15 16.65 50.1C18.6 52.05 21.3 53.25 24.15 53.25C26.1 53.25 27.9 52.8 29.55 51.75C30.15 54.15 30.75 56.4 31.65 58.35C30.45 59.1 29.1 59.55 27.75 59.85Z" fill="#1FC34D"/>
  </symbol>

  <symbol id="icon-targeting-4" viewBox="0 0 120 112" fill="none" xmlns="http://www.w3.org/2000/svg">
    <circle cx="50" cy="58" r="40" fill="#E2F7E8"/>
    <circle cx="101" cy="91" r="16" fill="#E2F7E8"/>
    <path d="M86.85 32.85C86.4 29.85 84 20.1 72.75 20.1C71.25 20.1 69.6 20.4 68.25 20.85C65.25 12 57 6 47.55 6C37.8 6 29.1 12.6 26.55 21.9C25.35 21.6 23.25 21.3 21.75 21.3C9.75 21.3 0 31.05 0 43.05C0 50.25 3.6 57 9.6 61.05C10.2 66.6 12.6 71.85 16.95 76.05C21.75 80.85 28.2 83.55 35.1 83.55C40.35 83.55 45.45 81.9 49.65 79.05L56.1 85.5L53.4 88.2L66.75 101.55C68.4 103.2 70.65 104.1 72.75 104.1C75 104.1 77.1 103.2 78.75 101.55C80.4 99.9 81.3 97.8 81.3 95.55C81.3 93.3 80.4 91.2 78.75 89.55L65.4 76.2L62.7 78.9L56.25 72.45C58.2 69.6 59.55 66.45 60.3 63.15C62.55 64.8 65.25 65.7 68.1 65.7C71.85 65.7 75.3 64.05 77.7 61.5C79.5 62.25 81.3 62.55 83.25 62.55C91.5 62.55 98.4 55.8 98.4 47.4C98.1 40.5 93.3 34.5 86.85 32.85ZM62.55 82.05L65.25 79.35L76.95 91.05C78.15 92.25 78.75 93.75 78.75 95.55C78.75 97.2 78.15 98.85 76.95 100.05C74.55 102.45 70.5 102.45 68.1 100.05L56.4 88.35L59.1 85.65L51.3 77.7C51.9 77.25 52.5 76.65 53.1 76.05C53.7 75.45 54.15 74.85 54.75 74.25L62.55 82.05ZM51.45 74.4C47.1 78.75 41.1 81.3 34.95 81.3C28.8 81.3 22.8 78.9 18.45 74.4C9.3 65.25 9.3 50.4 18.45 41.4C22.8 37.05 28.8 34.5 34.95 34.5C41.1 34.5 47.1 36.9 51.45 41.4C60.6 50.55 60.6 65.25 51.45 74.4ZM82.95 60.3C81.6 60.3 80.1 60 78.9 59.7C79.5 58.65 80.1 57.6 80.4 56.4L78.15 55.65C76.8 60.3 72.6 63.45 67.8 63.45C65.1 63.45 62.4 62.4 60.45 60.45C61.2 53.1 58.8 45.3 53.1 39.75C48.3 34.95 41.85 32.25 34.95 32.25C28.05 32.25 21.6 34.95 16.8 39.75C11.85 44.7 9.3 51.3 9.3 57.9C4.8 54.15 2.25 48.75 2.25 42.9C2.25 32.1 10.95 23.4 21.75 23.4C23.55 23.4 27 24.15 27.15 24.15L28.2 24.45L28.5 23.4C30.45 14.55 38.55 8.1 47.55 8.1C56.4 8.1 64.2 14.1 66.45 22.5C66.9 24.15 67.05 25.8 67.05 27.6H69.3C69.3 25.95 69.15 24.45 68.85 22.95C70.05 22.5 71.4 22.35 72.75 22.35C83.85 22.35 84.6 33.45 84.75 33.9V34.8L85.65 34.95C91.65 36.15 95.85 41.4 95.85 47.55C95.85 54.45 90 60.3 82.95 60.3Z" fill="#1FC34D"/>
    <path d="M74.1491 95.4391L72.5586 93.8477L70.9672 95.4382L72.5577 97.0296L74.1491 95.4391Z" fill="#1FC34D"/>
    <path d="M70.5461 91.7765L68.9551 90.1855L67.3641 91.7765L68.9551 93.3675L70.5461 91.7765Z" fill="#1FC34D"/>
    <path d="M66.7316 88.1154L65.1406 86.5244L63.5497 88.1154L65.1406 89.7064L66.7316 88.1154Z" fill="#1FC34D"/>
    <path d="M35.1 37.9502C34.95 37.9502 34.95 37.9502 35.1 37.9502C24 37.9502 15 46.9502 15 57.9002C15 63.3002 17.1 68.2502 20.85 72.0002C24.6 75.7502 29.7 77.8502 34.95 77.8502C45.9 77.8502 54.9 68.8502 54.9 57.9002C55.05 46.9502 46.05 37.9502 35.1 37.9502ZM51.15 50.4002H43.8C43.05 46.3502 41.7 43.0502 40.05 40.8002C45 42.3002 48.9 45.9002 51.15 50.4002ZM42.15 57.9002C42.15 59.7002 42 61.5002 41.85 63.1502H28.2C28.05 61.5002 27.9 59.7002 27.9 57.9002C27.9 56.1002 28.05 54.3002 28.2 52.6502H41.85C42 54.3002 42.15 56.1002 42.15 57.9002ZM17.25 57.9002C17.25 56.1002 17.55 54.3002 18 52.6502H25.8C25.65 54.3002 25.5 56.1002 25.5 57.9002C25.5 59.7002 25.65 61.5002 25.8 63.1502H18C17.55 61.5002 17.25 59.7002 17.25 57.9002ZM28.5 50.4002C29.7 44.1002 32.4 40.0502 34.95 40.0502C37.5 40.0502 40.2 44.1002 41.4 50.4002H28.5ZM30 40.9502C28.35 43.2002 27 46.5002 26.25 50.5502H18.9C21 45.9002 25.05 42.3002 30 40.9502ZM18.9 65.4002H26.25C26.7 67.8002 27.3 69.9002 28.05 71.7002C28.65 72.9002 29.25 74.1002 29.85 75.0002C27 74.1002 24.45 72.6002 22.35 70.5002C21 69.0002 19.8 67.2002 18.9 65.4002ZM30.15 70.8002C29.4 69.1502 28.95 67.3502 28.5 65.4002H41.4C40.2 71.7002 37.5 75.7502 34.95 75.7502C33.3 75.6002 31.5 73.9502 30.15 70.8002ZM39.9 75.0002C41.55 72.7502 42.9 69.4502 43.65 65.4002H51C48.9 70.0502 44.85 73.5002 39.9 75.0002ZM51.9 63.1502H44.1C44.25 61.5002 44.4 59.7002 44.4 57.9002C44.4 56.1002 44.25 54.3002 44.1 52.6502H51.9C52.35 54.3002 52.65 56.1002 52.65 57.9002C52.8 59.7002 52.5 61.5002 51.9 63.1502Z" fill="#1FC34D"/>
  </symbol>

  <symbol id="icon-trustpilot-logo" viewBox="0 0 97 24" fill="none" xmlns="http://www.w3.org/2000/svg">
    <path d="M25.4947 8.43848H35.3078V10.2653H31.444V20.5635H29.3262V10.2653H25.4785L25.4947 8.43848ZM34.8875 11.785H36.6982V13.4825H36.7305C36.7952 13.24 36.9083 13.0136 37.07 12.7873C37.2317 12.561 37.4257 12.3508 37.6682 12.173C37.8945 11.979 38.1532 11.8335 38.4442 11.7203C38.719 11.6071 39.01 11.5425 39.301 11.5425C39.5273 11.5425 39.689 11.5586 39.7698 11.5586C39.8507 11.5748 39.9477 11.591 40.0285 11.591V13.4501C39.8992 13.4178 39.7537 13.4016 39.6082 13.3855C39.4627 13.3693 39.3333 13.3531 39.1878 13.3531C38.8645 13.3531 38.5573 13.4178 38.2663 13.5471C37.9753 13.6765 37.7328 13.8705 37.5065 14.113C37.2963 14.3716 37.1185 14.6788 36.9892 15.0506C36.8598 15.4225 36.7952 15.859 36.7952 16.344V20.515H34.8552L34.8875 11.785ZM48.9202 20.5635H47.0125V19.3348H46.9802C46.7377 19.7875 46.382 20.127 45.9132 20.4018C45.4443 20.6766 44.9593 20.806 44.4743 20.806C43.3265 20.806 42.4858 20.5311 41.9685 19.9491C41.4512 19.3833 41.1925 18.5103 41.1925 17.3625V11.785H43.1325V17.1685C43.1325 17.9445 43.278 18.4941 43.5852 18.8013C43.8762 19.1246 44.2965 19.2863 44.83 19.2863C45.2342 19.2863 45.5737 19.2216 45.8485 19.0923C46.1233 18.963 46.3497 18.8013 46.5113 18.5911C46.6892 18.381 46.8023 18.1223 46.8832 17.8313C46.964 17.5403 46.9963 17.217 46.9963 16.8775V11.785H48.9363V20.5635H48.9202ZM52.2182 17.7505C52.2828 18.3163 52.493 18.7043 52.8648 18.9468C53.2367 19.1731 53.6893 19.2863 54.2067 19.2863C54.3845 19.2863 54.5947 19.2701 54.821 19.2378C55.0473 19.2055 55.2737 19.157 55.4677 19.0761C55.6778 18.9953 55.8395 18.8821 55.9688 18.7205C56.0982 18.5588 56.1628 18.3648 56.1467 18.1223C56.1305 17.8798 56.0497 17.6696 55.8718 17.508C55.694 17.3463 55.4838 17.2331 55.2252 17.12C54.9665 17.023 54.6593 16.9421 54.3198 16.8775C53.9803 16.8128 53.6408 16.732 53.2852 16.6511C52.9295 16.5703 52.5738 16.4733 52.2343 16.3601C51.8948 16.247 51.6038 16.1015 51.329 15.8913C51.0703 15.6973 50.844 15.4548 50.6985 15.1476C50.5368 14.8405 50.456 14.4848 50.456 14.0321C50.456 13.5471 50.5692 13.1591 50.8117 12.8358C51.038 12.5125 51.3452 12.2538 51.7008 12.0598C52.0565 11.8658 52.4607 11.7203 52.8972 11.6395C53.3337 11.5586 53.754 11.5263 54.142 11.5263C54.5947 11.5263 55.0312 11.5748 55.4353 11.6718C55.8395 11.7688 56.2275 11.9143 56.5508 12.1406C56.8903 12.3508 57.1652 12.6418 57.3753 12.9813C57.6017 13.3208 57.731 13.7411 57.7957 14.2261H55.7748C55.6778 13.7573 55.4677 13.4501 55.1443 13.2885C54.8048 13.1268 54.433 13.046 53.9965 13.046C53.8672 13.046 53.6893 13.0621 53.5115 13.0783C53.3175 13.1106 53.1558 13.143 52.978 13.2076C52.8163 13.2723 52.6708 13.3693 52.5577 13.4825C52.4445 13.5956 52.3798 13.7573 52.3798 13.9513C52.3798 14.1938 52.4607 14.3716 52.6223 14.5171C52.784 14.6626 52.9942 14.7758 53.269 14.889C53.5277 14.986 53.8348 15.0668 54.1743 15.1315C54.5138 15.1961 54.8695 15.277 55.2252 15.3578C55.5808 15.4386 55.9203 15.5356 56.2598 15.6488C56.5993 15.762 56.9065 15.9075 57.1652 16.1176C57.4238 16.3116 57.6502 16.5541 57.8118 16.8451C57.9735 17.1361 58.0543 17.508 58.0543 17.9283C58.0543 18.4456 57.9412 18.8821 57.6987 19.254C57.4562 19.6096 57.149 19.9168 56.7772 20.1431C56.4053 20.3695 55.9688 20.5311 55.5162 20.6443C55.0473 20.7413 54.5947 20.806 54.142 20.806C53.5923 20.806 53.075 20.7413 52.6062 20.612C52.1373 20.4826 51.717 20.2886 51.3775 20.0461C51.038 19.7875 50.7632 19.4803 50.5692 19.0923C50.3752 18.7205 50.262 18.2678 50.2458 17.7343H52.202V17.7505H52.2182ZM58.604 11.785H60.0752V9.13364H62.0152V11.7688H63.7612V13.2076H62.0152V17.896C62.0152 18.1061 62.0313 18.2678 62.0475 18.4295C62.0637 18.575 62.1122 18.7043 62.1607 18.8013C62.2253 18.8983 62.3223 18.9791 62.4355 19.0276C62.5648 19.0761 62.7265 19.1085 62.9528 19.1085C63.0822 19.1085 63.2277 19.1085 63.357 19.0923C63.4863 19.0761 63.6318 19.06 63.7612 19.0276V20.5311C63.551 20.5635 63.3408 20.5796 63.1307 20.5958C62.9205 20.6281 62.7265 20.6281 62.5002 20.6281C61.9828 20.6281 61.5787 20.5796 61.2715 20.4826C60.9643 20.3856 60.7218 20.2401 60.544 20.0623C60.3662 19.8683 60.253 19.642 60.1883 19.3671C60.1237 19.0923 60.0913 18.7528 60.0752 18.3971V13.2238H58.604V11.7526V11.785ZM65.1191 11.785H66.946V12.9813H66.9783C67.2531 12.464 67.625 12.1083 68.11 11.882C68.595 11.6556 69.1123 11.5425 69.6943 11.5425C70.3895 11.5425 70.9876 11.6556 71.505 11.9143C72.0223 12.1568 72.4426 12.4801 72.7821 12.9166C73.1216 13.337 73.3803 13.8381 73.542 14.404C73.7036 14.9698 73.8006 15.5841 73.8006 16.2146C73.8006 16.8128 73.7198 17.3786 73.5743 17.9283C73.4126 18.478 73.1863 18.9791 72.8791 19.3995C72.572 19.8198 72.184 20.1593 71.699 20.418C71.214 20.6766 70.6643 20.806 70.0176 20.806C69.7428 20.806 69.4518 20.7736 69.177 20.7251C68.9021 20.6766 68.6273 20.5958 68.3686 20.4826C68.11 20.3695 67.8675 20.224 67.6573 20.0461C67.431 19.8683 67.2532 19.6581 67.1077 19.4318H67.0753V23.813H65.1353V11.785H65.1191ZM71.893 16.1823C71.893 15.7943 71.8445 15.4063 71.7313 15.0345C71.6343 14.6626 71.4726 14.3393 71.2625 14.0483C71.0523 13.7573 70.7936 13.531 70.5026 13.3531C70.1955 13.1753 69.8398 13.0945 69.4518 13.0945C68.6435 13.0945 68.0292 13.3693 67.6088 13.9351C67.2047 14.501 66.9945 15.2608 66.9945 16.1985C66.9945 16.6511 67.043 17.0553 67.1561 17.4271C67.2693 17.799 67.4148 18.1223 67.6411 18.3971C67.8513 18.672 68.11 18.8821 68.4172 19.0438C68.7243 19.2055 69.0638 19.2863 69.468 19.2863C69.9206 19.2863 70.2763 19.1893 70.5835 19.0115C70.8906 18.8336 71.1331 18.5911 71.3433 18.3163C71.5373 18.0253 71.6828 17.702 71.7636 17.3301C71.8445 16.9421 71.893 16.5703 71.893 16.1823ZM75.3041 8.43848H77.2441V10.2653H75.3041V8.43848ZM75.3041 11.785H77.2441V20.5635H75.3041V11.785ZM78.974 8.43848H80.914V20.5635H78.974V8.43848ZM86.831 20.806C86.1358 20.806 85.5053 20.6928 84.9556 20.4503C84.406 20.2078 83.9533 19.9006 83.5653 19.4965C83.1935 19.0923 82.9025 18.5911 82.7085 18.0253C82.5145 17.4595 82.4013 16.829 82.4013 16.1661C82.4013 15.5033 82.4983 14.889 82.7085 14.3231C82.9025 13.7573 83.1935 13.2723 83.5653 12.852C83.9371 12.4478 84.406 12.1245 84.9556 11.8981C85.5053 11.6718 86.1358 11.5425 86.831 11.5425C87.5261 11.5425 88.1566 11.6556 88.7063 11.8981C89.256 12.1245 89.7086 12.4478 90.0966 12.852C90.4685 13.2561 90.7595 13.7573 90.9535 14.3231C91.1475 14.889 91.2606 15.5033 91.2606 16.1661C91.2606 16.8451 91.1636 17.4595 90.9535 18.0253C90.7433 18.5911 90.4685 19.0761 90.0966 19.4965C89.7248 19.9006 89.256 20.224 88.7063 20.4503C88.1566 20.6766 87.5423 20.806 86.831 20.806ZM86.831 19.2701C87.2513 19.2701 87.6393 19.1731 87.9465 18.9953C88.2698 18.8175 88.5123 18.575 88.7225 18.284C88.9326 17.993 89.0781 17.6535 89.1751 17.2978C89.2721 16.926 89.3206 16.5541 89.3206 16.1661C89.3206 15.7943 89.2721 15.4225 89.1751 15.0506C89.0781 14.6788 88.9326 14.3555 88.7225 14.0645C88.5123 13.7735 88.2536 13.5471 87.9465 13.3693C87.6231 13.1915 87.2513 13.0945 86.831 13.0945C86.4106 13.0945 86.0226 13.1915 85.7155 13.3693C85.3921 13.5471 85.1496 13.7896 84.9395 14.0645C84.7293 14.3555 84.5838 14.6788 84.4868 15.0506C84.3898 15.4225 84.3413 15.7943 84.3413 16.1661C84.3413 16.5541 84.3898 16.926 84.4868 17.2978C84.5838 17.6696 84.7293 17.993 84.9395 18.284C85.1496 18.575 85.4083 18.8175 85.7155 18.9953C86.0388 19.1893 86.4106 19.2701 86.831 19.2701ZM91.8426 11.785H93.3138V9.13364H95.2538V11.7688H96.9998V13.2076H95.2538V17.896C95.2538 18.1061 95.27 18.2678 95.2861 18.4295C95.3023 18.575 95.3508 18.7043 95.3993 18.8013C95.464 18.8983 95.561 18.9791 95.6741 19.0276C95.8035 19.0761 95.9651 19.1085 96.1915 19.1085C96.3208 19.1085 96.4663 19.1085 96.5956 19.0923C96.725 19.0761 96.8705 19.06 96.9998 19.0276V20.5311C96.7896 20.5635 96.5795 20.5796 96.3693 20.5958C96.1591 20.6281 95.9651 20.6281 95.7388 20.6281C95.2215 20.6281 94.8173 20.5796 94.5101 20.4826C94.203 20.3856 93.9605 20.2401 93.7826 20.0623C93.6048 19.8683 93.4916 19.642 93.427 19.3671C93.3623 19.0923 93.33 18.7528 93.3138 18.3971V13.2238H91.8426V11.7526V11.785Z" fill="#242527"/>
    <path d="M23.2315 8.439H14.356L11.6238 0L8.87549 8.439L0 8.42283L7.178 13.6447L4.42966 22.0837L11.6077 16.8618L18.7857 22.0837L16.0535 13.6447L23.2315 8.439Z" fill="#00B67A"/>
    <path d="M16.667 15.5522L16.0527 13.6445L11.623 16.8617L16.667 15.5522Z" fill="#242527"/>
  </symbol>

  <symbol id="icon-trustpilot-raiting" viewBox="0 0 128 24" fill="none" xmlns="http://www.w3.org/2000/svg">
    <path d="M0 0H23.9872V23.9872H0V0ZM25.9861 0H49.9734V23.9872H25.9861V0ZM51.9723 0H75.9595V23.9872H51.9723V0ZM77.9584 0H101.946V23.9872H77.9584V0ZM103.945 0H127.932V23.9872H103.945V0Z" fill="#00B67A"/>
    <rect width="21.5949" height="24" transform="matrix(-1 0 0 1 127.932 0)" fill="#E6E6E6"/>
    <path d="M11.9932 16.1664L15.6412 15.2419L17.1654 19.9394L11.9932 16.1664ZM20.3887 10.0946H13.9671L11.9932 4.04785L10.0192 10.0946H3.59766L8.79489 13.8426L6.82094 19.8894L12.0182 16.1414L15.2165 13.8426L20.3887 10.0946ZM37.9793 16.1664L41.6274 15.2419L43.1516 19.9394L37.9793 16.1664ZM46.3748 10.0946H39.9533L37.9793 4.04785L36.0054 10.0946H29.5838L34.781 13.8426L32.8071 19.8894L38.0043 16.1414L41.2026 13.8426L46.3748 10.0946ZM63.9655 16.1664L67.6135 15.2419L69.1377 19.9394L63.9655 16.1664ZM72.361 10.0946H65.9394L63.9655 4.04785L61.9915 10.0946H55.5699L60.7672 13.8426L58.7932 19.8894L63.9905 16.1414L67.1887 13.8426L72.361 10.0946ZM89.9516 16.1664L93.5997 15.2419L95.1239 19.9394L89.9516 16.1664ZM98.3471 10.0946H91.9256L89.9516 4.04785L87.9777 10.0946H81.5561L86.7533 13.8426L84.7794 19.8894L89.9766 16.1414L93.1749 13.8426L98.3471 10.0946ZM115.938 16.1664L119.586 15.2419L121.11 19.9394L115.938 16.1664ZM124.333 10.0946H117.912L115.938 4.04785L113.964 10.0946H107.542L112.739 13.8426L110.766 19.8894L115.963 16.1414L119.161 13.8426L124.333 10.0946Z" fill="white"/>
  </symbol>


</svg>

