<?xml version="1.0" standalone="no"?>
<!DOCTYPE svg PUBLIC "-//W3C//DTD SVG 20010904//EN"
 "http://www.w3.org/TR/2001/REC-SVG-20010904/DTD/svg10.dtd">
<svg version="1.0" xmlns="http://www.w3.org/2000/svg"
 width="700.000000pt" height="700.000000pt" viewBox="0 0 700.000000 700.000000"
 preserveAspectRatio="xMidYMid meet">
<metadata>
Created by potrace 1.14, written by Peter Selinger 2001-2017
</metadata>
<g transform="translate(0.000000,700.000000) scale(0.100000,-0.100000)"
fill="#000000" stroke="none">
<path d="M3215 5939 c-731 -88 -1383 -493 -1788 -1110 -522 -796 -538 -1830
-39 -2643 91 -149 219 -313 350 -446 l122 -125 0 -487 c0 -269 2 -488 3 -488
2 0 194 108 427 241 329 187 429 240 449 236 14 -2 69 -16 121 -31 572 -157
1208 -93 1741 174 655 329 1121 909 1299 1615 54 213 73 371 73 605 0 705
-281 1342 -805 1826 -286 264 -668 472 -1047 569 -209 54 -320 67 -581 70
-135 2 -281 -1 -325 -6z m427 -838 l33 -29 5 -654 5 -654 370 214 c793 459
747 434 784 428 43 -7 61 -24 106 -99 70 -117 60 -155 -59 -226 -44 -27 -290
-169 -546 -316 -256 -147 -471 -273 -478 -280 -10 -9 98 -76 530 -324 299
-172 555 -326 571 -342 40 -43 36 -80 -18 -171 -48 -83 -66 -98 -115 -98 -40
0 -20 -11 -625 339 l-520 301 -5 -655 -5 -655 -28 -27 c-25 -25 -35 -28 -113
-32 -90 -3 -130 7 -161 41 -17 19 -18 59 -23 674 l-5 654 -520 -301 c-607
-351 -585 -339 -627 -339 -48 0 -72 21 -117 104 -49 88 -52 124 -13 165 15 16
271 169 569 341 299 172 541 316 538 320 -3 4 -253 151 -556 326 -572 330
-579 335 -579 399 0 33 71 157 106 184 54 43 -11 75 832 -412 l372 -215 0 645
c0 585 2 648 17 673 24 41 47 49 150 49 89 1 94 0 125 -28z"/>
</g>
</svg>
