<svg width="85" height="35" viewBox="0 0 85 35" fill="none" xmlns="http://www.w3.org/2000/svg">
<path id="Vector" d="M0.556285 33.7266C0.671579 34.435 1.38302 34.9723 2.1053 34.8279C3.55293 34.5395 5.00564 34.2732 6.46013 34.0187C7.83051 33.7773 9.20528 33.5534 10.5691 33.274C12.098 32.9602 13.6247 32.6323 15.1499 32.2979C16.5103 31.9989 17.8757 31.7036 19.2295 31.3746C22.1519 30.6645 25.0635 29.9105 27.9745 29.1596C30.8718 28.4124 33.7474 27.5735 36.5757 26.5937C39.3294 25.6399 42.0783 24.6654 44.7949 23.6055C46.2929 23.0208 47.7868 22.4301 49.2749 21.8206C50.5922 21.2818 51.8948 20.7093 53.2018 20.1435C53.9581 19.8168 54.6996 19.4521 55.4487 19.1076C56.0244 18.8414 56.5939 18.5603 57.1653 18.2832C58.4492 17.6586 59.7348 17.0304 60.9952 16.3597C63.6139 14.9659 66.2412 13.5796 68.7895 12.0585C71.1698 10.6374 73.51 9.15997 75.8471 7.66918C76.0064 7.56706 76.1622 7.45993 76.3184 7.35268C75.998 7.74275 75.6812 8.13564 75.368 8.53299C74.5261 9.60197 73.7505 10.7333 73.0046 11.8714C72.232 13.0518 71.4728 14.2445 70.7831 15.4742C70.1577 16.5876 69.5619 17.7157 69.0083 18.8668C68.4573 20.0104 67.8981 21.1531 67.3975 22.3205C67.1722 22.8467 67.4122 23.4964 67.8645 23.8099C68.3294 24.1314 68.9933 24.0976 69.4248 23.7389C69.5122 23.6662 69.5902 23.5801 69.6553 23.4814C70.1982 22.6505 70.5964 21.7312 71.0202 20.8372C71.3731 20.0956 71.7311 19.3561 72.0942 18.6195C72.0398 18.7214 71.9859 18.8254 71.9322 18.9281C72.1156 18.5779 72.2981 18.2284 72.4797 17.8771C73.0523 16.7842 73.7055 15.7282 74.3508 14.6763C74.9806 13.6515 75.6395 12.6344 76.3352 11.6528C77.0484 10.6498 77.7673 9.65284 78.5517 8.70268C78.9379 8.23405 79.3131 7.75602 79.7173 7.30267C80.1371 6.83366 80.5555 6.36208 80.9764 5.8934C81.8505 4.98882 82.723 4.08295 83.608 3.18905C83.8553 2.93598 84.0323 2.68464 84.067 2.32226C84.1 1.98643 83.9955 1.64863 83.7817 1.39145C83.7317 1.33133 83.6764 1.27845 83.6167 1.22917C83.6015 1.12446 83.5768 1.02102 83.5331 0.922827C83.4036 0.635034 83.1576 0.407161 82.8596 0.301501C82.7374 0.256895 82.6201 0.242341 82.5045 0.240917C82.0812 0.11026 81.6008 0.195906 81.2197 0.484997C81.1346 0.549127 81.0497 0.614337 80.9643 0.678847C80.2807 0.912108 79.5971 1.14562 78.9127 1.37572C77.7027 1.73711 76.4923 2.11153 75.2619 2.39631C73.895 2.71242 72.5248 2.99455 71.1355 3.19233C68.4137 3.58011 65.6914 3.95121 62.9556 4.21222C62.0605 4.29853 61.1597 4.35238 60.2635 4.39883C59.8 4.42153 59.3372 4.44355 58.873 4.46309C58.659 4.47214 58.4442 4.482 58.2291 4.49209C57.7421 4.51467 57.2942 4.59294 56.8469 4.80645C56.3245 5.05754 56.0113 5.61329 56.1037 6.18779C56.1578 6.52507 56.3511 6.83126 56.6322 7.02601C56.8854 7.20176 57.2637 7.31177 57.5741 7.23309C57.7197 7.19777 57.8568 7.17202 58.006 7.15627C57.893 7.16051 57.7805 7.16438 57.668 7.16826C59.1912 7.11235 60.7102 7.0388 62.2296 6.92803C63.5594 6.83241 64.8841 6.68035 66.2067 6.51188C67.5274 6.34462 68.8486 6.17449 70.1637 5.96203C70.8833 5.84641 71.6032 5.73034 72.3223 5.60194C72.9882 5.48333 73.6482 5.34084 74.3098 5.20092C74.5342 5.15294 74.7568 5.09435 74.979 5.03335C74.6505 5.25927 74.3209 5.48308 73.9851 5.69627C73.1613 6.22289 72.3375 6.7495 71.5128 7.27408C69.1241 8.74852 66.732 10.2122 64.2664 11.5566C61.5965 13.0127 58.9175 14.4434 56.1827 15.7729C53.5877 17.035 50.9605 18.2288 48.2905 19.3223C45.6035 20.421 42.9038 21.4932 40.1733 22.4787C37.8659 23.3105 35.5531 24.1204 33.2238 24.8899C33.3359 24.8561 33.4472 24.8216 33.5593 24.7877C32.7917 25.0223 32.0237 25.256 31.2561 25.4908C30.5426 25.708 29.8191 25.8942 29.1008 26.0957C27.7064 26.485 26.2974 26.823 24.8948 27.1808C22.0906 27.8969 19.2894 28.6196 16.4646 29.2499C13.9427 29.8132 11.4205 30.3713 8.88281 30.8565C7.75454 31.072 6.61987 31.2519 5.4877 31.4548C4.21492 31.6847 2.9436 31.9163 1.67485 32.1709C0.952223 32.3162 0.43784 32.9877 0.556285 33.7266Z" fill="#3A3B3D"/>
</svg>
